<svg width="472" height="433" viewBox="0 0 472 433" xmlns="http://www.w3.org/2000/svg" xmlns:xlink="http://www.w3.org/1999/xlink">
  <defs>
    <path id="a" d="M0 .1353h423.9322v350.8015H0z"/>
    <path id="c" d="M0 373.5595h423.9322V.4013H0z"/>
    <path d="M272.6716 1.0828L9.661 39.2409.302 51.6045c8.4822 9.743 17.8239 18.7414 27.9994 26.8183 55.356 43.9413 135.3956 57.2392 199.4623 27.4152 20.9182-9.738 39.7398-23.5717 56.7658-39.1497 21.0759-19.2832 39.6742-41.5334 53.6856-66.3764l-65.5435.7709z" id="e"/>
    <path d="M21.0846 3.166c-3.2753 1.0973-6.5229 2.5352-9.033 4.9091-1.994 1.8859-3.4303 4.273-4.8326 6.6334C4.65 19.033 2.0755 23.4563.904 28.349c-1.358 5.67-.6962 11.7165 1.4943 17.1349 20.481-1.6511 40.6137-6.681 59.3758-15.4151 6.56-3.0541 12.9129-6.5113 19.0699-10.298-4.5495-6.8042-11.703-12.0138-19.3622-15.1904C54.489 1.6805 46.9183.2203 39.3497.2203c-6.1954-.0005-12.3885.978-18.265 2.9457z" id="g"/>
  </defs>
  <g fill="none" fill-rule="evenodd">
    <g transform="translate(24 40.0392)">
      <g transform="translate(0 13.656)">
        <mask id="b" fill="#fff">
          <use xlink:href="#a"/>
        </mask>
        <path d="M375.6163 55.0581c-26.4857-11.372-131.5201-44.2104-200.2772-52.0595-30.137-3.44-61.0375-4.9726-90.4661 2.3818-29.4282 7.354-57.5051 24.681-71.977 51.3521C2.2436 76.3647-.33 99.4033.0324 121.7385c1.147 70.689 31.9119 141.8134 87.2679 185.7542 55.3564 43.9413 135.3956 57.2388 199.4623 27.4143 20.9186-9.7376 39.7397-23.5708 56.7658-39.1488 26.3531-24.1118 48.8397-52.857 63.3186-85.5178 14.4785-32.6605 20.6924-69.3618 14.98-104.6306-3.5126-21.6876-19.725-39.1797-46.2107-50.5517" fill="#FFF" mask="url(#b)"/>
      </g>
      <path d="M313.601 140.9022c.0404-6.2294-5.0203-11.3592-11.246-11.3993l-7.0724-.0463c-.018.1414-.0308.2833-.058.4256-.3374 1.7422-1.3712 3.2567-2.3812 4.7153a242087.073 242087.073 0 0 1-12.0023 17.337c-2.7628 3.9911-5.6 8.0597-9.5147 10.928-4.1995 3.0765-9.3284 4.547-14.3398 5.9536-12.5298 3.5162-25.485 7.1998-35.4892 15.5265-10.954 9.1174-17.3633 23.0188-29.0086 31.2336-12.1124 8.5443-27.467 9.4284-42.5752 8.5236 2.064 2.4087 5.1144 3.9514 8.5152 3.9735l143.2777.9343c6.2257.041 11.3533-5.0223 11.3938-11.2517l.5006-76.8537z" fill="#FFD2B6"/>
      <path d="M200.1716 127.4406h-.0088l-.648-.0044c-.7156-.0049-1.2919-.589-1.287-1.3049.0048-.7132.5838-1.288 1.2953-1.288h.0088l.6481.0044c.716.0048 1.2918.589 1.287 1.3052-.0044.7128-.5839 1.2877-1.2954 1.2877m3.8874.0255h-.0088l-.6482-.0044c-.7159-.0048-1.2918-.589-1.287-1.3052.0045-.7159.6006-1.2956 1.3042-1.2877l.6481.0044c.7155.0049 1.2918.589 1.287 1.3048-.0048.7132-.5838 1.2881-1.2953 1.2881m3.8868.0251h-.0083l-.6477-.0044c-.7155-.0044-1.2922-.588-1.2874-1.3044.0044-.7158.5812-1.3056 1.3037-1.288l.6477.004c.7159.0043 1.2922.5885 1.2878 1.3043-.0048.7136-.5838 1.2885-1.2958 1.2885m3.8874.0251h-.0084l-.6477-.004c-.7159-.0043-1.2922-.5885-1.2878-1.3043.0048-.7163.597-1.2762 1.3041-1.2885l.6477.0044c.716.0044 1.2923.5885 1.2878 1.3044-.0048.7132-.5838 1.288-1.2957 1.288m3.8873.0256h-.0084l-.6476-.004c-.716-.0048-1.2923-.5885-1.2879-1.3048.0049-.7132.5838-1.288 1.2958-1.288h.0084l.6476.0039c.7155.0044 1.2923.5885 1.2874 1.3048-.0044.7132-.5833 1.288-1.2953 1.288m3.8873.0256h-.0088l-.648-.0044c-.7156-.0048-1.2919-.589-1.287-1.3052.0048-.7159.5688-1.2947 1.304-1.2877l.6482.0044c.716.0049 1.2918.589 1.287 1.3049-.0044.7132-.5839 1.288-1.2954 1.288m3.8874.0251h-.0089l-.648-.0044c-.716-.0044-1.2919-.5885-1.287-1.3048.0044-.7132.5838-1.2876 1.2953-1.2876h.0088l.6481.004c.7155.0048 1.2918.589 1.287 1.3052-.0049.7132-.5838 1.2876-1.2953 1.2876m3.8868.0256h-.0088l-.6476-.0044c-.7155-.0049-1.2918-.589-1.287-1.3048.0044-.7132.5838-1.2881 1.2953-1.2881h.0088l.6477.0044c.716.0049 1.2918.589 1.2874 1.3048-.0048.7132-.5842 1.288-1.2958 1.288m3.8874.0252h-.0088l-.6477-.004c-.716-.0048-1.2918-.589-1.2874-1.3052.0048-.7128.5843-1.2877 1.2958-1.2877h.0088l.6476.0045c.716.0044 1.2918.589 1.2874 1.3048-.0048.7132-.5838 1.2876-1.2957 1.2876m3.8873.0256h-.0088l-.6477-.0045c-.7159-.0044-1.2918-.589-1.2874-1.3048.0049-.7162.5887-1.2942 1.3046-1.2876l.6477.004c.7159.0048 1.2918.589 1.287 1.3052-.0045.7128-.5839 1.2877-1.2954 1.2877m3.8873.025h-.0083l-.6481-.0039c-.7155-.0044-1.2919-.5885-1.2875-1.3048.0044-.7159.5966-1.2885 1.3037-1.288l.6481.0039c.7155.0048 1.2919.5885 1.2875 1.3048-.0044.7132-.5839 1.288-1.2954 1.288m3.8873.0256h-.0083l-.6481-.004c-.716-.0048-1.2923-.5885-1.2874-1.3048.0044-.7132.5834-1.288 1.2953-1.288h.0084l.648.004c.7155.0043 1.2919.5885 1.2875 1.3043-.0044.7136-.5838 1.2885-1.2953 1.2885m3.8868.0251h-.0083l-.6477-.004c-.7155-.0043-1.2918-.5885-1.2874-1.3043.0044-.7163.5728-1.2846 1.3037-1.2885l.6477.0044c.7159.0044 1.2922.5885 1.2878 1.3043-.0048.7132-.5838 1.2881-1.2958 1.2881m3.8874.0256h-.0088l-.6477-.0044c-.716-.0044-1.2918-.589-1.2874-1.3048.0048-.7132.5842-1.2877 1.2958-1.2877h.0088l.6476.004c.716.0048 1.2923.589 1.2874 1.3052-.0048.7128-.5838 1.2877-1.2957 1.2877m3.8873.0255h-.0088l-.6481-.0044c-.7155-.0048-1.2918-.589-1.287-1.3052.0049-.7128.5838-1.2877 1.2953-1.2877h.0088l.6482.0044c.7159.0049 1.2918.589 1.287 1.3048-.0045.7132-.5839 1.2881-1.2954 1.2881M145.3518 142.7595h-.0093c-.7405-.0048-1.3371-.6096-1.3323-1.351l.0366-5.6475c.0405-6.2192 5.1113-11.2512 11.318-11.2512.0252 0 .0498 0 .075.0004l39.5099.2577c.741.0044 1.3376.6097 1.3327 1.351-.0048.738-.6045 1.333-1.3416 1.333h-.0088l-39.5099-.2572c-.019-.0004-.0379-.0004-.0568-.0004-4.7362 0-8.6046 3.839-8.6354 8.5844l-.037 5.6474c-.0044.7383-.6045 1.3334-1.3411 1.3334M268.6904 225.9719h-.0093l-113.8975-.7432c-3.0124-.0193-5.8444-1.2189-7.9736-3.3774-2.1293-2.1585-3.2912-5.007-3.2718-8.021l.438-67.2323c.005-.7414.6085-1.3603 1.3504-1.3334.741.0048 1.3376.6096 1.3328 1.351l-.438 67.2324c-.015 2.2968.8721 4.4695 2.4981 6.1174 1.626 1.648 3.7856 2.5643 6.0818 2.5793l113.8979.7427c.7406.0048 1.3372.6097 1.3323 1.351-.0044.7384-.6045 1.3335-1.3411 1.3335M309.9679 203.4046h-.0088c-.716-.0049-1.2919-.589-1.287-1.3048l.004-.6485c.0048-.7132.5842-1.2876 1.2957-1.2876h.0088c.7155.0044 1.2918.5885 1.287 1.3048l-.0044.6485c-.0044.7127-.5838 1.2876-1.2953 1.2876m-.0256 3.8893h-.0088c-.7155-.0048-1.2918-.589-1.287-1.3052l.0045-.648c.0048-.7132.5838-1.2881 1.2953-1.2881h.0088c.716.0048 1.2918.589 1.2874 1.3052l-.0044.648c-.0048.7133-.5838 1.2881-1.2958 1.2881m-.025 3.889h-.0089c-.7159-.005-1.2918-.589-1.2874-1.3049l.0044-.648c.0049-.7132.5838-1.288 1.2958-1.288h.0088c.7155.0048 1.2918.5889 1.287 1.3052l-.0044.648c-.0049.7132-.5839 1.2876-1.2954 1.2876m-.025 3.8894h-.0084c-.716-.0044-1.2923-.5886-1.2879-1.3044l.0044-.6485c.0044-.7132.5834-1.288 1.2954-1.288h.0083c.7155.0044 1.2923.5885 1.2874 1.3043l-.004.6485c-.0043.7132-.5838 1.288-1.2953 1.288m-.402 3.8515a1.31 1.31 0 0 1-.3623-.052c-.6873-.2-1.0822-.9193-.8828-1.607a8.6113 8.6113 0 0 0 .14-.5458c.1541-.6995.8471-1.14 1.545-.9859.6987.1547 1.14.8472.9854 1.5463a11.4513 11.4513 0 0 1-.1814.7092c-.1647.567-.6825.9352-1.2439.9352m-1.7827 3.4286a1.29 1.29 0 0 1-.808-.2833c-.559-.4471-.6502-1.263-.2038-1.8224a8.6325 8.6325 0 0 0 .3368-.4511c.4095-.5877 1.217-.7326 1.8044-.3225.5869.4093.7313 1.2172.3222 1.8048-.14.2005-.2861.3965-.4385.5872a1.292 1.292 0 0 1-1.013.4873m-2.9395 2.5048c-.453 0-.8929-.2384-1.1306-.6613-.3505-.6242-.129-1.415.4944-1.7656a8.5905 8.5905 0 0 0 .4817-.292c.5997-.3908 1.4023-.2207 1.7933.3793.39.6.2206 1.403-.3791 1.7937-.2039.133-.4126.2595-.6257.3793a1.291 1.291 0 0 1-.634.1666m-26.343 1.1325h-.0084l-.6476-.0044c-.7155-.0044-1.2919-.5885-1.2874-1.3044.0044-.7162.574-1.3012 1.3037-1.288l.6476.004c.716.0043 1.2923.5885 1.2879 1.3043-.0044.7132-.5839 1.2885-1.2958 1.2885m3.8873.0251h-.0083l-.6477-.004c-.716-.0043-1.2923-.5885-1.2879-1.3047.0049-.7159.59-1.2714 1.3042-1.2881l.648.004c.7156.0048 1.2919.5885 1.2875 1.3048-.0044.7132-.5838 1.288-1.2958 1.288m3.8873.0256h-.0083l-.6477-.004c-.7159-.0048-1.2922-.5885-1.2874-1.3048.0044-.7158.605-1.2969 1.3037-1.288l.6477.0039c.7159.0044 1.2922.5885 1.2874 1.3044-.0044.7136-.5834 1.2885-1.2954 1.2885m14.896.018c-.6468 0-1.206-.4836-1.2848-1.1422-.085-.711.4218-1.3568 1.1324-1.4418a8.5267 8.5267 0 0 0 .5557-.085c.704-.1305 1.3803.3317 1.512 1.0352.132.704-.3316 1.3814-1.0348 1.5131-.239.0445-.4808.082-.7247.111a1.244 1.244 0 0 1-.1558.0097m-11.0086.007h-.0088l-.6481-.0039c-.7155-.0048-1.2919-.589-1.287-1.3052.0044-.7159.5812-1.2789 1.3046-1.2877l.6476.0044c.716.0044 1.2919.589 1.2875 1.3049-.0049.7132-.5843 1.2876-1.2958 1.2876m3.8873.0255h-.0088l-.6481-.0044c-.7155-.0044-1.2918-.589-1.287-1.3048.0049-.7163.5733-1.3044 1.3042-1.2876l.648.004c.7155.0048 1.2919.589 1.287 1.3052-.0048.7128-.5838 1.2876-1.2953 1.2876m3.8869.0256h-.0088l-.6477-.0044c-.7155-.0049-1.2918-.589-1.287-1.3053.0049-.7127.5839-1.2876 1.2954-1.2876h.0088l.6477.0044c.7159.0048 1.2922.589 1.2874 1.3048-.0049.7132-.5839 1.288-1.2958 1.288M309.9986 198.7572h-.0093c-.7405-.0048-1.3371-.6097-1.3323-1.351l.3945-60.5691c.015-2.2964-.8722-4.4695-2.4982-6.1175-1.626-1.648-3.7856-2.5642-6.0817-2.5788l-40.6133-.2652c-.741-.0048-1.3372-.6097-1.3328-1.351.0049-.741.6178-1.3238 1.3504-1.3335l40.6133.2652c3.0125.0194 5.844 1.2194 7.9737 3.3779 2.1292 2.158 3.2911 5.007 3.2713 8.021l-.3945 60.5686c-.0044.7383-.6045 1.3334-1.3411 1.3334" fill="#5C7DB1"/>
      <path d="M166.3826 201.1413h-.0057l-2.5942-.0171c-.4778-.0027-.8626-.393-.859-.8705a.864.864 0 0 1 .8642-.8595h.0058l2.5942.0168a.8645.8645 0 0 1 .859.8709.8643.8643 0 0 1-.8643.8594m3.4585.0225h-.0058l-.8647-.0057c-.4773-.0031-.862-.393-.859-.8705.003-.478.4112-.8678.8705-.8599l.8647.0058c.4773.003.862.3929.859.8709a.865.865 0 0 1-.8647.8594m8.6473.0564h-.0058l-2.5941-.0167a.8615.8615 0 0 1-.4315-.1185c-.1282.0726-.2963.11-.4333.1127l-2.5942-.0172c-.4777-.0026-.862-.3929-.859-.8704a.8647.8647 0 0 1 .8648-.8595h.0057l2.5937.0168a.8644.8644 0 0 1 .432.1185c.128-.0727.2919-.107.4332-.1128l2.5938.0167a.8648.8648 0 0 1 .859.871c-.0027.4761-.3897.8594-.8643.8594m3.4589.0225h-.0057l-.8648-.0058c-.4772-.003-.862-.393-.859-.8704.0031-.4758.3897-.8595.8643-.8595h.0057l.8648.0053a.8645.8645 0 0 1 .859.871.8643.8643 0 0 1-.8643.8594m8.6473.0563h-.0057l-2.5947-.0167a.864.864 0 0 1-.4314-.1185c-.1273.0727-.2704.1128-.4328.1128l-2.5947-.0168c-.4773-.003-.862-.3933-.859-.8709a.8647.8647 0 0 1 .8647-.8594h.0058l2.5942.0167a.8628.8628 0 0 1 .4314.1185c.1277-.0727.2788-.1004.4333-.1127l2.5942.0167c.4773.003.862.393.859.8709-.003.4758-.3897.8594-.8643.8594M166.3488 206.3195h-.0057l-2.5942-.0171c-.4777-.0027-.8625-.393-.859-.8705.0026-.478.3879-.87.87-.8595l2.5942.0168a.8645.8645 0 0 1 .859.8709.8643.8643 0 0 1-.8643.8594m3.4585.0225h-.0057l-.8648-.0057c-.4772-.0031-.862-.393-.859-.8705.0031-.478.3919-.851.8705-.8599l.8647.0058c.4773.003.8621.3929.859.8709a.865.865 0 0 1-.8647.8594m8.6473.0564h-.0057l-2.5942-.0167a.8615.8615 0 0 1-.4315-.1185.8312.8312 0 0 1-.4332.1127l-2.5942-.0171c-.4778-.0027-.8621-.393-.859-.8705.003-.478.3768-.8736.8704-.8595l2.5938.0168a.8644.8644 0 0 1 .4319.1185c.1277-.0727.2941-.1212.4332-.1128l2.5938.0167a.8648.8648 0 0 1 .859.871.864.864 0 0 1-.8643.8594m3.459.0225h-.0058l-.8647-.0058c-.4773-.003-.8621-.3929-.859-.8704.003-.4758.3896-.8595.8643-.8595h.0057l.8647.0053a.8645.8645 0 0 1 .859.871.8643.8643 0 0 1-.8643.8594M271.4134 202.2577h-.0088l-.6481-.0044c-.7155-.0049-1.2918-.589-1.287-1.3049.0049-.7132.5838-1.288 1.2954-1.288h.0088l.648.0044c.716.0048 1.2919.589 1.287 1.3052-.0044.7128-.5838 1.2877-1.2953 1.2877m3.8873.025h-.0083l-.6481-.0039c-.716-.0044-1.2923-.5885-1.2874-1.3048.0044-.7132.5833-1.288 1.2953-1.288h.0084l.648.0039c.7155.0048 1.2919.5885 1.2875 1.3048-.0044.7132-.5839 1.288-1.2954 1.288m3.887.0256h-.0084l-.6477-.0044c-.7155-.0044-1.2923-.588-1.2874-1.3044.0044-.7132.5834-1.288 1.2953-1.288h.0084l.6476.004c.716.0043 1.2923.5885 1.2879 1.3043-.0048.7136-.5838 1.2885-1.2958 1.2885m3.8873.0251h-.0083l-.6477-.004c-.7159-.0043-1.2922-.5885-1.2878-1.3043.0048-.7163.597-1.2951 1.3041-1.2885l.6477.0044c.7159.0044 1.2922.5885 1.2878 1.3044-.0048.7132-.5838 1.288-1.2958 1.288m3.8874.0256h-.0088l-.6477-.0044c-.716-.0049-1.2918-.589-1.2874-1.3048.0048-.7132.5843-1.2881 1.2958-1.2881h.0088l.6476.0044c.7155.0048 1.2919.589 1.287 1.3052-.0044.7128-.5838 1.2877-1.2953 1.2877m3.8873.0255h-.0088l-.6481-.0044c-.7155-.0048-1.2918-.589-1.287-1.3052.0044-.7159.5843-1.2943 1.3042-1.2877l.648.0044c.716.0049 1.2919.589 1.287 1.3049-.0044.7132-.5838 1.288-1.2953 1.288m3.8873.0251h-.0088l-.648-.0044c-.716-.0044-1.2919-.5885-1.287-1.3048.0043-.7132.5838-1.2876 1.2953-1.2876h.0088l.6481.004c.7155.0048 1.2918.589 1.287 1.3052-.0049.7132-.5839 1.2876-1.2954 1.2876m3.887.0256h-.0089l-.6477-.0044c-.7154-.0049-1.2918-.589-1.287-1.3048.0045-.7163.5685-1.2943 1.3042-1.2881l.6477.0044c.7159.0048 1.2918.589 1.2874 1.3048-.0049.7132-.5843 1.288-1.2958 1.288M158.1576 188.9447h-.0092c-.7406-.0048-1.3372-.6097-1.3323-1.351l.0326-5.0563c.0048-.7383.6045-1.3335 1.3415-1.3335h.0088c.741.0049 1.3376.6097 1.3328 1.351l-.033 5.0564c-.0044.7383-.6046 1.3334-1.3412 1.3334M213.5485 189.3058h-.0092c-.7406-.0048-1.3372-.6096-1.3324-1.351l.0326-5.0558c.0049-.7414.6151-1.341 1.3504-1.3335.741.0044 1.3376.6097 1.3328 1.351l-.033 5.0559c-.0045.7383-.6046 1.3334-1.3412 1.3334M174.7343 189.0527h-.0092c-.7406-.0049-1.3376-.6097-1.3323-1.351l.033-5.056c.0048-.7382.6045-1.3334 1.3411-1.3334h.0092c.7406.0049 1.3376.6097 1.3328 1.3511l-.0335 5.0558c-.0048.7383-.6045 1.3335-1.341 1.3335M180.395 189.0897h-.0093c-.7406-.0049-1.3372-.6097-1.3323-1.351l.0325-5.0564c.0049-.7383.6046-1.3334 1.3416-1.3334h.0088c.741.0048 1.3376.6097 1.3328 1.351l-.033 5.0563c-.0045.7383-.6046 1.3335-1.3412 1.3335M166.463 189.0998h-.0269c-1.0598-.007-2.0544-.4264-2.799-1.1815-.7449-.755-1.1513-1.755-1.1442-2.8158.0048-.7383.6045-1.3334 1.3411-1.3334h.0092c.7406.0048 1.3372.6096 1.3328 1.351a1.279 1.279 0 0 0 .3707.9123 1.278 1.278 0 0 0 .907.3829h.0088a1.277 1.277 0 0 0 .9035-.371 1.2795 1.2795 0 0 0 .3826-.9079 1.2797 1.2797 0 0 0-.3707-.9123 1.279 1.279 0 0 0-.9074-.3828c-.741-.0048-1.3376-.6097-1.3328-1.351.0048-.7384.6045-1.3335 1.3416-1.3335h.0088c1.0602.007 2.0544.4269 2.7993 1.1815.7446.755 1.151 1.755 1.1444 2.8158-.007 1.0607-.4267 2.0554-1.181 2.8008-.7484.7392-1.7373 1.1449-2.7878 1.1449M235.7857 189.4508h-.0092c-.7406-.0048-1.3372-.6097-1.3323-1.351l.0326-5.0559c.0048-.7383.6045-1.3334 1.3415-1.3334h.0088c.741.0044 1.3376.6097 1.3328 1.351l-.033 5.0559c-.0044.7383-.6046 1.3334-1.3412 1.3334M241.4463 189.4878h-.0092c-.7406-.0048-1.3372-.6096-1.3323-1.351l.0326-5.0559c.0048-.7383.6045-1.3334 1.3415-1.3334h.0088c.741.0044 1.3376.6097 1.3328 1.351l-.033 5.0559c-.0044.7383-.6046 1.3334-1.3412 1.3334M221.8538 189.4611h-.0269c-1.0597-.007-2.0544-.4264-2.7989-1.1814-.745-.755-1.1514-1.755-1.1443-2.8158.007-1.0608.4262-2.0555 1.1809-2.8008.748-.7388 1.7373-1.145 2.7879-1.145h.0264c.741.0049 1.3376.6097 1.3328 1.3511-.0049.7383-.6046 1.3335-1.3412 1.3335h-.0176c-.3403 0-.6609.1317-.9035.3709a1.2803 1.2803 0 0 0-.3826.9079 1.2797 1.2797 0 0 0 .3707.9123 1.278 1.278 0 0 0 .907.3828h.0089a1.277 1.277 0 0 0 .9034-.3709 1.2795 1.2795 0 0 0 .3826-.908c.0044-.7413.6006-1.3492 1.3504-1.333.7406.0045 1.3372.6093 1.3328 1.3507-.007 1.0608-.4267 2.0555-1.1809 2.8008-.7485.7392-1.7374 1.145-2.7879 1.145M205.2593 189.353h-.0093c-2.1882-.0142-3.9573-1.8075-3.9432-3.9973.007-1.0608.4266-2.0555 1.1813-2.8008.748-.7388 1.737-1.145 2.7875-1.145h.0268c1.0598.0071 2.0544.427 2.799 1.1815.745.755 1.1513 1.755 1.1443 2.8158-.0049.7414-.6182 1.3317-1.3504 1.3335-.7406-.0044-1.3372-.6093-1.3328-1.3511a1.2778 1.2778 0 0 0-.3707-.9123 1.278 1.278 0 0 0-.907-.3828h-.0088a1.277 1.277 0 0 0-.9035.3709 1.2803 1.2803 0 0 0-.3826.9079c-.0048.7097.5689 1.2907 1.2782 1.2951.7406.0049 1.3371.6097 1.3323 1.351-.0044.7384-.6045 1.3335-1.3411 1.3335M194.3432 189.2818h-.0093c-1.0598-.0071-2.0544-.4265-2.799-1.1815-.7449-.755-1.1513-1.755-1.1442-2.8158.007-1.0608.4262-2.0555 1.1808-2.8008.7485-.7388 1.7374-1.145 2.788-1.145h.0264c1.0602.0071 2.0544.427 2.7993 1.1815.7446.755 1.151 1.755 1.1443 2.8158-.0048.7383-.6045 1.3335-1.3415 1.3335h-.0088c-.741-.0044-1.3376-.6093-1.3328-1.351a1.2797 1.2797 0 0 0-.3707-.9124 1.279 1.279 0 0 0-.9075-.3828h-.0083c-.3404 0-.6609.1317-.9035.3709a1.2803 1.2803 0 0 0-.3826.908 1.279 1.279 0 0 0 .3707.9122c.2413.2445.5636.3806.9075.3828.7405.0049 1.3371.6097 1.3323 1.3511-.0044.7383-.6045 1.3335-1.3411 1.3335M247.2196 189.5254h-.0093c-.7406-.0048-1.3371-.6096-1.3323-1.351l.0326-5.0558c.0048-.7419.6036-1.349 1.3504-1.3335.741.0044 1.3376.6097 1.3327 1.351l-.033 5.0559c-.0044.7383-.6045 1.3334-1.3411 1.3334M269.4568 189.6704h-.0092c-.7406-.0048-1.3376-.6097-1.3324-1.351l.033-5.0559c.0049-.7414.6116-1.3352 1.3504-1.3334.7406.0048 1.3376.6097 1.3328 1.351l-.0335 5.0559c-.0048.7383-.6045 1.3334-1.3411 1.3334M275.1174 189.7074h-.0092c-.7406-.0048-1.3372-.6097-1.3324-1.351l.0326-5.0559c.0049-.7383.6045-1.3334 1.3416-1.3334h.0088c.741.0044 1.3376.6097 1.3327 1.351l-.033 5.0559c-.0044.7383-.6045 1.3334-1.3411 1.3334M255.5249 189.6807h-.0269c-2.1882-.014-3.9573-1.8074-3.9432-3.9972.0048-.7414.6133-1.3234 1.3504-1.3335.741.0049 1.3376.6097 1.3327 1.351-.0048.7098.5689 1.2908 1.2778 1.2952h.0088c.7053 0 1.2816-.5718 1.286-1.2788.0049-.7092-.5688-1.2907-1.2777-1.2951-.741-.0049-1.3376-.6097-1.3327-1.3511.0044-.7414.6102-1.3546 1.3503-1.3335 2.1883.0141 3.9574 1.8075 3.9433 3.9973-.007 1.0608-.4267 2.0555-1.1809 2.8008-.7485.7392-1.7374 1.145-2.7879 1.145M294.3214 189.934h-.0092c-1.0598-.0071-2.0544-.4265-2.799-1.1815-.745-.755-1.1513-1.755-1.1443-2.8158.007-1.0608.4262-2.0555 1.1809-2.8008.748-.7388 1.7374-1.145 2.788-1.145h.0263c1.0603.0071 2.0544.427 2.7994 1.1815.7445.755 1.151 1.755 1.1443 2.8158-.0048.7383-.6045 1.3335-1.3415 1.3335h-.0089c-.741-.0044-1.3376-.6093-1.3327-1.3511a1.279 1.279 0 0 0-.3707-.9123 1.279 1.279 0 0 0-.9075-.3828c-.7238-.0075-1.2905.5687-1.2944 1.2788a1.2797 1.2797 0 0 0 .3707.9123c.2413.2445.5636.3806.9074.3828.7406.0049 1.3372.6097 1.3324 1.351-.0045.7384-.6046 1.3335-1.3412 1.3335M283.405 189.8627h-.0092c-1.0602-.007-2.0544-.4264-2.7989-1.1815-.7445-.755-1.151-1.755-1.1443-2.8158.007-1.0607.4266-2.0554 1.1813-2.8008.748-.7387 1.737-1.1449 2.7875-1.1449h.0268c2.1883.0141 3.9574 1.8075 3.9433 3.9973-.0049.7383-.6045 1.3334-1.3416 1.3334h-.0088c-.741-.0044-1.3376-.6092-1.3328-1.351.0049-.7093-.5688-1.2908-1.2777-1.2952a1.2922 1.2922 0 0 0-.9123.371 1.2803 1.2803 0 0 0-.3826.9079 1.2797 1.2797 0 0 0 .3707.9123c.2413.2445.5636.3806.9075.3828.7406.0048 1.3371.6097 1.3323 1.351-.0044.7384-.6045 1.3335-1.3411 1.3335M191.9456 153.913h-.0092c-.7406-.005-1.3372-.6097-1.3323-1.3511l.0237-3.6572c.004-.5982-.4794-1.088-1.0773-1.092l-12.411-.0807-.0229 3.5114c-.0048.7414-.6164 1.3431-1.3503 1.3334-.7406-.0044-1.3372-.6096-1.3323-1.351l.0312-4.8537a1.345 1.345 0 0 1 .3994-.9466c.2531-.2498.6032-.3956.951-.3868l13.7525.0899c2.0773.0136 3.756 1.7153 3.7429 3.7933l-.0242 3.6576c-.0044.7383-.6046 1.3334-1.3412 1.3334M191.905 160.0802h-.0088c-.716-.0049-1.2918-.589-1.287-1.3048l.004-.6485c.0048-.7127.5842-1.2876 1.2958-1.2876h.0088c.7154.0048 1.2918.589 1.287 1.3048l-.0045.6485c-.0044.7127-.5838 1.2876-1.2953 1.2876m-.0255 3.8893h-.0088c-.7155-.0048-1.2919-.589-1.287-1.3048l.0044-.6484c.0048-.7163.5917-1.304 1.3041-1.2877.716.0044 1.2918.589 1.2874 1.3049l-.0044.6484c-.0048.7128-.5838 1.2876-1.2957 1.2876m-1.4812 3.288c-.5023 0-.9805-.2942-1.1914-.785-.2827-.658.0216-1.4202.6794-1.703a1.1456 1.1456 0 0 0 .2602-.156c.561-.4453 1.3759-.351 1.8206.2098.4447.5612.3509 1.3766-.2096 1.8215a3.7454 3.7454 0 0 1-.8484.507 1.2896 1.2896 0 0 1-.5108.1058m-14.8752.104h-.0088l-.6477-.004c-.7159-.0049-1.2918-.589-1.2874-1.3053.0049-.7163.6032-1.3057 1.3046-1.2876l.6477.0044c.7159.0044 1.2922.5885 1.2874 1.3048-.0049.7132-.5839 1.2876-1.2958 1.2876m3.8873.0251h-.0083l-.6481-.004c-.7155-.0043-1.2919-.5885-1.2875-1.3043.0049-.7163.5878-1.2727 1.3037-1.2885l.6482.0044c.7159.0044 1.2922.5885 1.2874 1.3044-.0044.7132-.5834 1.288-1.2954 1.288m3.8874.0256h-.0084l-.6481-.004c-.7155-.0044-1.2918-.5885-1.2874-1.3048.0044-.7158.6032-1.2978 1.3041-1.288l.6477.0039c.7155.0048 1.2918.5885 1.2874 1.3048-.0044.7132-.5838 1.288-1.2953 1.288m3.8873.0256h-.0088l-.6481-.0044c-.7155-.0048-1.2918-.589-1.287-1.3052.0044-.7159.579-1.2793 1.3041-1.2877l.6481.0044c.7155.0049 1.2919.589 1.287 1.3049-.0048.7132-.5838 1.288-1.2953 1.288" fill="#5C7DB1"/>
      <path d="M170.5578 167.375h-.0088l-9.8335-.0643c-1.0034-.0062-1.946-.4053-2.6545-1.1233-.7084-.718-1.095-1.6665-1.088-2.6705l.0965-14.8313c.0136-2.07 1.7013-3.7444 3.7667-3.7444h.025l9.834.0643a1.3412 1.3412 0 0 1 1.3328 1.351l-.0613 9.4443 7.2824.0472c.3558.0022.6961.1462.9462.399.2501.2534.3888.596.3866.952l-.0176 2.6964c-.0048.7383-.6045 1.3335-1.3411 1.3335h-.0093c-.7405-.0049-1.3376-.6097-1.3327-1.351l.0088-1.3542-7.2824-.0476a1.3414 1.3414 0 0 1-1.3328-1.351l.0616-9.4444-8.4927-.055h-.0075c-.5944 0-1.08.482-1.084 1.0775l-.0964 14.8314c-.0018.2872.11.5594.3148.7669.2047.208.4755.3229.7621.3251l8.4923.055.0141-2.1633c.0049-.7383.6046-1.3335 1.3412-1.3335h.0092c.7406.0049 1.3372.6097 1.3328 1.3511l-.023 3.5057a1.3446 1.3446 0 0 1-.3988.9466 1.342 1.342 0 0 1-.9427.3868M252.1952 123.5454c-.741 0-1.3416-.6009-1.3416-1.3423v-23.529c0-.7413.6006-1.3422 1.3416-1.3422.741 0 1.3416.6009 1.3416 1.3423v23.529c0 .7413-.6006 1.3422-1.3416 1.3422M252.1952 78.5241c-.741 0-1.3416-.6009-1.3416-1.3423V42.0752c0-6.9955 5.6886-12.687 12.6804-12.687h19.5458c.741 0 1.3416.601 1.3416 1.3423 0 .741-.6006 1.3423-1.3416 1.3423H263.534c-5.5124 0-9.9972 4.487-9.9972 10.0024v35.1066c0 .7414-.6006 1.3423-1.3416 1.3423" fill="#5C7DB1"/>
      <path d="M252.7107 95.2539c-3.3744 0-6.1094-2.7365-6.1094-6.1127 0-3.376 2.735-6.1126 6.1094-6.1126s6.1095 2.7365 6.1095 6.1126c0 3.3762-2.735 6.1127-6.1095 6.1127" fill="#AE9ED8"/>
      <path d="M250.3966 82.5623c-.5539 0-1.0668-.3581-1.238-.9158-.2105-.6846.1738-1.4097.8576-1.6202.2474-.0762.5033-.1401.7604-.1903.7027-.1375 1.383.3211 1.5199 1.0237.1373.7027-.3206 1.3837-1.0228 1.5207a4.9421 4.9421 0 0 0-.4958.1242 1.288 1.288 0 0 1-.3813.0577m-3.1177 2.2123a1.289 1.289 0 0 1-.7696-.2546c-.575-.426-.6966-1.2379-.2708-1.8132.1559-.2101.324-.414.4997-.6057.484-.5269 1.3033-.5621 1.8308-.0775.527.4845.5618 1.3048.0775 1.832a4.8314 4.8314 0 0 0-.3245.394 1.2955 1.2955 0 0 1-1.043.525m-1.1933 3.6312c-.7154 0-1.2953-.5806-1.2953-1.2964 0-.2617.0136-.5251.0405-.7828a1.2953 1.2953 0 0 1 1.4243-1.1533c.7115.0749 1.228.7127 1.1532 1.425a4.9142 4.9142 0 0 0-.0269.511c0 .7159-.5799 1.2965-1.2958 1.2965M252.1952 94.5529c-2.6122 0-4.9859-1.3321-6.3503-3.5643-.3835-.6272-.1863-1.4466.4407-1.8299.6261-.3837 1.4455-.1863 1.829.441.877 1.4348 2.4022 2.2911 4.0806 2.2911 2.6351 0 4.779-2.1449 4.779-4.7814 0-1.5493-.7556-3.0096-2.0215-3.906-.6-.4251-.7418-1.2555-.3174-1.8555.4244-.6004 1.2553-.7418 1.8545-.3176 1.9694 1.3951 3.145 3.6673 3.145 6.0791 0 4.1044-3.3374 7.4435-7.4396 7.4435" fill="#5C7DB1"/>
      <path d="M257.2022 68.5765c-.4773 0-.8647-.3872-.8647-.8651v-.8652c0-.4775.3874-.8652.8647-.8652s.8647.3877.8647.8652v.8652c0 .478-.3874.8651-.8647.8651m0 5.1911c-.4773 0-.8647-.3872-.8647-.8652V70.307c0-.4775.3874-.8652.8647-.8652s.8647.3877.8647.8652v2.5955c0 .478-.3874.8652-.8647.8652M247.9866 58.73c-.4772 0-.8647-.3872-.8647-.8652v-2.5955a.862.862 0 0 1 .1158-.4326.862.862 0 0 1-.1158-.4326v-2.5955c0-.4775.3875-.8652.8647-.8652.4773 0 .8648.3877.8648.8652v2.5955a.862.862 0 0 1-.1158.4326.862.862 0 0 1 .1158.4326v2.5955c0 .478-.3875.8652-.8648.8652m0 3.4607c-.4772 0-.8647-.3872-.8647-.8651v-.8652c0-.4775.3875-.8652.8647-.8652.4773 0 .8648.3877.8648.8652v.8652c0 .478-.3875.8651-.8648.8651m0 5.1911c-.4772 0-.8647-.3872-.8647-.8652v-2.5955c0-.4775.3875-.8652.8647-.8652.4773 0 .8648.3877.8648.8652v2.5955c0 .478-.3875.8652-.8648.8652" fill="#A08BD1"/>
      <path d="M169.591 253.0295c-.7348 0-1.3301-.596-1.3301-1.3308v-21.8792c0-.7352.5953-1.3312 1.3301-1.3312.7349 0 1.3301.596 1.3301 1.3312v21.8792c0 .7348-.5952 1.3308-1.33 1.3308M169.591 259.839c-.7155 0-1.2958-.58-1.2958-1.2964v-.648c0-.7163.5803-1.2964 1.2958-1.2964s1.2958.5801 1.2958 1.2964v.648c0 .7163-.5803 1.2965-1.2958 1.2965m0 3.8893c-.7155 0-1.2958-.5802-1.2958-1.2964v-.648c0-.7159.5803-1.2965 1.2958-1.2965s1.2958.5806 1.2958 1.2965v.648c0 .7163-.5803 1.2964-1.2958 1.2964m0 3.8893c-.7155 0-1.2958-.5801-1.2958-1.2964v-.648c0-.7163.5803-1.2964 1.2958-1.2964s1.2958.5801 1.2958 1.2964v.648c0 .7163-.5803 1.2964-1.2958 1.2964M156.5936 322.6343h-30.9833c-.741 0-1.3415-.601-1.3415-1.3423 0-.741.6005-1.3423 1.3415-1.3423h30.9833c6.427 0 11.6558-5.2316 11.6558-11.6618v-20.4744c0-.7414.6006-1.3423 1.3416-1.3423.741 0 1.3415.6009 1.3415 1.3423v20.4744c0 7.9104-6.4322 14.3464-14.339 14.3464" fill="#5C7DB1"/>
      <path d="M169.0757 269.7415c3.374 0 6.1095 2.7365 6.1095 6.1126 0 3.3757-2.7356 6.1126-6.1095 6.1126-3.3744 0-6.1095-2.7369-6.1095-6.1126 0-3.3761 2.7351-6.1126 6.1095-6.1126" fill="#FFE8C0"/>
      <path d="M175.6682 279.8295a1.207 1.207 0 0 1-.1374-.0075c-.7115-.0748-1.228-.7127-1.1526-1.4246.0176-.1683.0264-.34.0264-.5114 0-.7159.5803-1.296 1.2958-1.296.7159 0 1.2957.5801 1.2957 1.296 0 .2616-.0136.525-.041.7828-.07.6656-.6322 1.1607-1.2869 1.1607m-1.5749 3.484c-.313 0-.627-.1131-.8762-.3418-.527-.4845-.5613-1.3048-.0775-1.8316a4.8205 4.8205 0 0 0 .325-.3939c.4253-.5757 1.2367-.6968 1.8122-.2709.575.426.6965 1.2379.2708 1.8136a7.4093 7.4093 0 0 1-.4997.6053 1.293 1.293 0 0 1-.9546.4194m-3.3334 1.8696c-.608 0-1.1505-.43-1.2707-1.0494-.1365-.7026.3223-1.3832 1.0245-1.5198a4.8927 4.8927 0 0 0 .495-.1233c.6837-.2114 1.4089.1736 1.6189.8581.2104.6842-.1735 1.4097-.8577 1.6203a7.539 7.539 0 0 1-.7613.1903 1.2993 1.2993 0 0 1-.2487.0238M166.0642 284.2098a1.324 1.324 0 0 1-.7675-.245c-1.9694-1.3946-3.1454-3.6673-3.1454-6.0787 0-4.1043 3.3374-7.4434 7.4396-7.4434 2.6122 0 4.9863 1.3321 6.3507 3.5638.3835.6273.1858 1.4467-.4407 1.8304-.6274.3832-1.446.1858-1.829-.441-.877-1.4348-2.4026-2.2911-4.081-2.2911-2.6352 0-4.779 2.1448-4.779 4.7813 0 1.5493.756 3.0097 2.0219 3.9061.5997.4247.7419 1.2555.3174 1.8555a1.3288 1.3288 0 0 1-1.087.562" fill="#5C7DB1"/>
      <path d="M164.5842 293.2724c-.4773 0-.8647-.3872-.8647-.8651v-2.5956c0-.4775.3874-.8652.8647-.8652s.8647.3877.8647.8652v2.5956c0 .478-.3874.8651-.8647.8651m0 3.4607c-.4773 0-.8647-.3872-.8647-.8651v-.8652c0-.4775.3874-.8652.8647-.8652s.8647.3877.8647.8652v.8652c0 .478-.3874.8651-.8647.8651M173.7998 295.2186c-.4773 0-.8648-.3872-.8648-.8651v-2.5956c0-.4775.3875-.8651.8648-.8651.4772 0 .8647.3876.8647.8651v2.5956c0 .478-.3875.8651-.8647.8651m0 3.4608c-.4773 0-.8648-.3873-.8648-.8652v-.8652c0-.4775.3875-.8652.8648-.8652.4772 0 .8647.3877.8647.8652v.8652c0 .478-.3875.8652-.8647.8652m0 3.8395c-.4773 0-.8648-.3872-.8648-.8652v-1.244c0-.4775.3875-.8652.8648-.8652.4772 0 .8647.3877.8647.8652v1.244c0 .478-.3875.8652-.8647.8652" fill="#FFE8C0"/>
      <path d="M335.4349 273.3188h-36.4834c-.7406 0-1.3416-.601-1.3416-1.3423 0-.741.601-1.3423 1.3416-1.3423h36.4834c.741 0 1.3415.6013 1.3415 1.3423 0 .7414-.6005 1.3423-1.3415 1.3423M277.4708 273.3188H257.007c-7.9067 0-14.339-6.436-14.339-14.3464 0-.7414.6006-1.3423 1.3412-1.3423.741 0 1.3415.601 1.3415 1.3423 0 6.4302 5.229 11.6618 11.6563 11.6618h20.4638c.741 0 1.3416.6013 1.3416 1.3423 0 .7414-.6006 1.3423-1.3416 1.3423M244.0094 231.764c-.7155 0-1.2958-.5802-1.2958-1.2964v-.6485c0-.7158.5803-1.296 1.2958-1.296s1.2958.5802 1.2958 1.296v.6485c0 .7162-.5803 1.2964-1.2958 1.2964m0 3.8893c-.7155 0-1.2958-.5806-1.2958-1.2964v-.648c0-.7163.5803-1.2964 1.2958-1.2964s1.2958.5801 1.2958 1.2964v.648c0 .7158-.5803 1.2964-1.2958 1.2964m0 3.8894c-.7155 0-1.2958-.5806-1.2958-1.2965v-.648c0-.7162.5803-1.2964 1.2958-1.2964s1.2958.5802 1.2958 1.2964v.648c0 .7159-.5803 1.2965-1.2958 1.2965m0 3.8893c-.7155 0-1.2958-.5806-1.2958-1.2964v-.6485c0-.7158.5803-1.2964 1.2958-1.2964s1.2958.5806 1.2958 1.2964v.6485c0 .7158-.5803 1.2964-1.2958 1.2964m0 3.8894c-.7155 0-1.2958-.5802-1.2958-1.2965v-.6484c0-.7159.5803-1.2965 1.2958-1.2965s1.2958.5806 1.2958 1.2965v.6484c0 .7163-.5803 1.2965-1.2958 1.2965m0 3.8893c-.7155 0-1.2958-.5806-1.2958-1.2965v-.6484c0-.7158.5803-1.296 1.2958-1.296s1.2958.5802 1.2958 1.296v.6484c0 .7159-.5803 1.2965-1.2958 1.2965m0 3.78c-.7155 0-1.2958-.58-1.2958-1.2964v-.5387c0-.7163.5803-1.2965 1.2958-1.2965s1.2958.5802 1.2958 1.2965v.5387c0 .7163-.5803 1.2965-1.2958 1.2965" fill="#5C7DB1"/>
      <path d="M295.5333 271.4608c0 3.3761-2.7351 6.1126-6.1095 6.1126-3.3744 0-6.1095-2.7365-6.1095-6.1126 0-3.3761 2.7351-6.1126 6.1095-6.1126 3.3744 0 6.1095 2.7365 6.1095 6.1126" fill="#FFD2B6"/>
      <path d="M281.5519 275.0725c-.5539 0-1.0668-.3582-1.2381-.9159a7.445 7.445 0 0 1-.1902-.7608c-.1374-.7026.3205-1.3836 1.0232-1.5206.704-.1375 1.383.3211 1.52 1.0233a4.949 4.949 0 0 0 .124.496c.2105.6846-.1738 1.4101-.8576 1.6203a1.288 1.288 0 0 1-.3813.0577m2.2107 3.1184c-.2677 0-.538-.0828-.77-.2546a7.6377 7.6377 0 0 1-.6046-.4991c-.5275-.4842-.5627-1.3044-.0788-1.8322.4843-.5268 1.3041-.5625 1.8307-.0784.125.1146.258.2243.3945.3256.5755.426.6966 1.2378.2708 1.8132a1.294 1.294 0 0 1-1.0426.5255m3.6302 1.1947a7.442 7.442 0 0 1-.782-.041c-.7115-.0749-1.228-.7128-1.153-1.425.0752-.712.7127-1.2296 1.4243-1.1533.1677.0176.3394.0264.5107.0264.7159 0 1.2958.5806 1.2958 1.2964 0 .7163-.5799 1.2965-1.2958 1.2965M290.5775 278.526a1.33 1.33 0 0 1-1.1364-.6365c-.383-.6273-.1858-1.4467.4407-1.8304 1.434-.877 2.2904-2.4034 2.2904-4.0827 0-2.6365-2.1442-4.7814-4.7794-4.7814-1.5485 0-3.0076.7564-3.904 2.0229-.4245.6-1.2553.7418-1.8545.3172-.5997-.4247-.7415-1.2555-.317-1.8555 1.394-1.9704 3.6654-3.1466 6.0755-3.1466 4.1022 0 7.44 3.3391 7.44 7.4434 0 2.6136-1.3318 4.9889-3.5623 6.354a1.3283 1.3283 0 0 1-.693.1956" fill="#5C7DB1"/>
      <path d="M305.615 267.8321h-2.5941a.8608.8608 0 0 1-.4324-.1159.8608.8608 0 0 1-.4324.1159h-1.8646c-.4773 0-.8647-.3872-.8647-.8652 0-.4775.3874-.8652.8647-.8652h1.8646a.8608.8608 0 0 1 .4324.1159.8608.8608 0 0 1 .4324-.1159h2.5942c.4772 0 .8647.3877.8647.8652 0 .478-.3875.8652-.8647.8652m3.4589 0h-.8647c-.4773 0-.8648-.3872-.8648-.8652 0-.4775.3875-.8652.8648-.8652h.8647c.4773 0 .8647.3877.8647.8652 0 .478-.3874.8652-.8647.8652m5.1884 0h-2.5942c-.4773 0-.8648-.3872-.8648-.8652 0-.4775.3875-.8652.8648-.8652h2.5942c.4777 0 .8647.3877.8647.8652 0 .478-.387.8652-.8647.8652M306.467 277.0524h-.8647a.8648.8648 0 0 1-.8647-.8652c0-.4775.387-.8651.8647-.8651h.8647c.4773 0 .8648.3876.8648.8651 0 .478-.3875.8652-.8648.8652m8.6473 0h-2.5942a.8608.8608 0 0 1-.4323-.1158.8608.8608 0 0 1-.4324.1158h-2.5942a.8648.8648 0 0 1-.8647-.8652c0-.4775.387-.8651.8647-.8651h2.5942a.8608.8608 0 0 1 .4324.1158.8608.8608 0 0 1 .4323-.1158h2.5942c.4773 0 .8648.3876.8648.8651 0 .478-.3875.8652-.8648.8652m3.459 0h-.8648a.8648.8648 0 0 1-.8647-.8652c0-.4775.387-.8651.8647-.8651h.8648c.4772 0 .8642.3876.8642.8651 0 .478-.387.8652-.8642.8652m5.1883 0h-2.5941a.8648.8648 0 0 1-.8648-.8652c0-.4775.387-.8651.8648-.8651h2.5941c.4773 0 .8648.3876.8648.8651 0 .478-.3875.8652-.8648.8652" fill="#FFCFB3"/>
      <path d="M138.5662 153.5696h-20.4638c-.741 0-1.3416-.6008-1.3416-1.3422 0-.741.6006-1.3423 1.3416-1.3423h20.4638c.741 0 1.3416.6013 1.3416 1.3423 0 .7414-.6006 1.3422-1.3416 1.3422" fill="#5C7DB1"/>
      <path d="M100.0399 152.7433c0-3.3762 2.735-6.1127 6.109-6.1127 3.3744 0 6.1095 2.7365 6.1095 6.1127 0 3.3761-2.7351 6.1126-6.1095 6.1126-3.374 0-6.109-2.7365-6.109-6.1126" fill="#ADE6DC"/>
      <path d="M108.828 147.4452a1.2072 1.2072 0 0 1-.1373-.0075 4.9069 4.9069 0 0 0-.5107-.0264c-.7155 0-1.2958-.5806-1.2958-1.2965 0-.7162.5803-1.2964 1.2958-1.2964.2615 0 .5248.0137.7824.041.7115.0749 1.228.7127 1.1526 1.425-.07.6657-.6322 1.1608-1.287 1.1608m3.4806 1.5731a1.2885 1.2885 0 0 1-.8762-.3418 4.9061 4.9061 0 0 0-.3936-.3247c-.5755-.426-.6966-1.2379-.2708-1.8136.4258-.5753 1.2368-.697 1.8122-.2705.2105.1555.414.3238.6054.4995.527.4846.5614 1.3049.0775 1.8322a1.2925 1.2925 0 0 1-.9545.4189m1.8677 3.3352c-.6072 0-1.1492-.4295-1.2703-1.048a4.7207 4.7207 0 0 0-.1241-.496c-.21-.6846.1739-1.4097.8581-1.6203.6833-.2106 1.409.1736 1.619.8581.0761.2476.1404.5036.1906.7608.1374.7026-.321 1.3837-1.0232 1.5207a1.2798 1.2798 0 0 1-.2501.0247M108.1801 159.671c-4.1022 0-7.4396-3.339-7.4396-7.4434 0-2.6135 1.3314-4.9888 3.562-6.354.627-.3832 1.4459-.1863 1.8294.441.383.6273.1858 1.4466-.4408 1.8299-1.434.878-2.29 2.4039-2.29 4.0831 0 2.6365 2.1439 4.7814 4.779 4.7814 1.5485 0 3.008-.7563 3.904-2.0228.4245-.6 1.2553-.7419 1.8546-.3172.5996.4247.7419 1.2555.3174 1.855-1.3944 1.9709-3.6654 3.147-6.076 3.147" fill="#5C7DB1"/>
      <path d="M91.1569 158.1022h-2.5942a.8648.8648 0 0 1-.8648-.8652c0-.4775.387-.8652.8648-.8652h2.5942c.4772 0 .8647.3877.8647.8652 0 .478-.3875.8652-.8647.8652m3.4589 0h-.8647c-.4773 0-.8648-.3872-.8648-.8652 0-.4775.3875-.8652.8648-.8652h.8647c.4773 0 .8647.3877.8647.8652 0 .478-.3874.8652-.8647.8652M82.8432 148.8818H80.249a.8648.8648 0 0 1-.8648-.8652c0-.4775.387-.8651.8648-.8651h2.5942c.4772 0 .8647.3876.8647.8651 0 .478-.3875.8652-.8647.8652m3.4589 0h-.8647c-.4773 0-.8648-.3872-.8648-.8652 0-.4775.3875-.8651.8648-.8651h.8647c.4773 0 .8647.3876.8647.8651 0 .478-.3874.8652-.8647.8652m3.8376 0h-1.2434c-.4773 0-.8647-.3872-.8647-.8652 0-.4775.3874-.8651.8647-.8651h1.2434c.4777 0 .8647.3876.8647.8651 0 .478-.387.8652-.8647.8652" fill="#ADE6DC"/>
      <path d="M96.6216 153.5696H76.7562c-6.9923 0-12.6804-5.691-12.6804-12.6869v-16.182c0-.741.6005-1.3422 1.3415-1.3422.741 0 1.3416.6013 1.3416 1.3422v16.182c0 5.5153 4.4848 10.0024 9.9973 10.0024h19.8654c.741 0 1.3416.6013 1.3416 1.3423 0 .7414-.6006 1.3422-1.3416 1.3422M215.9804 99.539h-2.5942a.8648.8648 0 0 1-.8647-.8651c0-.4775.387-.8652.8647-.8652h2.5942c.4773 0 .8647.3877.8647.8652 0 .478-.3874.8652-.8647.8652m3.459 0h-.8648c-.4773 0-.8647-.3873-.8647-.8652 0-.4775.3874-.8652.8647-.8652h.8647c.4773 0 .8648.3877.8648.8652 0 .478-.3875.8652-.8648.8652m5.1884 0h-2.5942c-.4773 0-.8647-.3873-.8647-.8652 0-.4775.3874-.8652.8647-.8652h2.5942c.4777 0 .8647.3877.8647.8652 0 .478-.387.8652-.8647.8652M126.8983 258.2441h-2.5942a.8648.8648 0 0 1-.8648-.8651c0-.4776.387-.8652.8648-.8652h2.5942c.4772 0 .8647.3876.8647.8652 0 .478-.3875.8651-.8647.8651m3.4589 0h-.8647c-.4773 0-.8648-.3872-.8648-.8651 0-.4776.3875-.8652.8648-.8652h.8647c.4773 0 .8647.3876.8647.8652 0 .478-.3874.8651-.8647.8651m5.1884 0h-2.5942c-.4773 0-.8647-.3872-.8647-.8651 0-.4776.3874-.8652.8647-.8652h2.5942c.4777 0 .8647.3876.8647.8652 0 .478-.387.8651-.8647.8651" fill="#5C7DB1"/>
      <mask id="d" fill="#fff">
        <use xlink:href="#c"/>
      </mask>
      <path d="M65.3255 228.6906h28.6572v-28.672H65.3255v28.672zm29.9988 2.6846H63.9839c-.7405 0-1.3415-.6009-1.3415-1.3423v-31.3565c0-.741.601-1.3423 1.3415-1.3423h31.3404c.7405 0 1.3415.6013 1.3415 1.3423v31.3565c0 .7414-.601 1.3423-1.3415 1.3423z" fill="#E3EAF6" mask="url(#d)"/>
      <path d="M66.9048 235.4047c-.741 0-1.3416-.6008-1.3416-1.3422v-3.5066c0-.741.6006-1.3422 1.3416-1.3422.741 0 1.3415.6013 1.3415 1.3422v3.5066c0 .7414-.6005 1.3422-1.3415 1.3422M75.4045 235.4047c-.741 0-1.3416-.6008-1.3416-1.3422v-3.5066c0-.741.6006-1.3422 1.3416-1.3422.741 0 1.3415.6013 1.3415 1.3422v3.5066c0 .7414-.6005 1.3422-1.3415 1.3422M83.904 235.4047c-.741 0-1.3416-.6008-1.3416-1.3422v-3.5066c0-.741.6005-1.3422 1.3415-1.3422.741 0 1.3416.6013 1.3416 1.3422v3.5066c0 .7414-.6006 1.3422-1.3416 1.3422M92.4034 235.4047c-.741 0-1.3416-.6008-1.3416-1.3422v-3.5066c0-.741.6006-1.3422 1.3416-1.3422.741 0 1.3415.6013 1.3415 1.3422v3.5066c0 .7414-.6005 1.3422-1.3415 1.3422M66.9048 199.0796c-.741 0-1.3416-.6008-1.3416-1.3422v-3.0907c0-.7414.6006-1.3423 1.3416-1.3423.741 0 1.3415.6009 1.3415 1.3423v3.0907c0 .7414-.6005 1.3422-1.3415 1.3422M75.4045 199.0796c-.741 0-1.3416-.6008-1.3416-1.3422v-3.0907c0-.7414.6006-1.3423 1.3416-1.3423.741 0 1.3415.6009 1.3415 1.3423v3.0907c0 .7414-.6005 1.3422-1.3415 1.3422M83.904 199.0796c-.741 0-1.3416-.6008-1.3416-1.3422v-3.0907c0-.7414.6005-1.3423 1.3415-1.3423.741 0 1.3416.6009 1.3416 1.3423v3.0907c0 .7414-.6006 1.3422-1.3416 1.3422M92.4034 199.0796c-.741 0-1.3416-.6008-1.3416-1.3422v-3.0907c0-.7414.6006-1.3423 1.3416-1.3423.741 0 1.3415.6009 1.3415 1.3423v3.0907c0 .7414-.6005 1.3422-1.3415 1.3422M99.352 228.4528h-3.5774c-.741 0-1.3416-.6009-1.3416-1.3422 0-.741.6005-1.3423 1.3416-1.3423h3.5773c.741 0 1.3416.6013 1.3416 1.3423 0 .7413-.6006 1.3422-1.3416 1.3422M99.352 219.949h-3.5774c-.741 0-1.3416-.601-1.3416-1.3423 0-.741.6005-1.3423 1.3416-1.3423h3.5773c.741 0 1.3416.6013 1.3416 1.3423 0 .7414-.6006 1.3423-1.3416 1.3423M99.352 211.4449h-3.5774c-.741 0-1.3416-.6009-1.3416-1.3423 0-.741.6005-1.3422 1.3416-1.3422h3.5773c.741 0 1.3416.6013 1.3416 1.3422 0 .7414-.6006 1.3423-1.3416 1.3423M99.352 202.941h-3.5774c-.741 0-1.3416-.6008-1.3416-1.3422 0-.741.6005-1.3423 1.3416-1.3423h3.5773c.741 0 1.3416.6013 1.3416 1.3423 0 .7414-.6006 1.3422-1.3416 1.3422M63.2294 228.4528h-3.2731c-.7406 0-1.3411-.6009-1.3411-1.3422 0-.741.6005-1.3423 1.341-1.3423h3.2732c.741 0 1.3416.6013 1.3416 1.3423 0 .7413-.6006 1.3422-1.3416 1.3422M63.2294 219.949h-3.2731c-.7406 0-1.3411-.601-1.3411-1.3423 0-.741.6005-1.3423 1.341-1.3423h3.2732c.741 0 1.3416.6013 1.3416 1.3423 0 .7414-.6006 1.3423-1.3416 1.3423M63.2294 211.4449h-3.2731c-.7406 0-1.3411-.6009-1.3411-1.3423 0-.741.6005-1.3422 1.341-1.3422h3.2732c.741 0 1.3416.6013 1.3416 1.3422 0 .7414-.6006 1.3423-1.3416 1.3423M63.2294 202.941h-3.2731c-.7406 0-1.3411-.6008-1.3411-1.3422 0-.741.6005-1.3423 1.341-1.3423h3.2732c.741 0 1.3416.6013 1.3416 1.3423 0 .7414-.6006 1.3422-1.3416 1.3422M73.3357 206.3026h-2.5942a.8648.8648 0 0 1-.8648-.8652c0-.4775.387-.8652.8648-.8652h2.5942c.4772 0 .8647.3877.8647.8652 0 .478-.3875.8652-.8647.8652m3.4589 0h-.8647c-.4773 0-.8648-.3872-.8648-.8652 0-.4775.3875-.8652.8648-.8652h.8647c.4773 0 .8647.3877.8647.8652 0 .478-.3874.8652-.8647.8652M73.3357 210.9678h-2.5942a.8648.8648 0 0 1-.8648-.8652c0-.4775.387-.8651.8648-.8651h2.5942c.4772 0 .8647.3876.8647.8651 0 .478-.3875.8652-.8647.8652m3.4589 0h-.8647c-.4773 0-.8648-.3872-.8648-.8652 0-.4775.3875-.8651.8648-.8651h.8647c.4773 0 .8647.3876.8647.8651 0 .478-.3874.8652-.8647.8652m8.3999 0h-2.3468a.8608.8608 0 0 1-.4324-.1159.8608.8608 0 0 1-.4323.1159h-2.5942c-.4773 0-.8647-.3872-.8647-.8652 0-.4775.3874-.8651.8647-.8651h2.5942a.8608.8608 0 0 1 .4323.1158.8608.8608 0 0 1 .4324-.1158h2.3468c.4772 0 .8642.3876.8642.8651 0 .478-.387.8652-.8642.8652M73.3357 215.6332h-2.5942a.8648.8648 0 0 1-.8648-.8651c0-.4776.387-.8652.8648-.8652h2.5942c.4772 0 .8647.3876.8647.8652 0 .478-.3875.8651-.8647.8651m3.4589 0h-.8647c-.4773 0-.8648-.3872-.8648-.8651 0-.4776.3875-.8652.8648-.8652h.8647c.4773 0 .8647.3876.8647.8652 0 .478-.3874.8651-.8647.8651m5.1884 0h-2.5942c-.4773 0-.8647-.3872-.8647-.8651 0-.4776.3874-.8652.8647-.8652h2.5942c.4777 0 .8647.3876.8647.8652 0 .478-.387.8651-.8647.8651M73.3357 220.2985h-2.5942a.8648.8648 0 0 1-.8648-.8652c0-.4775.387-.8651.8648-.8651h2.5942c.4772 0 .8647.3876.8647.8651 0 .478-.3875.8652-.8647.8652m3.4589 0h-.8647c-.4773 0-.8648-.3872-.8648-.8652 0-.4775.3875-.8651.8648-.8651h.8647c.4773 0 .8647.3876.8647.8651 0 .478-.3874.8652-.8647.8652m8.6473 0h-2.5942a.8608.8608 0 0 1-.4324-.1158.8608.8608 0 0 1-.4323.1158h-2.5942c-.4773 0-.8647-.3872-.8647-.8652 0-.4775.3874-.8651.8647-.8651h2.5942a.8608.8608 0 0 1 .4323.1158.8608.8608 0 0 1 .4324-.1158h2.5942c.4777 0 .8647.3876.8647.8651 0 .478-.387.8652-.8647.8652m3.459 0h-.8648a.8648.8648 0 0 1-.8647-.8652c0-.4775.387-.8651.8647-.8651h.8647c.4777 0 .8648.3876.8648.8651 0 .478-.387.8652-.8648.8652M348.2268 136.539h28.6572v-28.672h-28.6572v28.672zm29.9988 2.6846h-31.3403c-.7406 0-1.3416-.6009-1.3416-1.3423v-31.3565c0-.741.601-1.3418 1.3416-1.3418h31.3403c.741 0 1.3416.6009 1.3416 1.3418v31.3565c0 .7414-.6006 1.3423-1.3416 1.3423z" fill="#E3EAF6" mask="url(#d)"/>
      <path d="M349.8062 143.2532c-.741 0-1.3416-.6009-1.3416-1.3423v-3.5065c0-.741.6006-1.3423 1.3416-1.3423.741 0 1.3416.6014 1.3416 1.3423v3.5065c0 .7414-.6006 1.3423-1.3416 1.3423M358.3057 143.2532c-.741 0-1.3416-.6009-1.3416-1.3423v-3.5065c0-.741.6006-1.3423 1.3416-1.3423.741 0 1.3415.6014 1.3415 1.3423v3.5065c0 .7414-.6005 1.3423-1.3415 1.3423M366.8051 143.2532c-.741 0-1.3415-.6009-1.3415-1.3423v-3.5065c0-.741.6005-1.3423 1.3415-1.3423.741 0 1.3416.6014 1.3416 1.3423v3.5065c0 .7414-.6006 1.3423-1.3416 1.3423M375.3048 143.2532c-.741 0-1.3416-.6009-1.3416-1.3423v-3.5065c0-.741.6006-1.3423 1.3416-1.3423.741 0 1.3416.6014 1.3416 1.3423v3.5065c0 .7414-.6006 1.3423-1.3416 1.3423M349.8062 106.928c-.741 0-1.3416-.6008-1.3416-1.3422v-3.0907c0-.7414.6006-1.3422 1.3416-1.3422.741 0 1.3416.6008 1.3416 1.3422v3.0907c0 .7414-.6006 1.3423-1.3416 1.3423M358.3057 106.928c-.741 0-1.3416-.6008-1.3416-1.3422v-3.0907c0-.7414.6006-1.3422 1.3416-1.3422.741 0 1.3415.6008 1.3415 1.3422v3.0907c0 .7414-.6005 1.3423-1.3415 1.3423M366.8051 106.928c-.741 0-1.3415-.6008-1.3415-1.3422v-3.0907c0-.7414.6005-1.3422 1.3415-1.3422.741 0 1.3416.6008 1.3416 1.3422v3.0907c0 .7414-.6006 1.3423-1.3416 1.3423M375.3048 106.928c-.741 0-1.3416-.6008-1.3416-1.3422v-3.0907c0-.7414.6006-1.3422 1.3416-1.3422.741 0 1.3416.6008 1.3416 1.3422v3.0907c0 .7414-.6006 1.3423-1.3416 1.3423M382.2532 136.3012h-3.5774c-.741 0-1.3416-.6008-1.3416-1.3422 0-.741.6006-1.3423 1.3416-1.3423h3.5774c.741 0 1.3415.6013 1.3415 1.3423 0 .7414-.6005 1.3422-1.3415 1.3422M382.2532 127.7972h-3.5774c-.741 0-1.3416-.6009-1.3416-1.3423 0-.741.6006-1.3423 1.3416-1.3423h3.5774c.741 0 1.3415.6014 1.3415 1.3423 0 .7414-.6005 1.3423-1.3415 1.3423M382.2532 119.2933h-3.5774c-.741 0-1.3416-.6009-1.3416-1.3422 0-.741.6006-1.3423 1.3416-1.3423h3.5774c.741 0 1.3415.6013 1.3415 1.3423 0 .7413-.6005 1.3422-1.3415 1.3422M382.2532 110.7895h-3.5774c-.741 0-1.3416-.601-1.3416-1.3423 0-.741.6006-1.3423 1.3416-1.3423h3.5774c.741 0 1.3415.6013 1.3415 1.3423 0 .7414-.6005 1.3423-1.3415 1.3423M346.1308 136.3012h-3.273c-.741 0-1.3417-.6008-1.3417-1.3422 0-.741.6006-1.3423 1.3416-1.3423h3.2731c.741 0 1.3416.6013 1.3416 1.3423 0 .7414-.6006 1.3422-1.3416 1.3422M346.1308 127.7972h-3.273c-.741 0-1.3417-.6009-1.3417-1.3423 0-.741.6006-1.3423 1.3416-1.3423h3.2731c.741 0 1.3416.6014 1.3416 1.3423 0 .7414-.6006 1.3423-1.3416 1.3423M346.1308 119.2933h-3.273c-.741 0-1.3417-.6009-1.3417-1.3422 0-.741.6006-1.3423 1.3416-1.3423h3.2731c.741 0 1.3416.6013 1.3416 1.3423 0 .7413-.6006 1.3422-1.3416 1.3422M346.1308 110.7895h-3.273c-.741 0-1.3417-.601-1.3417-1.3423 0-.741.6006-1.3423 1.3416-1.3423h3.2731c.741 0 1.3416.6013 1.3416 1.3423 0 .7414-.6006 1.3423-1.3416 1.3423M356.2369 114.151h-2.5942a.8648.8648 0 0 1-.8647-.8652c0-.4775.387-.8651.8647-.8651h2.5942c.4773 0 .8647.3876.8647.8651 0 .478-.3875.8652-.8647.8652m3.4589 0h-.8647c-.4773 0-.8648-.3872-.8648-.8652 0-.4775.3875-.8651.8648-.8651h.8647c.4773 0 .8647.3876.8647.8651 0 .478-.3874.8652-.8647.8652M356.2369 118.8162h-2.5942a.8648.8648 0 0 1-.8647-.8651c0-.4776.387-.8652.8647-.8652h2.5942c.4773 0 .8647.3876.8647.8652 0 .478-.3875.8651-.8647.8651m3.4589 0h-.8647c-.4773 0-.8648-.3872-.8648-.8651 0-.4776.3875-.8652.8648-.8652h.8647c.4773 0 .8647.3876.8647.8652 0 .478-.3874.8651-.8647.8651m8.3999 0h-2.3468a.8608.8608 0 0 1-.4323-.1158.8608.8608 0 0 1-.4324.1158H362.29c-.4773 0-.8647-.3872-.8647-.8651 0-.4776.3874-.8652.8647-.8652h2.5942a.8608.8608 0 0 1 .4324.1158.8608.8608 0 0 1 .4323-.1158h2.3468c.4777 0 .8647.3876.8647.8652 0 .478-.387.8651-.8647.8651M356.2369 123.4817h-2.5942a.8648.8648 0 0 1-.8647-.8652c0-.4775.387-.8651.8647-.8651h2.5942c.4773 0 .8647.3876.8647.8651 0 .478-.3875.8652-.8647.8652m3.4589 0h-.8647c-.4773 0-.8648-.3872-.8648-.8652 0-.4775.3875-.8651.8648-.8651h.8647c.4773 0 .8647.3876.8647.8651 0 .478-.3874.8652-.8647.8652m5.1884 0H362.29c-.4773 0-.8647-.3872-.8647-.8652 0-.4775.3874-.8651.8647-.8651h2.5942c.4777 0 .8647.3876.8647.8651 0 .478-.387.8652-.8647.8652M356.2369 128.147h-2.5942a.8648.8648 0 0 1-.8647-.8652c0-.4776.387-.8652.8647-.8652h2.5942c.4773 0 .8647.3876.8647.8652 0 .478-.3875.8651-.8647.8651m3.4589 0h-.8647c-.4773 0-.8648-.3872-.8648-.8651 0-.4776.3875-.8652.8648-.8652h.8647c.4773 0 .8647.3876.8647.8652 0 .478-.3874.8651-.8647.8651m8.6473 0h-2.5942a.8608.8608 0 0 1-.4323-.1158.8608.8608 0 0 1-.4324.1158H362.29c-.4773 0-.8647-.3872-.8647-.8651 0-.4776.3874-.8652.8647-.8652h2.5942a.8608.8608 0 0 1 .4324.1158.8608.8608 0 0 1 .4323-.1158h2.5942c.4777 0 .8647.3876.8647.8652 0 .478-.387.8651-.8647.8651m3.459 0h-.8648a.8648.8648 0 0 1-.8647-.8651c0-.4776.387-.8652.8647-.8652h.8647c.4777 0 .8648.3876.8648.8652 0 .478-.387.8651-.8648.8651" fill="#E3EAF6" mask="url(#d)"/>
      <path d="M338.029 185.9394h-2.5941a.8648.8648 0 0 1-.8647-.8652c0-.4775.387-.8652.8647-.8652h2.5942c.4773 0 .8647.3877.8647.8652 0 .478-.3874.8652-.8647.8652m3.459 0h-.8648c-.4773 0-.8647-.3873-.8647-.8652 0-.4775.3874-.8652.8647-.8652h.8647c.4773 0 .8647.3877.8647.8652 0 .478-.3874.8652-.8647.8652m5.1884 0h-2.5942c-.4773 0-.8647-.3873-.8647-.8652 0-.4775.3874-.8652.8647-.8652h2.5942c.4777 0 .8647.3877.8647.8652 0 .478-.387.8652-.8647.8652M199.198 41.668h-2.5942a.8648.8648 0 0 1-.8648-.8653c0-.4775.387-.8651.8648-.8651h2.5942c.4772 0 .8647.3876.8647.8651 0 .478-.3875.8652-.8647.8652m3.245 0h-.6508c-.4773 0-.8648-.3872-.8648-.8652 0-.4775.3875-.8651.8648-.8651h.6507c.4777 0 .8647.3876.8647.8651 0 .478-.387.8652-.8647.8652M332.19 236.0778h-2.5941a.8648.8648 0 0 1-.8647-.8652c0-.4775.387-.8652.8647-.8652h2.5942c.4773 0 .8647.3877.8647.8652 0 .478-.3874.8652-.8647.8652m3.245 0h-.6508c-.4773 0-.8648-.3872-.8648-.8652 0-.4775.3875-.8652.8648-.8652h.6507c.4773 0 .8643.3877.8643.8652 0 .478-.387.8652-.8643.8652M288.052 75.8373h-2.5942a.8648.8648 0 0 1-.8647-.8651c0-.4776.387-.8652.8647-.8652h2.5942c.4773 0 .8647.3876.8647.8652 0 .478-.3874.8651-.8647.8651m3.245 0h-.6508c-.4773 0-.8647-.3872-.8647-.8651 0-.4776.3874-.8652.8647-.8652h.6507c.4773 0 .8643.3876.8643.8652 0 .478-.387.8651-.8643.8651M138.241 84.726h-2.5943a.8648.8648 0 0 1-.8647-.8652c0-.4775.387-.8652.8647-.8652h2.5942c.4773 0 .8647.3877.8647.8652 0 .478-.3874.8652-.8647.8652m3.459 0h-.8648c-.4773 0-.8647-.3872-.8647-.8652 0-.4775.3874-.8652.8647-.8652h.8647c.4773 0 .8648.3877.8648.8652 0 .478-.3875.8652-.8648.8652m5.1884 0h-2.5942c-.4773 0-.8647-.3872-.8647-.8652 0-.4775.3874-.8652.8647-.8652h2.5942c.4777 0 .8647.3877.8647.8652 0 .478-.387.8652-.8647.8652M214.5604 297.399h-2.5942a.8648.8648 0 0 1-.8647-.8651c0-.4775.387-.8652.8647-.8652h2.5942c.4773 0 .8648.3877.8648.8652 0 .478-.3875.8652-.8648.8652m3.245 0h-.6508c-.4773 0-.8647-.3872-.8647-.8652 0-.4775.3874-.8652.8647-.8652h.6508c.4772 0 .8643.3877.8643.8652 0 .478-.387.8652-.8643.8652M47.127 118.1417h36.5806V81.5421H47.127v36.5996zm37.9222 2.684H45.7854c-.7406 0-1.3416-.6008-1.3416-1.3422V80.2c0-.7414.601-1.3423 1.3416-1.3423h39.2638c.7406 0 1.3416.6009 1.3416 1.3423v39.2836c0 .7414-.601 1.3423-1.3416 1.3423z" fill="#5C7DB1" mask="url(#d)"/>
      <path d="M72.8156 108.586H58.0192a1.3407 1.3407 0 0 1-1.2394-.8286 1.343 1.343 0 0 1 .2906-1.463L69.5768 93.782H59.3603v6.0597c0 .7414-.6005 1.3423-1.3411 1.3423-.741 0-1.3416-.6009-1.3416-1.3423v-7.402c0-.7414.6006-1.3422 1.3416-1.3422h14.7964a1.3423 1.3423 0 0 1 .9488 2.2911l-12.5064 12.513h10.216v-6.0599c0-.7413.6006-1.3422 1.3416-1.3422.741 0 1.3416.6009 1.3416 1.3422v7.402c0 .7415-.6006 1.3423-1.3416 1.3423M45.2112 85.203h-2.0337c-.7406 0-1.3416-.6008-1.3416-1.3422 0-.741.601-1.3423 1.3416-1.3423h2.0337c.741 0 1.3416.6013 1.3416 1.3423 0 .7414-.6006 1.3423-1.3416 1.3423M45.2112 95.857h-2.0337c-.7406 0-1.3416-.6008-1.3416-1.3422 0-.741.601-1.3423 1.3416-1.3423h2.0337c.741 0 1.3416.6013 1.3416 1.3423 0 .7414-.6006 1.3422-1.3416 1.3422M45.2112 106.511h-2.0337c-.7406 0-1.3416-.6009-1.3416-1.3423 0-.741.601-1.3422 1.3416-1.3422h2.0337c.741 0 1.3416.6013 1.3416 1.3422 0 .7414-.6006 1.3423-1.3416 1.3423M45.2112 117.1647h-2.0337c-.7406 0-1.3416-.6008-1.3416-1.3422 0-.741.601-1.3423 1.3416-1.3423h2.0337c.741 0 1.3416.6013 1.3416 1.3423 0 .7414-.6006 1.3422-1.3416 1.3422M87.657 85.203h-2.0338c-.7406 0-1.3416-.6008-1.3416-1.3422 0-.741.601-1.3423 1.3416-1.3423h2.0337c.741 0 1.3416.6013 1.3416 1.3423 0 .7414-.6006 1.3423-1.3416 1.3423M87.657 95.857h-2.0338c-.7406 0-1.3416-.6008-1.3416-1.3422 0-.741.601-1.3423 1.3416-1.3423h2.0337c.741 0 1.3416.6013 1.3416 1.3423 0 .7414-.6006 1.3422-1.3416 1.3422M87.657 106.511h-2.0338c-.7406 0-1.3416-.6009-1.3416-1.3423 0-.741.601-1.3422 1.3416-1.3422h2.0337c.741 0 1.3416.6013 1.3416 1.3422 0 .7414-.6006 1.3423-1.3416 1.3423M87.657 117.1647h-2.0338c-.7406 0-1.3416-.6008-1.3416-1.3422 0-.741.601-1.3423 1.3416-1.3423h2.0337c.741 0 1.3416.6013 1.3416 1.3423 0 .7414-.6006 1.3422-1.3416 1.3422M49.4447 123.435c-.741 0-1.3415-.6008-1.3415-1.3422v-2.0348c0-.741.6005-1.3418 1.3415-1.3418.741 0 1.3416.6009 1.3416 1.3418v2.0348c0 .7414-.6006 1.3422-1.3416 1.3422M60.093 123.435c-.741 0-1.3416-.6008-1.3416-1.3422v-2.0348c0-.741.6005-1.3418 1.3416-1.3418.741 0 1.3415.6009 1.3415 1.3418v2.0348c0 .7414-.6005 1.3422-1.3415 1.3422M70.7414 123.435c-.741 0-1.3415-.6008-1.3415-1.3422v-2.0348c0-.741.6005-1.3418 1.3415-1.3418.741 0 1.3416.6009 1.3416 1.3418v2.0348c0 .7414-.6006 1.3422-1.3416 1.3422M81.3899 123.435c-.741 0-1.3416-.6008-1.3416-1.3422v-2.0348c0-.741.6006-1.3418 1.3416-1.3418.741 0 1.3415.6009 1.3415 1.3418v2.0348c0 .7414-.6005 1.3422-1.3415 1.3422M49.4447 81.0278c-.741 0-1.3415-.6008-1.3415-1.3422v-2.0348c0-.741.6005-1.3418 1.3415-1.3418.741 0 1.3416.6009 1.3416 1.3418v2.0348c0 .7414-.6006 1.3422-1.3416 1.3422M60.093 81.0278c-.741 0-1.3416-.6008-1.3416-1.3422v-2.0348c0-.741.6005-1.3418 1.3416-1.3418.741 0 1.3415.6009 1.3415 1.3418v2.0348c0 .7414-.6005 1.3422-1.3415 1.3422M70.7414 81.0278c-.741 0-1.3415-.6008-1.3415-1.3422v-2.0348c0-.741.6005-1.3418 1.3415-1.3418.741 0 1.3416.6009 1.3416 1.3418v2.0348c0 .7414-.6006 1.3422-1.3416 1.3422M81.3899 81.0278c-.741 0-1.3416-.6008-1.3416-1.3422v-2.0348c0-.741.6006-1.3418 1.3416-1.3418.741 0 1.3415.6009 1.3415 1.3418v2.0348c0 .7414-.6005 1.3422-1.3415 1.3422M289.2895 49.0002h36.5807V12.4006h-36.5807v36.5996zm37.9223 2.6845H287.948c-.741 0-1.3416-.6013-1.3416-1.3423v-39.284c0-.7415.6005-1.3423 1.3416-1.3423h39.2638c.741 0 1.3415.6008 1.3415 1.3422v39.2841c0 .741-.6005 1.3423-1.3415 1.3423z" fill="#5C7DB1" mask="url(#d)"/>
      <path d="M314.9783 39.4447H300.182a1.3407 1.3407 0 0 1-1.2394-.8286 1.3422 1.3422 0 0 1 .2906-1.4626l12.5065-12.5129H301.523v6.0598c0 .7414-.6005 1.3422-1.341 1.3422-.741 0-1.3416-.6008-1.3416-1.3422v-7.402c0-.7414.6005-1.3423 1.3415-1.3423h14.7964c.5425 0 1.0316.3269 1.2394.8286a1.3417 1.3417 0 0 1-.291 1.4625l-12.506 12.513h10.216v-6.0598c0-.7414.6006-1.3423 1.3416-1.3423.741 0 1.3416.6009 1.3416 1.3423v7.402c0 .7414-.6006 1.3423-1.3416 1.3423M287.374 16.0617h-2.0338c-.7405 0-1.3415-.6009-1.3415-1.3423 0-.741.601-1.3422 1.3415-1.3422h2.0337c.741 0 1.3416.6013 1.3416 1.3422 0 .7414-.6005 1.3423-1.3416 1.3423M287.374 26.7154h-2.0338c-.7405 0-1.3415-.6008-1.3415-1.3422 0-.741.601-1.3423 1.3415-1.3423h2.0337c.741 0 1.3416.6013 1.3416 1.3423 0 .7414-.6005 1.3422-1.3416 1.3422M287.374 37.3694h-2.0338c-.7405 0-1.3415-.6008-1.3415-1.3422 0-.741.601-1.3423 1.3415-1.3423h2.0337c.741 0 1.3416.6013 1.3416 1.3423 0 .7414-.6005 1.3422-1.3416 1.3422M287.374 48.0234h-2.0338c-.7405 0-1.3415-.6009-1.3415-1.3423 0-.741.601-1.3423 1.3415-1.3423h2.0337c.741 0 1.3416.6014 1.3416 1.3423 0 .7414-.6005 1.3423-1.3416 1.3423M329.8196 16.0617h-2.0337c-.7405 0-1.3415-.6009-1.3415-1.3423 0-.741.601-1.3422 1.3415-1.3422h2.0337c.741 0 1.3416.6013 1.3416 1.3422 0 .7414-.6005 1.3423-1.3416 1.3423M329.8196 26.7154h-2.0337c-.7405 0-1.3415-.6008-1.3415-1.3422 0-.741.601-1.3423 1.3415-1.3423h2.0337c.741 0 1.3416.6013 1.3416 1.3423 0 .7414-.6005 1.3422-1.3416 1.3422M329.8196 37.3694h-2.0337c-.7405 0-1.3415-.6008-1.3415-1.3422 0-.741.601-1.3423 1.3415-1.3423h2.0337c.741 0 1.3416.6013 1.3416 1.3423 0 .7414-.6005 1.3422-1.3416 1.3422M329.8196 48.0234h-2.0337c-.7405 0-1.3415-.6009-1.3415-1.3423 0-.741.601-1.3423 1.3415-1.3423h2.0337c.741 0 1.3416.6014 1.3416 1.3423 0 .7414-.6005 1.3423-1.3416 1.3423M291.6074 54.2937c-.741 0-1.3415-.601-1.3415-1.3423v-2.0348c0-.741.6005-1.3418 1.3415-1.3418.741 0 1.3416.6009 1.3416 1.3418v2.0348c0 .7414-.6006 1.3423-1.3416 1.3423M302.2557 54.2937c-.741 0-1.3416-.601-1.3416-1.3423v-2.0348c0-.741.6006-1.3418 1.3416-1.3418.741 0 1.3416.6009 1.3416 1.3418v2.0348c0 .7414-.6006 1.3423-1.3416 1.3423M312.9041 54.2937c-.741 0-1.3415-.601-1.3415-1.3423v-2.0348c0-.741.6005-1.3418 1.3415-1.3418.741 0 1.3416.6009 1.3416 1.3418v2.0348c0 .7414-.6006 1.3423-1.3416 1.3423M323.5526 54.2937c-.741 0-1.3416-.601-1.3416-1.3423v-2.0348c0-.741.6006-1.3418 1.3416-1.3418.741 0 1.3416.6009 1.3416 1.3418v2.0348c0 .7414-.6006 1.3423-1.3416 1.3423M291.6074 11.8862c-.741 0-1.3415-.6008-1.3415-1.3422V8.5092c0-.741.6005-1.3418 1.3415-1.3418.741 0 1.3416.6009 1.3416 1.3418v2.0348c0 .7414-.6006 1.3422-1.3416 1.3422M302.2557 11.8862c-.741 0-1.3416-.6008-1.3416-1.3422V8.5092c0-.741.6006-1.3418 1.3416-1.3418.741 0 1.3416.6009 1.3416 1.3418v2.0348c0 .7414-.6006 1.3422-1.3416 1.3422M312.9041 11.8862c-.741 0-1.3415-.6008-1.3415-1.3422V8.5092c0-.741.6005-1.3418 1.3415-1.3418.741 0 1.3416.6009 1.3416 1.3418v2.0348c0 .7414-.6006 1.3422-1.3416 1.3422M323.5526 11.8862c-.741 0-1.3416-.6008-1.3416-1.3422V8.5092c0-.741.6006-1.3418 1.3416-1.3418.741 0 1.3416.6009 1.3416 1.3418v2.0348c0 .7414-.6006 1.3422-1.3416 1.3422M65.4173 76.0142c-.741 0-1.3416-.601-1.3416-1.3423V62.4867c0-6.9958 5.6886-12.6873 12.6804-12.6873h36.209c5.5125 0 9.9973-4.4872 9.9973-10.0025V1.7437c0-.7414.601-1.3423 1.3416-1.3423.741 0 1.3416.6009 1.3416 1.3423v38.0532c0 6.9955-5.6882 12.687-12.6804 12.687h-36.209c-5.5125 0-9.9973 4.487-9.9973 10.0028V74.672c0 .7414-.6006 1.3423-1.3416 1.3423M362.5555 32.0726H331.671c-.741 0-1.3416-.6008-1.3416-1.3422 0-.741.6006-1.3423 1.3416-1.3423h30.8846c.741 0 1.3416.6013 1.3416 1.3423 0 .7414-.6006 1.3422-1.3416 1.3422" fill="#5C7DB1" mask="url(#d)"/>
    </g>
    <g transform="translate(82.999 282.7648)">
      <mask id="f" fill="#fff">
        <use xlink:href="#e"/>
      </mask>
      <path d="M22.8123 96.836H59.393V60.2365H22.8123V96.836zm37.9223 2.6846H21.4708c-.741 0-1.3416-.6009-1.3416-1.3423v-39.284c0-.7415.6006-1.3424 1.3416-1.3424h39.2638c.7406 0 1.3416.601 1.3416 1.3423v39.2841c0 .7414-.601 1.3423-1.3416 1.3423z" fill="#5C7DB1" mask="url(#f)"/>
      <path d="M48.501 87.2807H33.7044a1.3407 1.3407 0 0 1-1.2394-.8286 1.3422 1.3422 0 0 1 .2906-1.4626l12.5065-12.5133H35.0456v6.0597c0 .7414-.6005 1.3423-1.341 1.3423-.741 0-1.3416-.6009-1.3416-1.3423v-7.402c0-.741.6005-1.3422 1.3415-1.3422H48.501a1.3423 1.3423 0 0 1 .9489 2.2911L36.9433 84.5962h10.216v-6.0603c0-.7409.6006-1.3418 1.3416-1.3418.741 0 1.3416.6009 1.3416 1.3418v7.4025c0 .7414-.6006 1.3423-1.3416 1.3423M20.8966 63.8975h-2.0338c-.7405 0-1.3415-.6008-1.3415-1.3422 0-.741.601-1.3423 1.3415-1.3423h2.0338c.741 0 1.3415.6013 1.3415 1.3423 0 .7414-.6005 1.3422-1.3415 1.3422M20.8966 74.5515h-2.0338c-.7405 0-1.3415-.601-1.3415-1.3423 0-.741.601-1.3423 1.3415-1.3423h2.0338c.741 0 1.3415.6013 1.3415 1.3423 0 .7414-.6005 1.3423-1.3415 1.3423M20.8966 85.2054h-2.0338c-.7405 0-1.3415-.6008-1.3415-1.3422 0-.741.601-1.3423 1.3415-1.3423h2.0338c.741 0 1.3415.6013 1.3415 1.3423 0 .7414-.6005 1.3422-1.3415 1.3422M20.8966 95.8594h-2.0338c-.7405 0-1.3415-.6009-1.3415-1.3422 0-.741.601-1.3423 1.3415-1.3423h2.0338c.741 0 1.3415.6013 1.3415 1.3423 0 .7413-.6005 1.3422-1.3415 1.3422M63.3423 63.8975h-2.0337c-.7406 0-1.3416-.6008-1.3416-1.3422 0-.741.601-1.3423 1.3416-1.3423h2.0337c.741 0 1.3415.6013 1.3415 1.3423 0 .7414-.6005 1.3422-1.3415 1.3422M63.3423 74.5515h-2.0337c-.7406 0-1.3416-.601-1.3416-1.3423 0-.741.601-1.3423 1.3416-1.3423h2.0337c.741 0 1.3415.6013 1.3415 1.3423 0 .7414-.6005 1.3423-1.3415 1.3423M63.3423 85.2054h-2.0337c-.7406 0-1.3416-.6008-1.3416-1.3422 0-.741.601-1.3423 1.3416-1.3423h2.0337c.741 0 1.3415.6013 1.3415 1.3423 0 .7414-.6005 1.3422-1.3415 1.3422M63.3423 95.8594h-2.0337c-.7406 0-1.3416-.6009-1.3416-1.3422 0-.741.601-1.3423 1.3416-1.3423h2.0337c.741 0 1.3415.6013 1.3415 1.3423 0 .7413-.6005 1.3422-1.3415 1.3422M25.13 102.1295c-.741 0-1.3415-.6009-1.3415-1.3423v-2.0347c0-.741.6005-1.3418 1.3415-1.3418.741 0 1.3416.6008 1.3416 1.3418v2.0347c0 .7414-.6006 1.3423-1.3416 1.3423M35.7783 102.1295c-.741 0-1.3416-.6009-1.3416-1.3423v-2.0347c0-.741.6006-1.3418 1.3416-1.3418.741 0 1.3416.6008 1.3416 1.3418v2.0347c0 .7414-.6006 1.3423-1.3416 1.3423M46.4268 102.1295c-.741 0-1.3416-.6009-1.3416-1.3423v-2.0347c0-.741.6006-1.3418 1.3416-1.3418.741 0 1.3415.6008 1.3415 1.3418v2.0347c0 .7414-.6005 1.3423-1.3415 1.3423M57.0752 102.1295c-.741 0-1.3416-.6009-1.3416-1.3423v-2.0347c0-.741.6006-1.3418 1.3416-1.3418.741 0 1.3416.6008 1.3416 1.3418v2.0347c0 .7414-.6006 1.3423-1.3416 1.3423M25.13 59.7223c-.741 0-1.3415-.6009-1.3415-1.3423v-2.0347c0-.741.6005-1.3418 1.3415-1.3418.741 0 1.3416.6008 1.3416 1.3418V58.38c0 .7414-.6006 1.3423-1.3416 1.3423M35.7783 59.7223c-.741 0-1.3416-.6009-1.3416-1.3423v-2.0347c0-.741.6006-1.3418 1.3416-1.3418.741 0 1.3416.6008 1.3416 1.3418V58.38c0 .7414-.6006 1.3423-1.3416 1.3423M46.4268 59.7223c-.741 0-1.3416-.6009-1.3416-1.3423v-2.0347c0-.741.6006-1.3418 1.3416-1.3418.741 0 1.3415.6008 1.3415 1.3418V58.38c0 .7414-.6005 1.3423-1.3415 1.3423M57.0752 59.7223c-.741 0-1.3416-.6009-1.3416-1.3423v-2.0347c0-.741.6006-1.3418 1.3416-1.3418.741 0 1.3416.6008 1.3416 1.3418V58.38c0 .7414-.6006 1.3423-1.3416 1.3423M284.7484 47.521h36.5806V10.9212h-36.5806V47.521zm37.9222 2.684h-39.2634c-.741 0-1.3415-.6009-1.3415-1.3423V9.5791c0-.7414.6005-1.3423 1.3415-1.3423h39.2634c.741 0 1.3416.6009 1.3416 1.3423v39.2836c0 .7414-.6006 1.3423-1.3416 1.3423z" fill="#5C7DB1" mask="url(#f)"/>
      <path d="M310.4372 37.9652h-14.7964a1.3407 1.3407 0 0 1-1.2395-.8286 1.343 1.343 0 0 1 .2906-1.463l12.5065-12.5124h-10.2165v6.0597c0 .7414-.6006 1.3423-1.3411 1.3423-.741 0-1.3416-.6009-1.3416-1.3423v-7.402c0-.7414.6005-1.3422 1.3416-1.3422h14.7964a1.3423 1.3423 0 0 1 .9488 2.2911l-12.5065 12.513h10.2161v-6.0599c0-.7414.6006-1.3422 1.3416-1.3422.741 0 1.3415.6008 1.3415 1.3422v7.402c0 .7415-.6005 1.3423-1.3415 1.3423M282.8328 14.5823h-2.0337c-.7406 0-1.3416-.601-1.3416-1.3423 0-.741.601-1.3423 1.3416-1.3423h2.0337c.741 0 1.3416.6013 1.3416 1.3423 0 .7414-.6006 1.3423-1.3416 1.3423M282.8328 25.236h-2.0337c-.7406 0-1.3416-.6009-1.3416-1.3422 0-.741.601-1.3423 1.3416-1.3423h2.0337c.741 0 1.3416.6013 1.3416 1.3423 0 .7413-.6006 1.3422-1.3416 1.3422M282.8328 35.89h-2.0337c-.7406 0-1.3416-.6009-1.3416-1.3423 0-.741.601-1.3422 1.3416-1.3422h2.0337c.741 0 1.3416.6013 1.3416 1.3422 0 .7414-.6006 1.3423-1.3416 1.3423M282.8328 46.544h-2.0337c-.7406 0-1.3416-.601-1.3416-1.3423 0-.741.601-1.3423 1.3416-1.3423h2.0337c.741 0 1.3416.6013 1.3416 1.3423 0 .7414-.6006 1.3422-1.3416 1.3422M325.2785 14.5823h-2.0337c-.7406 0-1.3416-.601-1.3416-1.3423 0-.741.601-1.3423 1.3416-1.3423h2.0337c.741 0 1.3416.6013 1.3416 1.3423 0 .7414-.6006 1.3423-1.3416 1.3423M325.2785 25.236h-2.0337c-.7406 0-1.3416-.6009-1.3416-1.3422 0-.741.601-1.3423 1.3416-1.3423h2.0337c.741 0 1.3416.6013 1.3416 1.3423 0 .7413-.6006 1.3422-1.3416 1.3422M325.2785 35.89h-2.0337c-.7406 0-1.3416-.6009-1.3416-1.3423 0-.741.601-1.3422 1.3416-1.3422h2.0337c.741 0 1.3416.6013 1.3416 1.3422 0 .7414-.6006 1.3423-1.3416 1.3423M325.2785 46.544h-2.0337c-.7406 0-1.3416-.601-1.3416-1.3423 0-.741.601-1.3423 1.3416-1.3423h2.0337c.741 0 1.3416.6013 1.3416 1.3423 0 .7414-.6006 1.3422-1.3416 1.3422M287.0663 52.8142c-.741 0-1.3416-.6008-1.3416-1.3422v-2.0348c0-.741.6006-1.3418 1.3416-1.3418.741 0 1.3416.6009 1.3416 1.3418v2.0348c0 .7414-.6006 1.3422-1.3416 1.3422M297.7147 52.8142c-.741 0-1.3415-.6008-1.3415-1.3422v-2.0348c0-.741.6005-1.3418 1.3415-1.3418.741 0 1.3416.6009 1.3416 1.3418v2.0348c0 .7414-.6005 1.3422-1.3416 1.3422M308.363 52.8142c-.741 0-1.3416-.6008-1.3416-1.3422v-2.0348c0-.741.6006-1.3418 1.3416-1.3418.741 0 1.3416.6009 1.3416 1.3418v2.0348c0 .7414-.6006 1.3422-1.3416 1.3422M319.0114 52.8142c-.741 0-1.3415-.6008-1.3415-1.3422v-2.0348c0-.741.6005-1.3418 1.3415-1.3418.741 0 1.3416.6009 1.3416 1.3418v2.0348c0 .7414-.6006 1.3422-1.3416 1.3422M287.0663 10.4068c-.741 0-1.3416-.6009-1.3416-1.3423V7.0298c0-.741.6006-1.3418 1.3416-1.3418.741 0 1.3416.6008 1.3416 1.3418v2.0347c0 .7414-.6006 1.3423-1.3416 1.3423M297.7147 10.4068c-.741 0-1.3415-.6009-1.3415-1.3423V7.0298c0-.741.6005-1.3418 1.3415-1.3418.741 0 1.3416.6008 1.3416 1.3418v2.0347c0 .7414-.6005 1.3423-1.3416 1.3423M308.363 10.4068c-.741 0-1.3416-.6009-1.3416-1.3423V7.0298c0-.741.6006-1.3418 1.3416-1.3418.741 0 1.3416.6008 1.3416 1.3418v2.0347c0 .7414-.6006 1.3423-1.3416 1.3423M319.0114 10.4068c-.741 0-1.3415-.6009-1.3415-1.3423V7.0298c0-.741.6005-1.3418 1.3415-1.3418.741 0 1.3416.6008 1.3416 1.3418v2.0347c0 .7414-.6006 1.3423-1.3416 1.3423" fill="#5C7DB1" mask="url(#f)"/>
    </g>
    <g transform="translate(248.9886 358.534)">
      <mask id="h" fill="#fff">
        <use xlink:href="#g"/>
      </mask>
      <path d="M24.39 48.3504H53.047v-28.672H24.39v28.672zm29.9987 2.6845h-31.34c-.741 0-1.3415-.6008-1.3415-1.3422V18.3366c0-.7414.6006-1.3423 1.3416-1.3423h31.3399c.741 0 1.3415.6009 1.3415 1.3423v31.356c0 .7415-.6005 1.3423-1.3415 1.3423z" fill="#E3EAF6" mask="url(#h)"/>
      <path d="M25.9694 18.7396c-.741 0-1.3416-.6008-1.3416-1.3422v-3.0907c0-.7414.6006-1.3422 1.3416-1.3422.741 0 1.3415.6008 1.3415 1.3422v3.0907c0 .7414-.6005 1.3422-1.3415 1.3422M34.4688 18.7396c-.741 0-1.3415-.6008-1.3415-1.3422v-3.0907c0-.7414.6005-1.3422 1.3415-1.3422.741 0 1.3416.6008 1.3416 1.3422v3.0907c0 .7414-.6006 1.3422-1.3416 1.3422M42.9685 18.7396c-.741 0-1.3416-.6008-1.3416-1.3422v-3.0907c0-.7414.6006-1.3422 1.3416-1.3422.741 0 1.3416.6008 1.3416 1.3422v3.0907c0 .7414-.6006 1.3422-1.3416 1.3422M51.468 18.7396c-.741 0-1.3416-.6008-1.3416-1.3422v-3.0907c0-.7414.6006-1.3422 1.3416-1.3422.741 0 1.3415.6008 1.3415 1.3422v3.0907c0 .7414-.6005 1.3422-1.3415 1.3422M58.4163 48.1127h-3.5774c-.741 0-1.3415-.601-1.3415-1.3423 0-.741.6005-1.3423 1.3415-1.3423h3.5774c.741 0 1.3415.6013 1.3415 1.3423 0 .7414-.6005 1.3423-1.3415 1.3423M58.4163 39.6088h-3.5774c-.741 0-1.3415-.6009-1.3415-1.3423 0-.741.6005-1.3422 1.3415-1.3422h3.5774c.741 0 1.3415.6013 1.3415 1.3422 0 .7414-.6005 1.3423-1.3415 1.3423M58.4163 31.105h-3.5774c-.741 0-1.3415-.601-1.3415-1.3423 0-.741.6005-1.3423 1.3415-1.3423h3.5774c.741 0 1.3415.6013 1.3415 1.3423 0 .7414-.6005 1.3423-1.3415 1.3423M58.4163 22.6011h-3.5774c-.741 0-1.3415-.6009-1.3415-1.3423 0-.741.6005-1.3422 1.3415-1.3422h3.5774c.741 0 1.3415.6013 1.3415 1.3422 0 .7414-.6005 1.3423-1.3415 1.3423M22.294 48.1127h-3.2732c-.741 0-1.3415-.601-1.3415-1.3423 0-.741.6005-1.3423 1.3415-1.3423h3.2731c.741 0 1.3416.6013 1.3416 1.3423 0 .7414-.6005 1.3423-1.3416 1.3423M22.294 39.6088h-3.2732c-.741 0-1.3415-.6009-1.3415-1.3423 0-.741.6005-1.3422 1.3415-1.3422h3.2731c.741 0 1.3416.6013 1.3416 1.3422 0 .7414-.6005 1.3423-1.3416 1.3423M22.294 31.105h-3.2732c-.741 0-1.3415-.601-1.3415-1.3423 0-.741.6005-1.3423 1.3415-1.3423h3.2731c.741 0 1.3416.6013 1.3416 1.3423 0 .7414-.6005 1.3423-1.3416 1.3423M22.294 22.6011h-3.2732c-.741 0-1.3415-.6009-1.3415-1.3423 0-.741.6005-1.3422 1.3415-1.3422h3.2731c.741 0 1.3416.6013 1.3416 1.3422 0 .7414-.6005 1.3423-1.3416 1.3423M32.4002 25.9624h-2.5941a.8648.8648 0 0 1-.8648-.8652c0-.4775.387-.8652.8648-.8652h2.5941c.4773 0 .8648.3877.8648.8652 0 .478-.3875.8652-.8648.8652m3.459 0h-.8648c-.4772 0-.8647-.3872-.8647-.8652 0-.4775.3875-.8652.8647-.8652h.8648c.4772 0 .8647.3877.8647.8652 0 .478-.3875.8652-.8647.8652M32.4002 30.6279h-2.5941a.8648.8648 0 0 1-.8648-.8652c0-.4775.387-.8652.8648-.8652h2.5941c.4773 0 .8648.3877.8648.8652 0 .478-.3875.8652-.8648.8652m3.459 0h-.8648c-.4772 0-.8647-.3872-.8647-.8652 0-.4775.3875-.8652.8647-.8652h.8648c.4772 0 .8647.3877.8647.8652 0 .478-.3875.8652-.8647.8652m8.3998 0h-2.3467a.8608.8608 0 0 1-.4324-.1159.8608.8608 0 0 1-.4323.1159h-2.5942c-.4773 0-.8648-.3872-.8648-.8652 0-.4775.3875-.8652.8648-.8652h2.5942a.8608.8608 0 0 1 .4323.1159.8608.8608 0 0 1 .4324-.1159h2.3467c.4773 0 .8643.3877.8643.8652 0 .478-.387.8652-.8643.8652M32.4002 35.293h-2.5941a.8648.8648 0 0 1-.8648-.865c0-.4776.387-.8653.8648-.8653h2.5941c.4773 0 .8648.3877.8648.8652 0 .478-.3875.8652-.8648.8652m3.459 0h-.8648c-.4772 0-.8647-.3872-.8647-.8652 0-.4775.3875-.8652.8647-.8652h.8648c.4772 0 .8647.3877.8647.8652 0 .478-.3875.8652-.8647.8652m5.1884 0h-2.5942c-.4773 0-.8648-.3872-.8648-.8652 0-.4775.3875-.8652.8648-.8652h2.5942c.4777 0 .8647.3877.8647.8652 0 .478-.387.8652-.8647.8652M32.4002 39.9585h-2.5941a.8648.8648 0 0 1-.8648-.8651c0-.4776.387-.8652.8648-.8652h2.5941c.4773 0 .8648.3876.8648.8652 0 .478-.3875.8651-.8648.8651m3.459 0h-.8648c-.4772 0-.8647-.3872-.8647-.8651 0-.4776.3875-.8652.8647-.8652h.8648c.4772 0 .8647.3876.8647.8652 0 .478-.3875.8651-.8647.8651m8.6473 0h-2.5942a.8608.8608 0 0 1-.4324-.1158.8608.8608 0 0 1-.4323.1158h-2.5942c-.4773 0-.8648-.3872-.8648-.8651 0-.4776.3875-.8652.8648-.8652h2.5942a.8608.8608 0 0 1 .4323.1158.8608.8608 0 0 1 .4324-.1158h2.5942c.4777 0 .8647.3876.8647.8652 0 .478-.387.8651-.8647.8651m3.459 0h-.8648a.8648.8648 0 0 1-.8648-.8651c0-.4776.387-.8652.8648-.8652h.8647c.4777 0 .8647.3876.8647.8652 0 .478-.387.8651-.8647.8651" fill="#E3EAF6" mask="url(#h)"/>
    </g>
  </g>
</svg>
