<?xml version="1.0" ?><svg viewBox="0 0 128 128" xmlns="http://www.w3.org/2000/svg"><defs><style>.cls-1{fill:#5bc9e1;}.cls-2{fill:#0083ca;}.cls-3{fill:#fd0;}.cls-4{fill:#f8991d;}.cls-5{fill:#314967;}</style></defs><title/><g data-name="06 Credit Card" id="_06_Credit_Card"><rect class="cls-1" height="72" rx="6" ry="6" width="96" x="16" y="28"/><rect class="cls-2" height="18" width="96" x="16" y="46"/><circle class="cls-3" cx="93.07" cy="82.45" r="7"/><circle class="cls-4" cx="79.07" cy="82.45" r="7"/><path class="cls-5" d="M110,43v1H61.6a2,2,0,0,0,0,4H110V62H93.07a2,2,0,0,0,0,4H110V94a4,4,0,0,1-4,4H22a4,4,0,0,1-4-4V82.45a2,2,0,0,0-4,0V94a8,8,0,0,0,8,8h84a8,8,0,0,0,8-8V43A2,2,0,0,0,110,43Z"/><path class="cls-5" d="M106,26H22a8,8,0,0,0-8,8V75.45a2,2,0,0,0,4,0V66H86.16a2,2,0,0,0,0-4H18V48H31.73a2,2,0,0,0,0-4H18V34a4,4,0,0,1,4-4h84a4,4,0,0,1,4,4v2.95a2,2,0,0,0,4,0V34A8,8,0,0,0,106,26Z"/><path class="cls-5" d="M39.65,44a2,2,0,0,0,0,4H55.49a2,2,0,0,0,0-4Z"/><path class="cls-5" d="M72,76.82a9,9,0,1,0,16,5.62A5,5,0,1,1,91,87a2,2,0,0,0-1.64,3.65A9,9,0,1,0,86.07,76.8a9,9,0,0,0-7-3.36,2,2,0,0,0,0,4,5,5,0,1,1-3.91,1.88A2,2,0,0,0,72,76.82Z"/></g></svg>