<?xml version="1.0" encoding="utf-8"?>
<!-- Generator: Adobe Illustrator 22.1.0, SVG Export Plug-In . SVG Version: 6.00 Build 0)  -->
<svg version="1.1" id="Layer_1" xmlns="http://www.w3.org/2000/svg" xmlns:xlink="http://www.w3.org/1999/xlink" x="0px" y="0px"
   viewBox="0 0 1000 1000" style="enable-background:new 0 0 1000 1000;" xml:space="preserve">
<style type="text/css">
  .st0{fill:#E3EAF6;}
  .st1{fill:#FFE8C0;}
  .st2{fill:#FFFFFF;}
  .st3{fill:#ADE6DC;}
  .st4{fill:#5C7DB1;}

    .st5{fill:none;stroke:#E3EAF6;stroke-width:1.998;stroke-linecap:round;stroke-linejoin:round;stroke-miterlimit:10;stroke-dasharray:2.9971,2.9971,0.999;}
  .st6{fill:none;stroke:#5C7DB1;stroke-width:3.9998;stroke-linecap:round;stroke-linejoin:round;stroke-miterlimit:10;}

    .st7{fill:none;stroke:#5C7DB1;stroke-width:3.9961;stroke-linecap:round;stroke-linejoin:round;stroke-miterlimit:10;stroke-dasharray:0.999,4.9951;}

    .st8{fill:none;stroke:#5C7DB1;stroke-width:1.998;stroke-linecap:round;stroke-linejoin:round;stroke-miterlimit:10;stroke-dasharray:2.9971,2.9971,0.999;}
  .st9{fill:none;stroke:#5C7DB1;stroke-width:4;stroke-linecap:round;stroke-linejoin:round;stroke-miterlimit:10;}
  .st10{fill:#5C7DB1;}

    .st11{fill:none;stroke:#5C7DB1;stroke-width:2.742;stroke-linecap:round;stroke-linejoin:round;stroke-miterlimit:10;stroke-dasharray:0.8183,3.4275;}
  .st12{fill:none;stroke:#E3EAF6;stroke-width:3.9998;stroke-linecap:round;stroke-linejoin:round;stroke-miterlimit:10;}
  .st13{fill:none;stroke:#5C7DB1;stroke-width:3;stroke-linecap:round;stroke-linejoin:round;stroke-miterlimit:10;}

    .st14{fill:none;stroke:#5C7DB1;stroke-width:2.1816;stroke-linecap:round;stroke-linejoin:round;stroke-miterlimit:10;stroke-dasharray:3.2724,3.2724,1.0908;}
</style>
<g>
  <path class="st0" d="M582.5,306.2c5.6,0.4,11.2,0.8,16.8,1.2c0.8,0.1,1.7,0.1,2.5-0.2c1.3-0.5,2-2,2.1-3.3c0.1-1.4-0.4-2.7-0.8-4
    c-0.2-0.6-0.4-1.2-0.8-1.6c-0.6-0.5-1.4-0.7-2.2-0.7c-3.8-0.3-7.8-0.5-11.4,0.8s-6.7,4.7-6.6,8.5"/>
</g>
<g>
  <path class="st0" d="M583.5,320.6c1,1.5-0.2,3.7-1.9,4.3s-3.6,0.2-5.3-0.1c-1.8-0.3-5.3-2.3-5.3,0.4s2,2.2,3,3.4
    c-3.8,1.4-12.4-1.4-11.8,2.1c0.6,3.5,13.8,2.1,18.1,7c1.3,1.5,2,4.2,0.4,5.3c-0.5,0.4-1.2,0.5-1.8,0.6c-4.3,0.8-13.1-0.4-13,2.4
    c0,2.8,3.8,1.6,5.7,2.4c-2.9,1.1-9.7-0.3-9.1,2.3c0.6,2.6,14.7,0.9,22,1.4c-1.1,3.9-1.2,9.1,2.4,10.8c1.1,0.5,2.3,0.6,3.4,0.6
    c33,1.9,66,2.2,99,0.9c3.3-0.1,6.9-0.4,9.1-2.8c2.5-2.8,2.1-7.1,1.4-10.8c-1.6-9.2,0.3-18.5-1.3-27.7c-0.1-0.4-3.7-0.8-4-1.1
    c-0.5-0.6-1.3-0.6-2-0.6c-5.5-0.1-10.9-0.2-16.4-0.3c-2.1,0-5,0.5-5.3,2.6c-0.2,1.4,0.8,3.1-0.2,4.1c-0.5,0.4-1.2,0.4-1.8,0.4
    c-22.2-0.4-44.3-0.9-66.5-1.3c0.6-2.3,0.5-5.4-1.7-6.4c-0.7-0.3-1.6-0.4-2.4-0.4c-4.7-0.2-9.5-0.5-14.2-0.7"/>
</g>
<g>
  <path class="st0" d="M673.5,304.8c8,0,16,0,24.1,0c0.2,0,0.5,0,0.7-0.2c0.2-0.2,0.2-0.4,0.2-0.7c0-2.7-2-5.2-4.4-6.4
    c-2.4-1.2-5.2-1.5-8-1.6c-4.2-0.2-8.5-0.1-12.7,0.2c-0.3,0-0.6,0.1-0.9,0.2c-0.4,0.3-0.4,1-0.3,1.5c0.3,2.2,0.6,4.3,0.9,6.5"/>
</g>
<path class="st1" d="M772.6,674.4c34-55,49.9-135.4,3.6-180.2s-86.9,21.7-165-29s-97-109.3-194.7-63s-36.2,97-160.7,126.7
  c-124.5,29.7-72.4,144-3.6,144"/>
<circle class="st2" cx="402.1" cy="560.3" r="3.9"/>
<polyline class="st0" points="369,518.1 369,525.8 361.3,525.8 361.3,518 363,518 "/>
<polyline class="st3" points="369.1,504.1 369.1,511.8 361.3,511.8 361.4,504.1 363.1,504.1 "/>
<g>
  <path class="st0" d="M662.8,660.9c6.9,0.3,13.8-0.1,20.6-1.1c1.1-0.2,2.4-0.5,2.8-1.5c0.6-1.5-1.2-2.8-1.7-4.4
    c-0.4-1.3,0.1-2.7,1-3.7s2.1-1.6,3.3-2.2c3.3-1.5,6.8-2.6,10.3-3.3c0.5-0.1,1-0.2,1.4-0.5c0.4-0.3,0.5-0.8,0.6-1.3
    c0.4-2.4-0.2-4.8-0.8-7.2c-12.5,0.7-25,1.6-37.4,2.6c0.1,7.5,0.2,15,0.2,22.4"/>
</g>
<path class="st1" d="M685.9,506.2h-30.1c-1.1,0-2-0.9-2-2v-30.7c0-1.1,0.9-2,2-2h30.1c1.1,0,2,0.9,2,2v30.7
  C687.9,505.3,687,506.2,685.9,506.2z"/>
<path class="st4" d="M677.3,494.1h-10.8c-1.1,0-2-0.9-2-2v-9.8c0-1.1,0.9-2,2-2h10.8c1.1,0,2,0.9,2,2v9.8
  C679.3,493.2,678.4,494.1,677.3,494.1z"/>
<g>
  <path class="st2" d="M186.4,644.6c20.5-1.2,41.1-1.8,61.6-1.6c2,0,4.1,0,5.8-0.9c3.9-2.1,4.3-7.4,4.1-11.8
    c-0.5-19.3-1.1-38.5-1.6-57.8c-3.3,5.8-6.7,11.7-10,17.5c-3.2,5.6-6.5,11.3-10.7,16.2c-3.2,3.8-7,7.2-10.7,10.5
    c-11.7,10.3-24.1,20.6-38.9,25.4"/>
</g>
<path class="st0" d="M213.3,558h-69.9c-1.7,0-3-1.3-3-3v-90.4c0-1.7,1.3-3,3-3h69.9c1.7,0,3,1.3,3,3V555
  C216.3,556.7,214.9,558,213.3,558z"/>
<g>
  <polyline class="st5" points="529.4,403.7 534,403.7 459.3,403.7   "/>
  <line class="st5" x1="551.5" y1="378.1" x2="475.4" y2="378.1"/>
  <line class="st5" x1="831.2" y1="301.8" x2="763.9" y2="301.8"/>
  <g>
    <line class="st5" x1="808.5" y1="302.1" x2="808.5" y2="312.1"/>
  </g>
  <g>
    <line class="st5" x1="843" y1="276.2" x2="843" y2="286.4"/>
  </g>
  <line class="st5" x1="798.5" y1="250.8" x2="744.1" y2="250.8"/>
  <line class="st5" x1="855.1" y1="276.2" x2="730.7" y2="276.2"/>
  <g>
    <line class="st5" x1="843" y1="225.2" x2="843" y2="233.4"/>
  </g>
  <polyline class="st5" points="899.5,199.8 936,199.8 930.2,199.8 744.1,199.8   "/>
  <line class="st5" x1="859.5" y1="225.2" x2="744.1" y2="225.2"/>
  <g>
    <line class="st5" x1="876.8" y1="200.1" x2="876.8" y2="210.8"/>
    <line class="st5" x1="808.5" y1="200.1" x2="808.5" y2="225.2"/>
  </g>
  <g>
    <line class="st5" x1="843" y1="174.2" x2="843" y2="199.3"/>
  </g>
  <g>
    <line class="st5" x1="511.1" y1="404" x2="511.1" y2="429.1"/>
  </g>
  <g>
    <path class="st5" d="M784.1,378.1"/>
    <line class="st5" x1="511.1" y1="365.6" x2="511.1" y2="378.1"/>
  </g>
  <g>
    <path class="st5" d="M740.3,327.1"/>
    <path class="st5" d="M740.3,302.1"/>
  </g>
  <g>
    <line class="st5" x1="774.8" y1="276.2" x2="774.8" y2="301.2"/>
  </g>
  <g>
    <path class="st5" d="M740.3,276.2"/>
    <path class="st5" d="M740.3,251.1"/>
  </g>
  <g>
    <line class="st5" x1="774.8" y1="225.2" x2="774.8" y2="250.3"/>
  </g>
  <g>
    <line class="st5" x1="808.5" y1="200.1" x2="808.5" y2="225.2"/>
    <line class="st5" x1="808.5" y1="265" x2="808.5" y2="275.5"/>
  </g>
  <g>
    <line class="st5" x1="774.8" y1="174.2" x2="774.8" y2="199.3"/>
  </g>
</g>
<g>
  <line class="st5" x1="235.4" y1="414.9" x2="105.1" y2="414.9"/>
  <line class="st5" x1="189" y1="415.2" x2="189" y2="425.5"/>
  <line class="st5" x1="120.7" y1="415.2" x2="120.7" y2="425.5"/>
  <line class="st5" x1="223.5" y1="389.3" x2="223.5" y2="414.4"/>
  <line class="st5" x1="155.2" y1="389.3" x2="155.2" y2="414.4"/>
  <path class="st5" d="M105.1,363.9"/>
  <path class="st5" d="M265.7,363.9"/>
  <line class="st5" x1="265.7" y1="389.3" x2="134.6" y2="389.3"/>
  <line class="st5" x1="189" y1="364.2" x2="189" y2="389.3"/>
</g>
<g>
  <g>
    <polyline class="st0" points="628.4,174.6 628.4,186.2 616.8,186.2 616.8,174.6 619.5,174.6     "/>
    <polyline class="st3" points="628.5,153.7 628.5,165.3 616.9,165.2 616.9,153.6 619.6,153.7     "/>
    <polyline class="st0" points="628.6,132.7 628.6,144.3 617,144.3 617,132.7 619.7,132.7     "/>
    <polyline class="st3" points="628.7,111.8 628.7,123.4 617.1,123.3 617.1,111.7 619.8,111.8     "/>
  </g>
  <polyline class="st2" points="671.9,213.6 683.9,213.6 683.9,200.5 665.4,200.4 655.9,200.5 625.9,200.5 625.9,213.7 662.4,213.6
    "/>
  <polyline class="st6" points="613.3,273.3 600.4,273.3 600.5,327.2 668.4,327.1 668.3,273.2 633.2,273.3   "/>
  <polyline class="st6" points="613.3,273.3 613.3,259.6 619.7,259.6 619.7,273.3   "/>
  <line class="st6" x1="616.4" y1="258.6" x2="616.4" y2="253.2"/>
  <line class="st7" x1="660.5" y1="295.6" x2="622.3" y2="295.6"/>
  <line class="st8" x1="659.1" y1="185" x2="671" y2="185"/>
  <line class="st8" x1="638.2" y1="185.1" x2="654.1" y2="185.1"/>
  <line class="st6" x1="638.2" y1="177.9" x2="656.8" y2="177.9"/>
  <polyline class="st6" points="625.4,173.5 625.4,185.1 613.8,185.2 613.8,173.6 616.4,173.6   "/>
  <line class="st8" x1="638.2" y1="164.2" x2="676" y2="164.1"/>
  <line class="st6" x1="638.2" y1="157" x2="668.5" y2="156.9"/>
  <polyline class="st6" points="625.4,152.6 625.4,164.2 613.8,164.2 613.8,152.6 616.4,152.6   "/>
  <line class="st8" x1="638.2" y1="143.2" x2="676" y2="143.1"/>
  <line class="st6" x1="638.2" y1="136.1" x2="649" y2="136"/>
  <line class="st7" x1="654.5" y1="136" x2="666.2" y2="136"/>
  <polyline class="st6" points="625.3,131.7 625.4,143.3 613.8,143.3 613.7,131.7 616.4,131.7   "/>
  <line class="st8" x1="638.2" y1="122.3" x2="675.9" y2="122.2"/>
  <line class="st6" x1="638.1" y1="115.1" x2="665.1" y2="115"/>
  <polyline class="st6" points="625.3,110.7 625.3,122.3 613.8,122.4 613.7,110.8 616.4,110.8   "/>
  <polyline class="st6" points="668.2,211 680.2,211.1 680.2,197.9 661.7,197.9 652.2,197.9 622.2,198 622.2,211.1 658.7,211   "/>
  <line class="st7" x1="599.3" y1="212.8" x2="599.2" y2="159"/>
  <path class="st6" d="M599.2,153.9l-0.1-74.1c0-6.4,5.3-11.7,11.7-11.7l79.3-0.1c6.4,0,11.7,5.3,11.7,11.7l0.2,160.9
    c0,6.4-5.3,11.7-11.7,11.7l-79.3,0.1c-6.4,0-11.7-5.3-11.7-11.7l0-22.5"/>
  <line class="st6" x1="629.1" y1="225.2" x2="694.7" y2="225.2"/>
  <line class="st7" x1="606.5" y1="225.3" x2="626.5" y2="225.2"/>
  <line class="st7" x1="658.6" y1="95.4" x2="694.6" y2="95.4"/>
  <line class="st6" x1="606.4" y1="95.5" x2="653.8" y2="95.4"/>
  <path class="st6" d="M655.7,238.5c0,3.5-2.8,6.3-6.3,6.3c-3.5,0-6.3-2.8-6.3-6.3c0-3.5,2.8-6.3,6.3-6.3"/>
  <polyline class="st6" points="575.4,344.4 580.2,344.4 580.2,337.3   "/>
  <polyline class="st6" points="570.5,325.1 580.2,325.1 580.2,315.9 575.4,315.9   "/>
  <path class="st6" d="M594.6,295.6l-7.5,0c-3.9,0-7,3.2-7,7l0,4"/>
  <path class="st6" d="M675.4,295.5l13.9,0c3.9,0,7,3.2,7,7l0.1,54.9c0,3.9-3.2,7-7,7l-102.1,0.1c-3.9,0-7-3.2-7-7l0-6"/>
  <line class="st8" x1="673.7" y1="320.6" x2="689.3" y2="320.6"/>
  <line class="st6" x1="587.2" y1="320.7" x2="594.7" y2="320.7"/>
  <line class="st8" x1="689.3" y1="302.8" x2="673.6" y2="302.8"/>
  <line class="st6" x1="587.2" y1="302.9" x2="594.6" y2="302.9"/>
  <line class="st6" x1="619.7" y1="273.5" x2="627" y2="273.5"/>
  <line class="st8" x1="574.4" y1="351.6" x2="562.5" y2="351.6"/>
  <line class="st6" x1="575.2" y1="306.6" x2="562.8" y2="306.7"/>
  <line class="st8" x1="580.7" y1="331.6" x2="562.6" y2="331.6"/>
  <line class="st7" x1="640.4" y1="81.9" x2="648.9" y2="81.9"/>
  <line class="st6" x1="655.3" y1="81.9" x2="659.3" y2="81.9"/>
</g>
<g>
  <g>
    <path class="st3" d="M393.5,334.9l0.1,13.4c0,2-1.7,3.7-3.7,3.7l-21.7,0.1c-2,0-3.7-1.7-3.7-3.7l-0.1-25.7c0-2,1.7-3.7,3.7-3.7
      l21.7-0.1c2,0,3.7,1.7,3.7,3.7l0,6.5"/>
    <g>
      <path class="st0" d="M259.5,292c-0.4-0.6-0.7-1.4-0.7-2.2l0-6.1c0-2,1.7-3.7,3.7-3.7l21.7-0.1c2,0,3.7,1.7,3.7,3.7l0,6.1
        c0,2-1.7,3.7-3.7,3.7"/>
      <line class="st0" x1="277.9" y1="293.4" x2="263.5" y2="293.5"/>
      <path class="st0" d="M309,279.8l10.5,0c2,0,3.7,1.7,3.7,3.7l0,6.1c0,2-1.7,3.7-3.7,3.7l-21.7,0.1c-2,0-3.7-1.7-3.7-3.7l0-6.1
        c0-2,1.7-3.7,3.7-3.7l6.1,0"/>
      <path class="st0" d="M340.2,293.2l-7.1,0c-2,0-3.7-1.7-3.7-3.7l0-6.1c0-2,1.7-3.7,3.7-3.7l21.7-0.1c2,0,3.7,1.7,3.7,3.7l0,2.3
        l0,3.8c0,2-1.7,3.7-3.7,3.7l-8.5,0"/>
      <path class="st0" d="M393.8,289.3c0,2-1.7,3.7-3.7,3.7l-21.7,0.1c-2,0-3.7-1.7-3.7-3.7l0-6.1c0-2,1.7-3.7,3.7-3.7l21.7-0.1
        c2,0,3.7,1.7,3.7,3.7l0,1.7"/>
      <path class="st0" d="M265.8,313.2l-3.1,0c-2,0-3.7-1.7-3.7-3.7l0-6.1c0-2,1.7-3.7,3.7-3.7l21.7-0.1c2,0,3.7,1.7,3.7,3.7l0,6.1
        c0,2-1.7,3.7-3.7,3.7l-13.8,0.1"/>
      <path class="st0" d="M323.3,309.2c0,2-1.7,3.7-3.7,3.7l-21.7,0.1c-2,0-3.7-1.7-3.7-3.7l0-6.1c0-2,1.7-3.7,3.7-3.7l21.7-0.1
        c2,0,3.7,1.7,3.7,3.7"/>
      <path class="st0" d="M347.2,312.8l-14,0.1c-2,0-3.7-1.7-3.7-3.7l0-6.1c0-2,1.7-3.7,3.7-3.7l21.7-0.1c2,0,3.7,1.7,3.7,3.7l0,6.1
        c0,2-1.7,3.7-3.7,3.7l-2.6,0"/>
      <path class="st0" d="M385.2,299.2l4.9,0c2,0,3.7,1.7,3.7,3.7l0,6.1c0,2-1.7,3.7-3.7,3.7l-21.7,0.1c-2,0-3.7-1.7-3.7-3.7l0-6.1
        c0-2,1.7-3.7,3.7-3.7l11.3,0"/>
      <path class="st0" d="M288.1,329c0,2-1.7,3.7-3.7,3.7l-21.7,0.1c-2,0-3.7-1.7-3.7-3.7l0-6.1c0-2,1.7-3.7,3.7-3.7l21.7-0.1
        c2,0,3.7,1.7,3.7,3.7"/>
      <path class="st0" d="M310.1,332.7l-12.1,0c-2,0-3.7-1.7-3.7-3.7l0-6.1c0-2,1.7-3.7,3.7-3.7l21.7-0.1c2,0,3.7,1.7,3.7,3.7l0,6.1
        c0,2-1.7,3.7-3.7,3.7l-4.8,0"/>
      <path class="st0" d="M329.5,322.8c0-2,1.7-3.7,3.7-3.7l21.7-0.1c2,0,3.7,1.7,3.7,3.7l0,6.1c0,2-1.7,3.7-3.7,3.7l-21.7,0.1
        c-2,0-3.7-1.7-3.7-3.7"/>
      <path class="st0" d="M281.3,339l3.1,0c2,0,3.7,1.7,3.7,3.7l0,6.1c0,2-1.7,3.7-3.7,3.7l-21.7,0.1c-2,0-3.7-1.7-3.7-3.7l0-6.1
        c0-2,1.7-3.7,3.7-3.7l13.5-0.1"/>
      <path class="st0" d="M294.3,342.6c0-2,1.7-3.7,3.7-3.7l21.7-0.1c2,0,3.7,1.7,3.7,3.7l0,6.1c0,2-1.7,3.7-3.7,3.7l-21.7,0.1
        c-2,0-3.7-1.7-3.7-3.7"/>
      <path class="st0" d="M352.9,338.7l2.1,0c2,0,3.7,1.7,3.7,3.7l0,6.1c0,2-1.7,3.7-3.7,3.7l-21.7,0.1c-2,0-3.7-1.7-3.7-3.7l0-6.1
        c0-2,1.7-3.7,3.7-3.7l14.8-0.1"/>
    </g>
    <path class="st0" d="M433.9,171l-0.3,0.2c0-3.3,0-6.4,0-7c0-1.5,0.5-0.6-1.5-1.3c-1.9-0.7-3.1-2.3-3.1-2.3l0.1,13l-4.3,1.9
      c0-5-0.1-12.9-0.1-14c0-1.7,0.5-0.7-1.5-1.5c-1.9-0.8-3.3-3-3.3-3l0.1,20.7l-2.4,1.2l0.4,109.8l16.4,7.9c2.3,1.1,4.3,0.4,4.3-1.6
      l-0.5-122.6C438.2,170.5,436.2,169.9,433.9,171z"/>
  </g>
  <path class="st2" d="M342.3,251.1l-81.3,0.8c-7.2,0.1-13.1-5.7-13.2-12.9l-0.6-56.8c-0.1-7.2,5.7-13.1,12.9-13.2l6-0.1l5.1-0.1
    l117.4-1.2c7.2-0.1,13.1,5.7,13.2,12.9l0.6,56.8l-1.1,5.4c-2,4.5-6.5,7.7-11.8,7.8l-41.7,0.4"/>
  <line class="st8" x1="433" y1="178.7" x2="433.2" y2="199.5"/>
  <line class="st7" x1="422.4" y1="185" x2="423.1" y2="259.5"/>
  <path class="st6" d="M232.4,172l-0.2-15.4c-0.1-5.6,4.5-10.2,10-10.2l171.8-1.7"/>
  <line class="st7" x1="233.2" y1="252.4" x2="232.5" y2="176.6"/>
  <path class="st6" d="M252.3,361.8l-7.9,0.1c-5.6,0.1-10.2-4.5-10.2-10l-1-94.4"/>
  <line class="st7" x1="325.4" y1="361.1" x2="257.2" y2="361.7"/>
  <line class="st6" x1="405.9" y1="360.2" x2="329.8" y2="361"/>
  <path class="st6" d="M246.9,357.5l-0.8-81.3c-0.1-5.6,4.5-10.2,10-10.2l134.4-1.4c5.6-0.1,10.2,4.5,10.2,10l0.8,81.1"/>
  <path class="st6" d="M400.3,233.5l-0.6-56.8c-0.1-7.2-6-13-13.2-12.9l-117.4,1.2"/>
  <path class="st7" d="M345.7,247.1l41.7-0.4c5.3-0.1,9.8-3.3,11.8-7.8"/>
  <path class="st6" d="M264.1,164.9l-6,0.1c-7.2,0.1-13,6-12.9,13.2l0.6,56.8c0.1,7.2,6,13,13.2,12.9l81.3-0.8"/>
  <path class="st6" d="M256.5,291.2c-0.4-0.6-0.7-1.4-0.7-2.2l-0.1-6.1c0-2.1,1.6-3.7,3.7-3.8l21.8-0.2c2.1,0,3.7,1.6,3.8,3.7
    l0.1,6.1c0,2.1-1.6,3.7-3.7,3.8"/>
  <line class="st7" x1="275" y1="292.5" x2="260.5" y2="292.7"/>
  <path class="st6" d="M306.1,278.7l10.6-0.1c2.1,0,3.7,1.6,3.8,3.7l0.1,6.1c0,2.1-1.6,3.7-3.7,3.8l-21.8,0.2c-2.1,0-3.7-1.6-3.8-3.7
    l-0.1-6.1c0-2.1,1.6-3.7,3.7-3.8l6.1-0.1"/>
  <path class="st7" d="M343.7,291.9l8.5-0.1c2.1,0,3.7-1.7,3.7-3.8"/>
  <path class="st6" d="M337.5,291.9l-7.1,0.1c-2.1,0-3.7-1.6-3.8-3.7l-0.1-6.1c0-2.1,1.6-3.7,3.7-3.8l21.8-0.2c2.1,0,3.7,1.6,3.8,3.7
    l0,2.3"/>
  <path class="st6" d="M391.4,287.6c0,2.1-1.6,3.7-3.7,3.8l-21.8,0.2c-2.1,0-3.7-1.6-3.8-3.7l-0.1-6.1c0-2.1,1.6-3.7,3.7-3.8
    l21.8-0.2c2.1,0,3.7,1.6,3.8,3.7l0,1.7"/>
  <path class="st6" d="M262.9,312.4l-3.1,0c-2.1,0-3.7-1.6-3.8-3.7l-0.1-6.1c0-2.1,1.6-3.7,3.7-3.8l21.8-0.2c2.1,0,3.7,1.6,3.8,3.7
    l0.1,6.1c0,2.1-1.6,3.7-3.7,3.8l-13.9,0.1"/>
  <path class="st6" d="M320.7,308.1c0,2.1-1.6,3.7-3.7,3.8l-21.8,0.2c-2.1,0-3.7-1.6-3.8-3.7l-0.1-6.1c0-2.1,1.6-3.7,3.7-3.8
    l21.8-0.2c2.1,0,3.7,1.6,3.8,3.7"/>
  <path class="st6" d="M344.7,311.6l-14.1,0.1c-2.1,0-3.7-1.6-3.8-3.7l-0.1-6.1c0-2.1,1.6-3.7,3.7-3.8l21.8-0.2
    c2.1,0,3.7,1.6,3.8,3.7l0.1,6.1c0,2.1-1.6,3.7-3.7,3.8l-2.6,0"/>
  <path class="st6" d="M382.8,297.7l4.9,0c2.1,0,3.7,1.6,3.8,3.7l0.1,6.1c0,2.1-1.6,3.7-3.7,3.8l-21.8,0.2c-2.1,0-3.7-1.6-3.8-3.7
    l-0.1-6.1c0-2.1,1.6-3.7,3.7-3.8l11.3-0.1"/>
  <path class="st6" d="M285.5,328.2c0,2.1-1.6,3.7-3.7,3.8l-21.8,0.2c-2.1,0-3.7-1.6-3.8-3.7l-0.1-6.1c0-2.1,1.6-3.7,3.7-3.8
    l21.8-0.2c2.1,0,3.7,1.6,3.8,3.7"/>
  <path class="st6" d="M307.6,331.8l-12.2,0.1c-2.1,0-3.7-1.6-3.8-3.7l-0.1-6.1c0-2.1,1.6-3.7,3.7-3.8l21.8-0.2
    c2.1,0,3.7,1.6,3.8,3.7l0.1,6.1c0,2.1-1.6,3.7-3.7,3.8l-4.8,0"/>
  <path class="st6" d="M327,321.7c0-2.1,1.6-3.7,3.7-3.8l21.8-0.2c2.1,0,3.7,1.6,3.8,3.7l0.1,6.1c0,2.1-1.6,3.7-3.7,3.8l-21.8,0.2
    c-2.1,0-3.7-1.6-3.8-3.7"/>
  <path class="st6" d="M278.7,338.3l3.1,0c2.1,0,3.7,1.6,3.8,3.7l0.1,6.1c0,2.1-1.6,3.7-3.7,3.8l-21.8,0.2c-2.1,0-3.7-1.6-3.8-3.7
    l-0.1-6.1c0-2.1,1.6-3.7,3.7-3.8l13.6-0.1"/>
  <path class="st6" d="M291.7,341.9c0-2.1,1.6-3.7,3.7-3.8l21.8-0.2c2.1,0,3.7,1.6,3.8,3.7l0.1,6.1c0,2.1-1.6,3.7-3.7,3.8l-21.8,0.2
    c-2.1,0-3.7-1.6-3.8-3.7"/>
  <path class="st6" d="M350.6,337.5l2.1,0c2.1,0,3.7,1.6,3.8,3.7l0.1,6.1c0,2.1-1.6,3.7-3.7,3.8l-21.8,0.2c-2.1,0-3.7-1.6-3.8-3.7
    l-0.1-6.1c0-2.1,1.6-3.7,3.7-3.8l14.9-0.1"/>
  <path class="st6" d="M391.8,333.5l0.1,13.4c0,2.1-1.6,3.7-3.7,3.8l-21.8,0.2c-2.1,0-3.7-1.6-3.8-3.7l-0.3-25.9
    c0-2.1,1.6-3.7,3.7-3.8l21.8-0.2c2.1,0,3.7,1.6,3.8,3.7l0.1,6.5"/>
  <path class="st6" d="M411.5,148.8c1.3,1.7,2,3.7,2,6l2,195.2c0,2.7-1,5.2-2.8,7.1"/>
  <path class="st6" d="M429.6,166.8l-0.1-12.2c-0.1-5.6-4.7-10.1-10.2-10l0.1,7.3"/>
  <path class="st6" d="M420.7,297.1l0.6,63c5.6-0.1,10.1-4.7,10-10.2l-0.5-47.9"/>
  <path class="st6" d="M214.4,183c-0.1-6.6-0.2-10.7-0.2-10.7l18.3-0.3"/>
  <path class="st6" d="M215.2,227.9c0-2.4-0.1-4.8-0.1-7.2"/>
  <path class="st6" d="M229.3,289.6c-4.8-1-13.1-4.5-13.2-16.3c0-1.4-0.1-4.1-0.1-7.5"/>
  <polyline class="st6" points="218.4,167.1 218.3,155.7 227.8,155.6 227.9,166.8   "/>
  <path class="st6" d="M214.2,261.3l2,0c1.5,0,2.7-1.3,2.7-2.8l-0.4-23.7c0-1.5-1.3-2.7-2.8-2.7l-2,0l0.3,25.2"/>
  <path class="st6" d="M213.4,216.8l2,0c1.5,0,2.7-1.3,2.7-2.8l-0.4-23.7c0-1.5-1.3-2.7-2.8-2.7l-2,0l0.3,24.9"/>
  <line class="st6" x1="335.3" y1="256.4" x2="310.4" y2="256.7"/>
  <polyline class="st6" points="430.1,171.3 425,173.9 424.9,165.5   "/>
  <path class="st6" d="M418.9,290.3l16.9,8c2.4,1.1,4.4,0.4,4.4-1.6l-1.3-126c0-2.1-2-2.7-4.4-1.5l0-4.6"/>
  <line class="st6" x1="419.6" y1="158.6" x2="419.6" y2="158.1"/>
  <line class="st6" x1="419.7" y1="166.5" x2="419.6" y2="162.8"/>
  <polyline class="st6" points="418.2,177.2 419.8,176.5 419.7,170.9   "/>
  <g>
    <path class="st7" d="M236.4,91.3c-19.7,21.4-10.2,51.2-10.1,59.8"/>
    <path class="st6" d="M300.1,140.7c-1.2-6.2-0.5-15.5,2.5-30c2.4-11.4,8.4-30.3-4.3-37.8c-12.3-7.2-33-3.7-54.4,11.8
      c-1.3,0.9-2.5,1.9-3.7,2.9"/>
    <path class="st7" d="M310.5,105.8c-5.5,18.7-5.4,29-4.1,34.6"/>
    <path class="st6" d="M292,63.4c19.4,3.9,24.7,18.3,19.8,37.7"/>
    <path class="st7" d="M251.3,72.6c13.7-7.7,26.8-11,37.5-9.7"/>
    <path class="st6" d="M220,151.7c-0.1-8.9-12-48.9,20.3-72.1c2.5-1.8,5-3.5,7.5-5"/>
  </g>
  <line class="st6" x1="434.4" y1="160.3" x2="434.3" y2="159.6"/>
  <line class="st6" x1="424.8" y1="161.3" x2="424.8" y2="160.8"/>
  <g>
    <circle class="st8" cx="257.2" cy="155.3" r="2.8"/>
    <circle class="st8" cx="301" cy="154.8" r="2.8"/>
    <circle class="st8" cx="344.8" cy="154.4" r="2.8"/>
    <circle class="st8" cx="388.6" cy="153.9" r="2.8"/>
    <g>
      <line class="st8" x1="266" y1="153.1" x2="263.3" y2="157.4"/>
      <line class="st8" x1="270.7" y1="153" x2="268" y2="157.3"/>
      <line class="st8" x1="275.4" y1="153" x2="272.7" y2="157.3"/>
      <line class="st8" x1="280.1" y1="152.9" x2="277.4" y2="157.2"/>
      <line class="st8" x1="284.8" y1="152.9" x2="282.1" y2="157.2"/>
      <line class="st8" x1="289.5" y1="152.9" x2="286.8" y2="157.1"/>
      <line class="st8" x1="294.2" y1="152.8" x2="291.5" y2="157.1"/>
    </g>
    <g>
      <line class="st8" x1="310.3" y1="152.6" x2="307.5" y2="156.9"/>
      <line class="st8" x1="315" y1="152.6" x2="312.2" y2="156.9"/>
      <line class="st8" x1="319.7" y1="152.5" x2="316.9" y2="156.8"/>
      <line class="st8" x1="324.4" y1="152.5" x2="321.6" y2="156.8"/>
      <line class="st8" x1="329.1" y1="152.5" x2="326.3" y2="156.7"/>
      <line class="st8" x1="333.8" y1="152.4" x2="331" y2="156.7"/>
      <line class="st8" x1="338.5" y1="152.4" x2="335.7" y2="156.6"/>
    </g>
    <g>
      <line class="st8" x1="354.5" y1="152.2" x2="351.8" y2="156.5"/>
      <line class="st8" x1="359.2" y1="152.1" x2="356.5" y2="156.4"/>
      <line class="st8" x1="363.9" y1="152.1" x2="361.2" y2="156.4"/>
      <line class="st8" x1="368.6" y1="152.1" x2="365.9" y2="156.3"/>
      <line class="st8" x1="373.3" y1="152" x2="370.6" y2="156.3"/>
      <line class="st8" x1="378" y1="152" x2="375.3" y2="156.2"/>
      <line class="st8" x1="382.7" y1="151.9" x2="380" y2="156.2"/>
    </g>
  </g>
</g>
<g>
  <path class="st2" d="M875.3,510.9l-88.1,0.7c-0.5,0-1-0.4-1-1l-0.5-65.2c0-0.5,0.4-1,1-1l88.1-0.7c0.5,0,1,0.4,1,1l0.5,65.2
    C876.3,510.4,875.8,510.9,875.3,510.9z"/>
  <path class="st0" d="M827.5,593.2c-2.7,0-5.4,0-8.1,0"/>
  <path class="st0" d="M852.4,599.8c4.3,0,8.7,0,13,0"/>
  <path class="st0" d="M792.8,632c-1.7,0-3.2-1.6-3.4-3.5c-0.2-1.9-0.4-3.9-0.6-5.8"/>
  <g>
    <path class="st0" d="M800.7,557.3c-4.3,0-8.7,0-13,0c-2.1,0-3.9-1.6-4.1-3.5c-0.2-1.9-0.4-3.9-0.6-5.8c-0.2-1.9,1.4-3.5,3.5-3.5
      c6.2,0,12.3,0,18.5,0c2.1,0,3.9,1.6,4,3.5c0.1,1.9,0.2,3.9,0.3,5.8c0.1,1.9-1.5,3.5-3.6,3.5"/>
    <path class="st0" d="M826,544.5c4.7,0,8.7,0,13.4,0c2.1,0,3.8,1.6,3.8,3.5l-0.1,2.2c0,1.2-0.1,2.5-0.1,3.7
      c-0.1,1.9-1.8,3.5-3.8,3.5c-6,0-12,0-18,0c-2.1,0-3.8-1.6-3.9-3.5c-0.1-1.9-0.1-3.9-0.2-5.8c-0.1-1.9,1.6-3.5,3.8-3.5"/>
    <path class="st0" d="M851.2,550.9c0-1,0.1-2,0.1-2.9c0.1-1.9,1.9-3.5,4-3.5c6.2,0,12.3,0,18.5,0c2.1,0,3.7,1.6,3.5,3.5
      c-0.2,1.9-0.4,3.9-0.6,5.8c-0.2,1.9-2.1,3.5-4.1,3.5c-6,0-12,0-18,0c-1.3,0-2.4-0.6-3-1.5"/>
    <path class="st0" d="M806.8,576.7c-5.7,0-11.4,0-17.1,0c-2,0-3.7-1.6-4-3.5c-0.2-1.9-0.4-3.9-0.6-5.8c-0.2-1.9,1.3-3.5,3.3-3.5
      c5.9,0,11.8,0,17.7,0c2,0,3.8,1.6,3.9,3.5c0.1,1.9,0.2,3.9,0.3,5.8"/>
    <path class="st0" d="M839,563.9c2,0,3.7,1.6,3.6,3.5c-0.1,1.9-0.1,3.9-0.2,5.8c-0.1,1.9-1.7,3.5-3.7,3.5c-5.7,0-11.4,0-17.1,0
      c-2,0-3.6-1.6-3.7-3.5c-0.1-1.9-0.1-3.9-0.2-5.8c-0.1-1.9,1.5-3.5,3.6-3.5c3.8,0,7.6,0,11.3,0"/>
    <path class="st0" d="M875.1,568.9c-0.2,1.4-0.3,2.8-0.5,4.2c-0.2,1.9-2,3.5-4,3.5c-5.7,0-11.4,0-17.1,0c-2,0-3.5-1.6-3.4-3.5
      c0.1-1.9,0.2-3.9,0.3-5.8c0.1-1.9,1.8-3.5,3.9-3.5c5.9,0,11.8,0,17.7,0"/>
    <path class="st0" d="M787.2,586.7c-0.2-1.9,1.2-3.5,3.1-3.5c5.6,0,11.2,0,16.9,0c1.9,0,3.6,1.6,3.7,3.5c0.1,1.9,0.2,3.9,0.3,5.8
      c0.1,1.9-1.4,3.5-3.2,3.5c-5.4,0-10.9,0-16.3,0c-1.9,0-3.6-1.6-3.8-3.5c-0.1-0.6-0.1-0.8-0.1-1.2"/>
    <path class="st0" d="M819.6,595c-0.6-0.6-1-1.5-1.1-2.4c-0.1-1.9-0.1-3.9-0.2-5.8c-0.1-1.9,1.5-3.5,3.4-3.5c5.6,0,11.2,0,16.9,0
      c1.9,0,3.5,1.6,3.4,3.5c-0.1,1.9-0.1,3.9-0.2,5.8c-0.1,1.9-1.6,3.5-3.5,3.5"/>
    <path class="st0" d="M866,583.1c1.4,0,2.8,0,4.1,0c1.9,0,3.4,1.6,3.1,3.5c-0.2,1.9-0.4,3.9-0.6,5.8c-0.2,1.9-1.9,3.5-3.8,3.5
      c-5.4,0-10.9,0-16.3,0c-1.9,0-3.3-1.6-3.2-3.5c0.1-1.9,0.2-3.9,0.3-5.8c0.1-1.9,1.7-3.5,3.7-3.5c1.5,0,5,0,6.5,0"/>
    <path class="st0" d="M811.9,606c0.1,1.9,0.2,3.9,0.3,5.8c0.1,1.9-1.3,3.5-3.1,3.5c-5.2,0-10.3,0-15.5,0c-1.8,0-3.4-1.6-3.6-3.5
      c-0.2-1.9-0.4-3.9-0.6-5.8c-0.2-1.9,1.1-3.5,3-3.5c5.3,0,10.7,0,16,0"/>
    <path class="st0" d="M819.9,613.9c-0.4-0.6-0.7-1.3-0.7-2c-0.1-1.9-0.1-3.9-0.2-5.8c-0.1-1.9,1.4-3.5,3.2-3.5c5.3,0,10.7,0,16,0
      c1.8,0,3.3,1.6,3.3,3.5c-0.1,1.9-0.1,3.9-0.2,5.8c-0.1,1.9-1.6,3.5-3.3,3.5c-3.1,0-10.3,0-13.5,0"/>
    <path class="st0" d="M870.4,603.5c0.5,0.6,0.8,1.5,0.7,2.4c-0.2,1.9-0.4,3.9-0.6,5.8c-0.2,1.9-1.8,3.5-3.6,3.5
      c-5.2,0-10.3,0-15.5,0c-1.8,0-3.2-1.6-3.1-3.5c0.1-1.9,0.2-3.9,0.3-5.8c0.1-1.2,0.7-2.2,1.6-2.9"/>
    <path class="st0" d="M794.3,622c5.1,0,10.1,0,15.2,0c1.8,0,3.3,1.6,3.4,3.5c0.1,1.9,0.2,3.9,0.3,5.8c0.1,1.9-1.2,3.5-2.9,3.5
      c-3.6,0-7.2,0-10.8,0"/>
    <path class="st0" d="M835.1,621.9c0.9,0,1.9,0,2.8,0c1.8,0,3.1,1.6,3.1,3.5c-0.1,1.9-0.1,3.9-0.2,5.8c-0.1,1.9-1.5,3.5-3.2,3.5
      c-4.9,0-9.8,0-14.7,0c-1.7,0-3.1-1.6-3.2-3.5c-0.1-1.9-0.1-3.9-0.2-5.8c-0.1-1.9,1.3-3.5,3.1-3.5c1.8,0,3.6,0,5.4,0"/>
    <path class="st3" d="M868.4,631.1c-0.2,1.9-1.8,3.5-3.4,3.5c-4.9,0-9.8,0-14.7,0c-1.7,0-3-1.6-2.9-3.5c0.1-1.9,0.2-3.9,0.3-5.8
      c0.1-1.9,1.6-3.5,3.3-3.5c5.1,0,10.1,0,15.2,0c1.8,0,3,1.6,2.8,3.5"/>
  </g>
  <path class="st9" d="M826.9,407.1"/>
  <path class="st9" d="M768.4,473.2c-0.5-18.8-0.9-33.1-0.9-38.5c0-20.6,2.5-24.2,12.1-26.8c9.5-2.6,22.6-3.9,22.6-3.9l5.9,3.1l6.3,0
    "/>
  <path class="st7" d="M771.7,567c-1.2-29-2.4-62.3-3.1-88.5"/>
  <path class="st9" d="M868.7,643.2c-13.3,6.9-35.4,6-40.4,6l-2.1,0c-6.9,0-47.1,1.9-50.4-17.9l0,0c-1.2-6.9-2.5-30.2-3.8-58.6"/>
  <path class="st9" d="M880.4,608.9c-0.6,10.7-1.3,18.6-1.8,22.2c-0.8,4.6-3.5,8-7.3,10.6"/>
  <path class="st9" d="M886.2,437.7c-0.2,23.7-2.9,119.5-5.6,167.5"/>
  <path class="st7" d="M870.8,407c1.1,0.3,2.3,0.5,3.3,0.8c8.8,2.4,11.7,5.6,12.1,22.4"/>
  <path class="st9" d="M821.1,407.2l24.4,0l5.9-3.1c0,0,5.7,0.6,12.4,1.7"/>
  <polyline class="st9" points="807.2,439.7 782.4,439.7 782.4,447.4   "/>
  <line class="st7" x1="850.7" y1="439.6" x2="814.5" y2="439.7"/>
  <polyline class="st9" points="782.4,455 782.5,507.5 872.2,507.3 872.1,439.6 856.8,439.6   "/>
  <line class="st9" x1="872.2" y1="518.5" x2="782.5" y2="518.7"/>
  <line class="st7" x1="851.3" y1="525.7" x2="803.4" y2="525.8"/>
  <line class="st9" x1="834.9" y1="640.8" x2="820.3" y2="640.8"/>
  <g>
    <g>
      <path class="st9" d="M797.9,554.6c-4.3,0-8.7,0-13,0c-2.1,0-3.9-1.6-4.1-3.5c-0.2-1.9-0.4-3.9-0.6-5.8c-0.2-1.9,1.4-3.5,3.5-3.5
        c6.2,0,12.3,0,18.5,0c2.1,0,3.9,1.6,4,3.5c0.1,1.9,0.2,3.9,0.3,5.8c0.1,1.9-1.5,3.5-3.6,3.5"/>
      <path class="st9" d="M840.3,547.4c0,1.2-0.1,2.5-0.1,3.7c-0.1,1.9-1.8,3.5-3.8,3.5c-6,0-12,0-18,0c-2.1,0-3.8-1.6-3.9-3.5
        c-0.1-1.9-0.1-3.9-0.2-5.8c-0.1-1.9,1.6-3.5,3.8-3.5"/>
      <path class="st9" d="M823.3,541.8c4.7,0,8.7,0,13.4,0c2.1,0,3.8,1.6,3.8,3.5"/>
      <path class="st9" d="M848.5,548.2c0-1,0.1-2,0.1-2.9c0.1-1.9,1.9-3.5,4-3.5c6.2,0,12.3,0,18.5,0c2.1,0,3.7,1.6,3.5,3.5
        c-0.2,1.9-0.4,3.9-0.6,5.8c-0.2,1.9-2.1,3.5-4.1,3.5c-6,0-12,0-18,0c-1.3,0-2.4-0.6-3-1.5"/>
    </g>
    <g>
      <path class="st9" d="M804.1,573.9c-5.7,0-11.4,0-17.1,0c-2,0-3.7-1.6-4-3.5c-0.2-1.9-0.4-3.9-0.6-5.8c-0.2-1.9,1.3-3.5,3.3-3.5
        c5.9,0,11.8,0,17.7,0c2,0,3.8,1.6,3.9,3.5c0.1,1.9,0.2,3.9,0.3,5.8"/>
      <path class="st9" d="M836.3,561.1c2,0,3.7,1.6,3.6,3.5c-0.1,1.9-0.1,3.9-0.2,5.8c-0.1,1.9-1.7,3.5-3.7,3.5c-5.7,0-11.4,0-17.1,0
        c-2,0-3.6-1.6-3.7-3.5c-0.1-1.9-0.1-3.9-0.2-5.8c-0.1-1.9,1.5-3.5,3.6-3.5c3.8,0,7.6,0,11.3,0"/>
      <path class="st9" d="M872.4,566.1c-0.2,1.4-0.3,2.8-0.5,4.2c-0.2,1.9-2,3.5-4,3.5c-5.7,0-11.4,0-17.1,0c-2,0-3.5-1.6-3.4-3.5
        c0.1-1.9,0.2-3.9,0.3-5.8c0.1-1.9,1.8-3.5,3.9-3.5c5.9,0,11.8,0,17.7,0"/>
    </g>
    <g>
      <path class="st9" d="M784.5,584c-0.2-1.9,1.2-3.5,3.1-3.5c5.6,0,11.2,0,16.9,0c1.9,0,3.6,1.6,3.7,3.5c0.1,1.9,0.2,3.9,0.3,5.8
        c0.1,1.9-1.4,3.5-3.2,3.5c-5.4,0-10.9,0-16.3,0c-1.9,0-3.6-1.6-3.8-3.5c-0.1-0.6-0.1-0.8-0.1-1.2"/>
      <path class="st9" d="M816.9,592.2c-0.6-0.6-1-1.5-1.1-2.4c-0.1-1.9-0.1-3.9-0.2-5.8c-0.1-1.9,1.5-3.5,3.4-3.5
        c5.6,0,11.2,0,16.9,0c1.9,0,3.5,1.6,3.4,3.5c-0.1,1.9-0.1,3.9-0.2,5.8c-0.1,1.9-1.6,3.5-3.5,3.5"/>
      <path class="st9" d="M827.5,593.2c-2.7,0-5.4,0-8.1,0"/>
      <path class="st9" d="M863.2,580.4c1.4,0,2.8,0,4.1,0c1.9,0,3.4,1.6,3.1,3.5c-0.2,1.9-0.4,3.9-0.6,5.8c-0.2,1.9-1.9,3.5-3.8,3.5
        c-5.4,0-10.9,0-16.3,0c-1.9,0-3.3-1.6-3.2-3.5c0.1-1.9,0.2-3.9,0.3-5.8c0.1-1.9,1.7-3.5,3.7-3.5c1.5,0,5,0,6.5,0"/>
    </g>
    <g>
      <path class="st9" d="M809.1,603.3c0.1,1.9,0.2,3.9,0.3,5.8c0.1,1.9-1.3,3.5-3.1,3.5c-5.2,0-10.3,0-15.5,0c-1.8,0-3.4-1.6-3.6-3.5
        c-0.2-1.9-0.4-3.9-0.6-5.8c-0.2-1.9,1.1-3.5,3-3.5c5.3,0,10.7,0,16,0"/>
      <path class="st9" d="M817.1,611.2c-0.4-0.6-0.7-1.3-0.7-2c-0.1-1.9-0.1-3.9-0.2-5.8c-0.1-1.9,1.4-3.5,3.2-3.5c5.3,0,10.7,0,16,0
        c1.8,0,3.3,1.6,3.3,3.5c-0.1,1.9-0.1,3.9-0.2,5.8c-0.1,1.9-1.6,3.5-3.3,3.5c-3.1,0-10.3,0-13.5,0"/>
      <path class="st9" d="M867.7,600.8c0.5,0.6,0.8,1.5,0.7,2.4c-0.2,1.9-0.4,3.9-0.6,5.8c-0.2,1.9-1.8,3.5-3.6,3.5
        c-5.2,0-10.3,0-15.5,0c-1.8,0-3.2-1.6-3.1-3.5c0.1-1.9,0.2-3.9,0.3-5.8c0.1-1.2,0.7-2.2,1.6-2.9"/>
      <path class="st9" d="M852.4,599.8c4.3,0,8.7,0,13,0"/>
    </g>
    <g>
      <path class="st9" d="M792.8,632c-1.7,0-3.2-1.6-3.4-3.5c-0.2-1.9-0.4-3.9-0.6-5.8"/>
      <path class="st9" d="M791.5,619.2c5.1,0,10.1,0,15.2,0c1.8,0,3.3,1.6,3.4,3.5c0.1,1.9,0.2,3.9,0.3,5.8c0.1,1.9-1.2,3.5-2.9,3.5
        c-3.6,0-7.2,0-10.8,0"/>
      <path class="st9" d="M832.3,619.1c0.9,0,1.9,0,2.8,0c1.8,0,3.1,1.6,3.1,3.5c-0.1,1.9-0.1,3.9-0.2,5.8c-0.1,1.9-1.5,3.5-3.2,3.5
        c-4.9,0-9.8,0-14.7,0c-1.7,0-3.1-1.6-3.2-3.5c-0.1-1.9-0.1-3.9-0.2-5.8c-0.1-1.9,1.3-3.5,3.1-3.5c1.8,0,3.6,0,5.4,0"/>
      <path class="st9" d="M865.7,628.4c-0.2,1.9-1.8,3.5-3.4,3.5c-4.9,0-9.8,0-14.7,0c-1.7,0-3-1.6-2.9-3.5c0.1-1.9,0.2-3.9,0.3-5.8
        c0.1-1.9,1.6-3.5,3.3-3.5c5.1,0,10.1,0,15.2,0c1.8,0,3,1.6,2.8,3.5"/>
    </g>
  </g>
  <line class="st9" x1="800.2" y1="422.1" x2="805.6" y2="422.1"/>
  <line class="st9" x1="864.8" y1="429.7" x2="864.8" y2="425.1"/>
</g>
<g>
  <line class="st6" x1="475.3" y1="614.1" x2="350.6" y2="614.1"/>
  <polyline class="st6" points="606.4,502.7 606.4,614.1 603.5,614.1   "/>
  <line class="st7" x1="371.7" y1="471.3" x2="436" y2="471.3"/>
  <polyline class="st6" points="470.5,626.8 339.5,626.8 339.5,614.1 339.5,471.3 365,471.3   "/>
  <path class="st6" d="M620.2,537v83.5c0,3.5-2.8,6.3-6.3,6.3h-1.7"/>
  <path class="st6" d="M332.6,626.8c-3.5,0-6.3-2.8-6.3-6.3V465.3c0-3.5,2.8-6.3,6.3-6.3h121.1"/>
  <path class="st6" d="M444.8,628v17.5c0,5.7-2.2,11-5.8,15"/>
  <path class="st6" d="M457.2,661h-25.3c-5.4,0-10.2,3-12.7,7.5"/>
</g>
<line class="st7" x1="598.1" y1="487.2" x2="598.1" y2="548"/>
<polyline class="st6" points="598.1,553.5 598.1,594.1 415,594.1 415,481.8 598.1,481.8 "/>
<g>
  <circle class="st8" cx="425.2" cy="491.7" r="2.5"/>
  <circle class="st8" cx="433.5" cy="491.7" r="2.5"/>
  <circle class="st8" cx="441.9" cy="491.7" r="2.5"/>
</g>
<line class="st6" x1="421.9" y1="500.4" x2="589.9" y2="500.4"/>
<g>
  <polyline class="st6" points="407.8,532.1 350.6,532.1 350.6,494.3 407.4,494.3   "/>
  <g>
    <line class="st8" x1="377.1" y1="510.1" x2="406.2" y2="510.1"/>
    <line class="st8" x1="377.1" y1="504.6" x2="397.8" y2="504.6"/>
    <polyline class="st6" points="367.2,510.1 358.2,510.1 358.2,501.2 367.2,501.2 367.2,504.8     "/>
    <line class="st8" x1="377.1" y1="525.2" x2="406.2" y2="525.1"/>
    <line class="st8" x1="377.1" y1="519.7" x2="397.9" y2="519.6"/>
    <polyline class="st6" points="358.3,525.2 358.3,516.3 367.2,516.2 367.2,525.2 364.3,525.2     "/>
  </g>
</g>
<line class="st8" x1="408.4" y1="587.3" x2="379.2" y2="587.3"/>
<line class="st8" x1="395.2" y1="592.9" x2="379.2" y2="592.8"/>
<line class="st8" x1="408.4" y1="581.8" x2="387.6" y2="581.8"/>
<polyline class="st6" points="407.8,542.9 359.9,542.9 359.9,572.7 367.8,572.7 367.8,581.2 374,577.8 "/>
<line class="st6" x1="378.9" y1="572.7" x2="407.8" y2="572.7"/>
<path class="st6" d="M406.1,558.6c0-2.3-1.8-4.1-4.1-4.1c-2.3,0-4.1,1.8-4.1,4.1s1.8,4.1,4.1,4.1"/>
<line class="st8" x1="391.2" y1="556.2" x2="370.9" y2="556.2"/>
<line class="st8" x1="391.2" y1="561" x2="379.2" y2="561"/>
<g>
  <path class="st6" d="M437.1,571.2c0-6.2,5-11.2,11.2-11.2c6.2,0,11.2,5,11.2,11.2h-16"/>
  <line class="st6" x1="448.3" y1="571.2" x2="451.1" y2="566.4"/>
</g>
<g>
  <path class="st6" d="M470.4,571.2c0-6.2,5-11.2,11.2-11.2s11.2,5,11.2,11.2h-16"/>
  <line class="st6" x1="481.6" y1="571.2" x2="484.4" y2="566.4"/>
</g>
<line class="st6" x1="494.3" y1="578.3" x2="426.7" y2="578.3"/>
<line class="st8" x1="494.3" y1="585.4" x2="426.7" y2="585.4"/>
<polyline class="st6" points="606.4,496.7 606.4,471.3 441.3,471.3 "/>
<line class="st7" x1="568.7" y1="459" x2="459.2" y2="459"/>
<path class="st6" d="M620.2,531.1v-65.8c0-3.5-2.8-6.3-6.3-6.3h-37.6"/>
<g>
  <path class="st6" d="M187,644.8l-86.1,0.4c-1.6,0-2.9-1.3-2.9-2.9L97.4,504c0-1.6,1.3-2.9,2.9-2.9L131,501"/>
  <path class="st7" d="M254.5,620.5l0.1,21.2c0,1.6-1.3,2.9-2.9,2.9l-57.6,0.3"/>
  <line class="st6" x1="254.3" y1="583.7" x2="254.4" y2="613.5"/>
  <line class="st7" x1="254.1" y1="544.8" x2="254.3" y2="578.2"/>
  <path class="st6" d="M219.8,500.6l31.2-0.1c1.6,0,2.9,1.3,2.9,2.9l0.2,35.7"/>
  <line class="st6" x1="129.3" y1="553.9" x2="222.5" y2="553.4"/>
  <path class="st6" d="M212.5,545.8l-0.4-84.9c0-1.6-1.3-2.9-2.9-2.9l-67.6,0.3c-1.6,0-2.9,1.3-2.9,2.9l0.4,84.9"/>
  <line class="st7" x1="158.7" y1="468.9" x2="144.4" y2="469"/>
  <line class="st7" x1="163.8" y1="475.6" x2="145.6" y2="475.7"/>
  <line class="st6" x1="172.9" y1="482.3" x2="147.4" y2="482.4"/>
  <line class="st8" x1="184.4" y1="489" x2="146.8" y2="489.2"/>
  <line class="st8" x1="170.2" y1="496.8" x2="146.8" y2="496.9"/>
  <line class="st8" x1="201.3" y1="496.6" x2="174.7" y2="496.7"/>
  <line class="st8" x1="173.7" y1="504.3" x2="146.8" y2="504.4"/>
  <g>
    <g>
      <path class="st10" d="M156.5,541c-1.4-2.5-5.9-11-2.1-13.2c1-0.6,6.7-0.4,7.4,0.1c2.7,2.2,0.1,4.5-0.7,6.3c-2,4.6,0.9,7,5.6,6.9
        c2.7,0,4.7-1,7-2.2c0.6-0.6,1.3-1,2.1-1.1c0.8-0.6,1.4-0.3,1.7,0.6c1,0.6,1.4,1.6,2.6,2.1c2.7,1.2,6.4,1,9.3,0.9
        c2.3-0.1,7-0.1,8.9-1.5c1.4-1.1,1.5-2.8,0-3.9c0,0-0.1-0.1-0.1-0.1c-0.7-0.5-2.2-0.4-2.7,0.4c0,0,0,0.1-0.1,0.1
        c-1.8,2.2,1.4,5.4,3.2,3.2c0,0,0-0.1,0.1-0.1c-0.9,0.1-1.8,0.2-2.7,0.4c0,0,0.1,0.1,0.1,0.1c0-1.3,0-2.6,0-3.9
        c-1.8,1.3-6.3,0.9-8.5,0.9c-3.4,0-4.9-0.7-7.6-2.6c-2.1-1.5-3.7-2-6.1-0.9c-2,0.9-3.3,2.5-5.6,3c-5,1-2.1-1.5-1.2-3.6
        c1-2.4,1.4-5.2-0.4-7.4c-3.1-3.6-13-3.8-16.4-0.6c-4.5,4.3,0.2,14,2.5,18.3C154,545.8,157.9,543.5,156.5,541L156.5,541z"/>
    </g>
  </g>
</g>
<g>
  <g>
    <path class="st3" d="M547.7,608.9c-10.4,1-21-0.2-31.4,0.7c-10.4,0.9-21.3,4.2-28.1,12.2c-3.3,4-5.4,8.8-7.3,13.6
      c-15.1,36.8-26.4,75.1-33.7,114.2c-0.1,0.7-0.3,1.5,0,2.1c0.3,0.9,1.2,1.4,2,1.8c3.9,2.2,7.9,4.1,12,5.6c4,1.5,8.3,2.8,11.6,5.6
      c2.4,2,4.1,4.7,6.5,6.6c3,2.4,6.8,3.6,10.5,4.6c26.1,7,53.4,9.7,80.3,7.7c15-1.1,30.5-3.8,43-12.3c8.7-5.9,16.3-14.7,26.7-15.8
      c1.6-0.2,3.4-0.3,4.2-1.6c0.5-0.8,0.5-1.9,0.4-2.9c-1.2-10.4-6.1-20.1-8.3-30.3c-2.1-9.9-1.7-20.1-3.4-30.1
      c-1.9-11-6.3-21.3-10.8-31.5c-3.9-8.9-7.7-17.8-11.6-26.8c-2.6-6.1-5.5-12.5-10.6-16.7c-5.1-4.2-11.9-5.8-18.4-6.5
      c-9.5-1-18.7-2.7-28-0.7"/>
  </g>
  <path class="st6" d="M453.2,674"/>
  <line class="st7" x1="275.5" y1="674" x2="230.4" y2="674"/>
  <line class="st6" x1="450.1" y1="674" x2="286.8" y2="674"/>
  <polyline class="st6" points="629.9,674 666.3,674 690.1,674   "/>
  <line class="st6" x1="778" y1="674" x2="703.5" y2="674"/>
  <line class="st6" x1="770.3" y1="896.3" x2="705.5" y2="687.8"/>
  <line class="st6" x1="640" y1="844.3" x2="688.9" y2="687.8"/>
  <line class="st6" x1="744.1" y1="856.3" x2="650.2" y2="856.3"/>
  <line class="st11" x1="686.5" y1="837" x2="654" y2="837"/>
  <polyline class="st6" points="401.6,685.1 401.6,908.8 213.4,908.8   "/>
  <line class="st6" x1="252.5" y1="897.8" x2="252.5" y2="687.8"/>
  <line class="st6" x1="340.1" y1="845.3" x2="269.1" y2="845.3"/>
  <line class="st8" x1="385.1" y1="845.3" x2="352.6" y2="845.3"/>
  <line class="st8" x1="305.9" y1="754.1" x2="269.1" y2="754.1"/>
  <line class="st6" x1="385.1" y1="754.1" x2="320.2" y2="754.1"/>
  <line class="st6" x1="385.1" y1="718.2" x2="269.1" y2="718.2"/>
  <line class="st6" x1="385.1" y1="687.8" x2="269.1" y2="687.8"/>
  <path class="st6" d="M552.2,606.1c18.2,0,35.4,0.7,46.9,12.4c13.3,13.5,27.6,67,30.3,84.9c2.7,18,8.5,36.3,10.2,44.5
    c1.2,6.1-19.7,7.3-26.2,14.8c-6.5,7.6-24.5,16.9-70.8,16.9h-2.7c-46.3,0-64.3-9.3-70.8-16.9s-27.5-8.8-26.2-14.8
    c1.7-8.3,7.5-26.6,10.2-44.5c2.7-18,17-71.5,30.3-84.9s34-12.4,55.1-12.4"/>
  <polyline class="st6" points="442.9,880.7 433.2,907.6 416.8,907.6   "/>
  <line class="st7" x1="477.4" y1="785.7" x2="446" y2="872.2"/>
  <line class="st7" x1="478.6" y1="907.6" x2="572.7" y2="907.6"/>
  <line class="st6" x1="489.8" y1="785.7" x2="445.6" y2="907.6"/>
  <polyline class="st6" points="605.8,785.7 650,907.6 689.7,907.6   "/>
  <polyline class="st6" points="593.4,785.7 637.6,907.6 588.2,907.6   "/>
  <line class="st6" x1="476" y1="846.3" x2="575.1" y2="787.4"/>
  <line class="st6" x1="536.9" y1="795.3" x2="523.6" y2="787.4"/>
  <line class="st6" x1="599.9" y1="833" x2="561" y2="809.7"/>
  <path class="st8" d="M482.9,739.4c0,0,43.8,19,118.8,0"/>
</g>
<line class="st6" x1="703" y1="907.6" x2="796.9" y2="907.6"/>
<path class="st8" d="M209.6,609.4c-16.7,13.9-38.4,26.4-64.6,29.2"/>
<path class="st6" d="M248.5,563.9c0,0-11.8,21.1-33.7,41"/>
<path class="st6" d="M210.8,628.4c-5.7,4.4-12.1,8.5-19.4,11.9"/>
<path class="st8" d="M248.2,577.6c0,0-8.8,26.2-33,47.2"/>
<rect x="656" y="467.6" class="st12" width="35" height="35"/>
<polyline class="st5" points="680.1,485.1 680.1,478.5 666.9,478.5 680.1,491.7 666.9,491.7 666.9,485.1 "/>
<g>
  <line class="st12" x1="659.2" y1="467.1" x2="659.2" y2="465.2"/>
  <line class="st12" x1="668.8" y1="467.1" x2="668.8" y2="465.2"/>
  <line class="st12" x1="678.3" y1="467.1" x2="678.3" y2="465.2"/>
  <line class="st12" x1="687.8" y1="467.1" x2="687.8" y2="465.2"/>
</g>
<g>
  <line class="st12" x1="659.2" y1="504.9" x2="659.2" y2="503.1"/>
  <line class="st12" x1="668.8" y1="504.9" x2="668.8" y2="503.1"/>
  <line class="st12" x1="678.3" y1="504.9" x2="678.3" y2="503.1"/>
  <line class="st12" x1="687.8" y1="504.9" x2="687.8" y2="503.1"/>
</g>
<g>
  <line class="st12" x1="691.5" y1="470.8" x2="693.4" y2="470.8"/>
  <line class="st12" x1="691.5" y1="480.3" x2="693.4" y2="480.3"/>
  <line class="st12" x1="691.5" y1="489.8" x2="693.4" y2="489.8"/>
  <line class="st12" x1="691.5" y1="499.3" x2="693.4" y2="499.3"/>
</g>
<g>
  <line class="st12" x1="653.7" y1="470.8" x2="655.5" y2="470.8"/>
  <line class="st12" x1="651.6" y1="480.3" x2="655.5" y2="480.3"/>
  <line class="st12" x1="644.7" y1="489.8" x2="655.5" y2="489.8"/>
  <line class="st12" x1="653.7" y1="499.3" x2="655.5" y2="499.3"/>
</g>
<line class="st12" x1="627.8" y1="480.3" x2="646.5" y2="480.3"/>
<line class="st12" x1="639.6" y1="489.8" x2="627.8" y2="489.8"/>
<line class="st5" x1="635.5" y1="484.9" x2="650.8" y2="484.9"/>
<g>
  <circle class="st3" cx="727" cy="524" r="4.9"/>
  <path class="st8" d="M733.4,525.1c-1,1.2-2.4,1.9-4.1,1.9c-2.9,0-5.3-2.4-5.3-5.3s2.4-5.3,5.3-5.3c1.5,0,2.8,0.6,3.7,1.5"/>
</g>
<g>
  <circle class="st3" cx="613" cy="408.6" r="4.9"/>
  <path class="st8" d="M619.9,408.8c0.6,1.4,0.5,3.1-0.3,4.5c-1.4,2.5-4.6,3.4-7.2,2s-3.4-4.6-2-7.2c0.7-1.3,1.9-2.1,3.2-2.5"/>
</g>
<g>
  <circle class="st3" cx="323.1" cy="401" r="4.9"/>
  <path class="st8" d="M324.1,393.3c1.5-0.4,3.1-0.1,4.4,0.9c2.3,1.8,2.8,5.1,1,7.4s-5.1,2.8-7.4,1c-1.2-0.9-1.9-2.1-2-3.5"/>
</g>
<g>
  <circle class="st3" cx="294.6" cy="562.1" r="4.9"/>
  <path class="st8" d="M288.9,558.6c1.3-0.9,2.9-1.2,4.4-0.7c2.8,0.8,4.4,3.7,3.6,6.5c-0.8,2.8-3.7,4.4-6.5,3.6
    c-1.4-0.4-2.5-1.3-3.1-2.5"/>
</g>
<g>
  <path class="st6" d="M690.1,674c4.7,0,8.6-3.9,8.6-8.6v-30.3h-38.9v30.3c0,0.9,0.1,1.8,0.4,2.7"/>
  <line class="st6" x1="666.3" y1="659.7" x2="671.6" y2="659.7"/>
  <path class="st6" d="M674.6,634.1c0-17.8,11.3-37.1,37.2-37.1c5.5,0,10,1.3,13.6,3.7"/>
  <path class="st6" d="M682,634.1c0-17.6,27.1-45,54.3-45"/>
  <path class="st6" d="M691.2,602.4c0,0-4.2-7.3,6.3-13.3C697.5,589.1,702.2,597.2,691.2,602.4z"/>
  <path class="st6" d="M684.1,624.8c0,0,2.6-6,13-4.5c0,0-2.6,11.7-13.9,6.7"/>
  <path class="st6" d="M707.8,600.1c0,0,0.8,8.1,11.9,8.6c0,0-0.1-9.5-11.3-10.9"/>
  <path class="st6" d="M721.5,591c0,0,8.8-3,5.5-13.4c0,0-8.9,2.5-7,13.3"/>
</g>
<g>
  <path class="st7" d="M729.3,510.5v-42.2c0-5.5,4.5-10,10-10h21.3"/>
</g>
<g>
  <path class="st7" d="M626,560.7h93.3c5.5,0,10-4.5,10-10v-20.5"/>
</g>
<g>
  <path class="st7" d="M624.7,411.3c0,0,3.4,0,7.5,0s7.5-4.5,7.5-10V372"/>
</g>
<g>
  <path class="st7" d="M582.7,448v-26.7c0-5.5,4.5-10,10-10h16"/>
</g>
<g>
  <path class="st7" d="M292,573.1v17.5c0,5.5-4.5,10-10,10h-16.3"/>
</g>
<g>
  <path class="st7" d="M316.7,530.2H302c-5.5,0-10,4.5-10,10v16.8"/>
</g>
<g>
  <path class="st7" d="M315,398.5h-13c-5.5,0-10-4.5-10-10V377"/>
</g>
<g>
  <path class="st7" d="M361.5,449.5v-41c0-5.5-4.5-10-10-10h-21"/>
</g>
<g>
  <circle class="st2" cx="462.9" cy="522.6" r="3.3"/>
  <circle class="st3" cx="479.8" cy="543" r="5.7"/>
  <g>
    <g>
      <path class="st7" d="M467.1,508.9c9.1,2.6,15.8,11,15.8,20.9c0,1.6-0.2,3.1-0.5,4.6"/>
      <path class="st6" d="M468.6,550.2c-2.3,0.8-4.8,1.3-7.4,1.3c-12,0-21.7-9.7-21.7-21.7c0-12,9.7-21.7,21.7-21.7"/>
      <path class="st6" d="M470.6,519.3c2.9,0.8,5.1,3.4,5.1,6.6c0,3.8-3,6.8-6.8,6.8c-2.7,0-5.1-1.6-6.2-3.9"/>
      <path class="st6" d="M459.3,520.3c0-1.9,1.5-3.4,3.4-3.4c1.9,0,3.4,1.5,3.4,3.4c0,1.9-1.5,3.4-3.4,3.4"/>
      <path class="st6" d="M477.7,550.2c-3.2,0-5.7-2.6-5.7-5.7c0-3.2,2.6-5.7,5.7-5.7c3.2,0,5.7,2.6,5.7,5.7"/>
    </g>
  </g>
</g>
<path class="st2" d="M521.7,525.7h-8.3c-0.3,0-0.5,0.2-0.5,0.5v8.7c0,0.3,0.2,0.5,0.5,0.5h8.3c0.3,0,0.5-0.2,0.5-0.5v-8.7
  C522.2,525.9,522,525.7,521.7,525.7z"/>
<path class="st2" d="M535,521.1h-8.3c-0.3,0-0.5,0.2-0.5,0.5v13.3c0,0.3,0.2,0.5,0.5,0.5h8.3c0.3,0,0.5-0.2,0.5-0.5v-13.3
  C535.5,521.3,535.3,521.1,535,521.1z"/>
<path class="st2" d="M548.3,530h-8.3c-0.3,0-0.5,0.2-0.5,0.5v4.3c0,0.3,0.2,0.5,0.5,0.5h8.3c0.3,0,0.5-0.2,0.5-0.5v-4.3
  C548.8,530.2,548.5,530,548.3,530z"/>
<path class="st2" d="M561.5,512.3h-8.3c-0.3,0-0.5,0.2-0.5,0.5v22c0,0.3,0.2,0.5,0.5,0.5h8.3c0.3,0,0.5-0.2,0.5-0.5v-22
  C562,512.6,561.8,512.3,561.5,512.3z"/>
<path class="st2" d="M574.8,519.7h-8.3c-0.3,0-0.5,0.2-0.5,0.5v14.7c0,0.3,0.2,0.5,0.5,0.5h8.3c0.3,0,0.5-0.2,0.5-0.5v-14.7
  C575.3,519.9,575.1,519.7,574.8,519.7z"/>
<path class="st2" d="M588.1,525h-8.3c-0.3,0-0.5,0.2-0.5,0.5v9.4c0,0.3,0.2,0.5,0.5,0.5h8.3c0.3,0,0.5-0.2,0.5-0.5v-9.4
  C588.6,525.2,588.4,525,588.1,525z"/>
<path class="st6" d="M534.2,538.3c23.4,0,54.8,0,54.8,0"/>
<path class="st7" d="M509.4,538.3c0.2,0,8.6,0,19.8,0"/>
<polyline class="st6" points="519.6,532.2 519.6,524.1 511.3,524.1 511.3,532.2 "/>
<polyline class="st6" points="532.9,532.2 532.9,518.8 524.6,518.8 524.6,532.2 "/>
<polyline class="st6" points="546.2,532.2 546.2,529.3 537.9,529.3 537.9,532.2 "/>
<polyline class="st6" points="559.5,532.2 559.5,508.9 551.1,508.9 551.1,532.2 "/>
<polyline class="st6" points="572.7,532.2 572.7,517.2 564.4,517.2 564.4,532.2 "/>
<polyline class="st6" points="586,532.2 586,523.3 577.7,523.3 577.7,532.2 "/>
<polyline class="st6" points="519.6,543.5 519.6,548.8 511.3,548.8 511.3,543.5 "/>
<polyline class="st6" points="532.9,543.5 532.9,557.8 524.6,557.8 524.6,543.5 "/>
<polyline class="st6" points="546.2,543.5 546.2,563.8 537.9,563.8 537.9,543.5 "/>
<polyline class="st6" points="559.5,543.5 559.5,546.1 551.1,546.1 551.1,543.5 "/>
<polyline class="st6" points="572.7,543.5 572.7,556.3 564.4,556.3 564.4,543.5 "/>
<polyline class="st6" points="586,543.5 586,567.7 577.7,567.7 577.7,543.5 "/>
<path class="st6" d="M509.6,581.5c2.8-2.7,6.9-4.3,10.7-3.6c3.6,0.7,6.6,3.4,10.3,3.9c3.5,0.5,7-1.2,10.3-2.4c3.2-1.2,6.6-2,10-2.5
  c2-0.3,4.1-0.4,5.9,0.3c2.2,0.9,3.8,2.8,5.9,3.6c4.9,1.9,10.2-2.4,15.4-1.8c1.6,0.2,3.1,0.8,4.6,1c1.7,0.2,3.4-0.2,4.9-1"/>
<g>
  <polyline class="st13" points="690.7,851.3 692.9,835 718.4,835  "/>
  <path class="st13" d="M712.2,782.9c0,0-2.5,7.1-0.8,8s2.6,3.9,0.4,5.2s-4.1,24.4-3.9,27.5s-0.7-4.6,4.4-5.6c5.1-1.1,6.9-0.5,6.5-6
    s-2.3-19.5-1.4-22.3c0.9-2.8,1.2-11.9-4.6-10.4"/>
  <path class="st13" d="M692.8,772.1c0,0-2.9,2.9-0.8,4.6s3.6,1.3,1.9,4.4s-1.2,5.4,0.5,5.3c1.7-0.1,4.3-0.4,1.7,4
    c-2.6,4.5-2.5,10.2-0.7,9c1.8-1.2-2.1,4.6,0.3,8.8s-1.3,5.9,0.2,9.7s-2.6,4.8-0.6,6.5c2,1.7,1.7,3.9,1.1,5.3"/>
  <path class="st13" d="M696,773.6c0,0,2.9-2.5,1.8-5s2.9,4.1,2.3,5.6c-0.5,1.5,1.4,7.7,8,5.5"/>
  <path class="st13" d="M718,821.1c0,0-1.4,4.2,0.1,5.5c1.5,1.3,0.3,3.5,0.2,3.8"/>
  <line class="st14" x1="691.7" y1="747.7" x2="691.7" y2="756.2"/>
  <path class="st13" d="M687.9,745.1c0,0,3.6-1.7,7.8,0"/>
  <path class="st11" d="M691.8,740.8c0,0-2.2-1.7,1.9-3.1"/>
  <path class="st13" d="M695.1,751.3c0,0,0.8,4.6,0.1,6.2c-0.7,1.7,0.5,5,1.5,6.6"/>
  <path class="st13" d="M691.4,760.3c0,0-1,4.2,1.5,8.5"/>
  <path class="st13" d="M703.1,770.1c0,0,2.3-3.3,7.4-0.6c0.8-0.7,1-1.5,1-1.5s-3.4-6.6-10.3-1.3"/>
  <path class="st13" d="M723.5,795.5c-1.4,2.4-2.5,4.5-2.8,6.8"/>
  <path class="st13" d="M721.1,787.9l1.2-1.8l6.1,2.6c0,0-0.2,0.2-0.8,1.1"/>
  <path class="st13" d="M724.8,792.4c0,0,4.5,0.4,1.5,5.5"/>
  <line class="st11" x1="719.8" y1="838.9" x2="724" y2="851.9"/>
  <line class="st13" x1="700.8" y1="762.9" x2="699.4" y2="761.8"/>
  <line class="st13" x1="706.1" y1="760.8" x2="706.1" y2="758.2"/>
  <line class="st13" x1="711.2" y1="762.2" x2="713.1" y2="760.5"/>
  <line class="st13" x1="714.3" y1="764.6" x2="716.4" y2="764"/>
  <line class="st13" x1="715.2" y1="768.7" x2="717.1" y2="768.7"/>
  <line class="st13" x1="710.5" y1="773.3" x2="710.5" y2="775.7"/>
  <path class="st14" d="M707.4,785.9c0,0-4.4,4.4-3.8,13.4c0.5,8.9,0.9,11.6-2.9,14.7"/>
  <path class="st13" d="M704.2,817c0,0-6.2,10.8-2.5,11.5c3.8,0.7,4.3,0.7,3.8,1.4"/>
</g>
<line class="st13" x1="742.5" y1="837" x2="726.1" y2="837"/>
</svg>
