<?xml version="1.0" encoding="utf-8"?>
<!-- Generator: Adobe Illustrator 22.1.0, SVG Export Plug-In . SVG Version: 6.00 Build 0)  -->
<svg version="1.1" id="Layer_1" xmlns="http://www.w3.org/2000/svg" xmlns:xlink="http://www.w3.org/1999/xlink" x="0px" y="0px"
   viewBox="0 0 1000 1000" style="enable-background:new 0 0 1000 1000;" xml:space="preserve">
<style type="text/css">
  .st0{fill:#E3EAF6;}
  .st1{fill:#FFE8C0;}
  .st2{fill:#FFFFFF;}
  .st3{fill:#ADE6DC;}
  .st4{fill:#5C7DB1;}
  .st5{fill:none;stroke:#5C7DB1;stroke-width:4;stroke-linecap:round;stroke-linejoin:round;stroke-miterlimit:10;}

    .st6{fill:none;stroke:#5C7DB1;stroke-width:3.9961;stroke-linecap:round;stroke-linejoin:round;stroke-miterlimit:10;stroke-dasharray:0.999,4.9951;}

    .st7{fill:none;stroke:#5C7DB1;stroke-width:1.998;stroke-linecap:round;stroke-linejoin:round;stroke-miterlimit:10;stroke-dasharray:2.9971,2.9971,0.999;}
  .st8{fill:none;stroke:#5C7DB1;stroke-width:3.3287;stroke-linecap:round;stroke-linejoin:round;stroke-miterlimit:10;}
  .st9{fill:none;stroke:#E3EAF6;stroke-width:4;stroke-linecap:round;stroke-linejoin:round;stroke-miterlimit:10;}

    .st10{fill:none;stroke:#E3EAF6;stroke-width:3.9961;stroke-linecap:round;stroke-linejoin:round;stroke-miterlimit:10;stroke-dasharray:0.999,4.9951;}

    .st11{fill:none;stroke:#E3EAF6;stroke-width:1.998;stroke-linecap:round;stroke-linejoin:round;stroke-miterlimit:10;stroke-dasharray:2.9971,2.9971,0.999;}
</style>
<g>
  <path class="st0" d="M715,808c-51.3,1.9-246.8-10.9-366.1-41.9c-52.3-13.6-104.6-30.9-148.8-61.9c-44.2-31.1-79.7-77.8-86.7-131.4
    c-5.1-39.4,5.4-79.3,20.3-116.2c47.2-116.6,143.9-215,264-252.5s261.6-8.3,349,82.3c28.5,29.6,50.9,64.6,69.2,101.4
    c28.3,56.9,47.3,119.1,50.4,182.6s-10.1,128.4-42.1,183.3C804.4,787.5,766.3,806.1,715,808z"/>
</g>
<path class="st1" d="M285.4,650.6h-7.5c-0.5,0-1-0.5-1-1v-30.4c0-0.5,0.5-1,1-1h7.5c0.5,0,1,0.5,1,1v30.4
  C286.4,650.2,285.9,650.6,285.4,650.6z"/>
<circle class="st2" cx="388.8" cy="698.2" r="6.2"/>
<g>
  <path class="st2" d="M614.1,778.2c5-13.2,9.9-26.6,11.9-40.6c1.2-8.6,1.3-17.6,5.2-25.3c1.4-2.7,3.3-5.3,5.9-7
    c2.2-1.4,4.8-2.1,7.4-2.7c3.9-0.8,7.9-1.3,11.8-0.5c8.8,1.9,15,10.2,17.4,18.8c2.5,8.6,2.1,17.8,2.6,26.8c0.3,4.6,0.8,9.3,0.4,13.9
    s-1.8,9.3-4.9,12.8c-3.7,4.1-9.3,5.9-14.8,6c-5.5,0.1-10.9-1.3-16.2-2.7c-3.4-1-6.9-2-10.4-2.1c-5-0.2-9.9,1.5-14.6,3.1"/>
</g>
<path class="st3" d="M605.5,613H402.8c-1.6,0-3-1.3-3-3v-2.2c0-1.7,1.4-3,3-3h202.8c1.7,0,3,1.3,3,3v2.2
  C608.5,611.7,607.2,613,605.5,613z"/>
<g>
  <path class="st4" d="M537.7,641.5c-25.9-0.5-51.8-0.1-77.7,0.9c8.1-6.2,17.7-10.4,27.8-12c-0.9,0.7-1.9,1.4-2.5,2.4
    c-0.5,1-0.5,2.5,0.4,3.2c0.6,0.5,1.4,0.5,2.2,0.6c3.3,0,6.6-0.4,9.9,0c3,0.3,5.9,1.3,8.8,1.6c3.5,0.3,7.1-0.4,10.6-0.5
    c3.6-0.1,7.2,0.5,10.8,1.2c2.7,0.5,5.4,0.9,8.1,1.4"/>
</g>
<g>
  <path class="st3" d="M421.2,703.2c-0.7-10.8-0.2-21.6,0.3-32.4c0.1-2.2,0.2-4.4,1.3-6.3c2-3.4,6.8-4.4,10.4-2.7
    c3.5,1.7,5.8,5.4,6.4,9.3c-2.4,0.3-4.9-0.7-7.2,0.2c-2,0.8-3.1,3-3.4,5.2s0.1,4.3,0.3,6.5c0.5,7.3-2,14.7-6.9,20.2"/>
</g>
<g>
  <path class="st3" d="M565.7,703.2c-0.7-10.8-0.2-21.6,0.3-32.4c0.1-2.2,0.2-4.4,1.3-6.3c2-3.4,6.8-4.4,10.4-2.7
    c3.5,1.7,5.8,5.4,6.4,9.3c-2.4,0.3-4.9-0.7-7.2,0.2c-2,0.8-3.1,3-3.4,5.2s0.1,4.3,0.3,6.5c0.5,7.3-2,14.7-6.9,20.2"/>
</g>
<g>
  <path class="st3" d="M414.9,884.7c-0.7-14.1-0.2-61.8,0.3-75.9c0.1-2.8,0.2-5.8,1.3-8.2c2-4.4,6.8-5.7,10.4-3.5
    c3.5,2.2,5.8,7.1,6.4,12.2c-2.4,0.4-4.9-1-7.2,0.2c-2,1.1-3.1,4-3.4,6.8s0.1,5.7,0.3,8.5c0.5,9.5-2,52.8-6.9,59.9"/>
</g>
<g>
  <path class="st3" d="M474.4,890.1c-1.7-16.8-0.5-51.3,0.7-68.1c0.2-3.4,0.5-6.9,3-9.8c4.5-5.3,15.4-6.8,23.3-4.2
    c8,2.6,13,8.5,14.4,14.5c-5.4,0.5-11.1-1.2-16.1,0.2c-4.5,1.3-7,4.7-7.6,8.1s0.3,6.7,0.7,10.1c1.2,11.3-4.5,40.6-15.5,49"/>
</g>
<g>
  <path class="st3" d="M559.2,885.5c-0.7-14.1-0.2-61.8,0.3-75.9c0.1-2.8,0.2-5.8,1.3-8.2c2-4.4,6.8-5.7,10.4-3.5s5.8,7.1,6.4,12.2
    c-2.4,0.4-4.9-1-7.2,0.2c-2,1.1-3.1,4-3.4,6.8s0.1,5.7,0.3,8.5c0.5,9.5-2,52.8-6.9,59.9"/>
</g>
<polyline class="st3" points="750.7,445.9 776.4,448.1 775.5,458.8 738.2,455.7 739.1,444.9 746.3,445.5 "/>
<g>
  <g>
    <path class="st4" d="M779.8,332.4c-11.8-0.9-23.5-1.8-35.3-2.7c-0.6,0-1.3-0.1-1.9,0.2c-1,0.5-1.2,1.8-1.4,2.9
      c-1.3,11.3-2.7,22.7-2.3,34.1c0,0.2,0,0.4,0.1,0.5c0.1,0.2,0.4,0.3,0.7,0.3c12.5,1.6,25.1,2.5,37.6,2.9c0.8-3.6,0.7-7.4,0.7-11.1
      c0-9,0.5-17.9,1.5-26.8"/>
  </g>
  <g>
    <path class="st3" d="M746,369.8c-0.1,0.9-0.2,1.8-0.3,2.7c0,0.3,0,0.7,0.2,0.9c0.2,0.2,0.4,0.2,0.6,0.2c9.5,1,19.1,1.8,28.7,2.2
      c0.3-1.3,0.3-2.6-0.1-3.8c-0.1-0.3-0.2-0.6-0.4-0.7c-0.2-0.1-0.5-0.2-0.7-0.2c-9.1-0.5-18.2-1-27.4-1.5"/>
  </g>
  <g>
    <path class="st4" d="M748.1,375.8c-0.1,0.9-0.2,1.8-0.2,2.7c0,0.3,0,0.7,0.1,0.9c0.1,0.1,0.3,0.2,0.4,0.2c6.3,0.8,12.6,1.4,19,1.6
      c0.2-1.3,0.2-2.6,0-3.8c0-0.3-0.1-0.6-0.3-0.7c-0.1-0.1-0.3-0.2-0.5-0.2c-6-0.3-12.1-0.6-18.1-0.9"/>
  </g>
  <g>
    <path class="st2" d="M757.8,346.5c-1.3-0.4-2.7-0.6-4.1-0.7c0.5-1.7,1.1-3.4,2.2-4.7s2.9-2.2,4.6-1.9c-0.4,2.1,1.6,4.3,3.8,4.3
      c2.2,0,4-2.1,4.1-4.3c1.4,0.3,2.9,0.6,4,1.5c1.9,1.5,2.2,4.2,2.4,6.6c-1.2,0.5-2.9-0.4-3.7,0.7c-0.2,0.3-0.3,0.6-0.3,1
      c-0.9,5.7-0.1,11.7,2.2,17c-2,0.2-4,0-5.9-0.2c-4.7-0.4-9.4-0.8-14.1-1.2c2.5-2,3.9-5.2,4.4-8.4c0.5-3.2,0.3-6.4,0-9.7"/>
  </g>
</g>
<g>
  <path class="st3" d="M638.2,452.8c0.2,3.8,0.4,7.5-0.1,11.3c2.9,0.5,5.9,0.5,8.9,0.4c2.2-0.1,4.4-0.3,6.6-0.1
    c0.7,0.1,1.3,0.2,2,0.3c0-2.7,0.2-5.3,0.7-7.9c0.1-0.5,0.2-1,0.5-1.3c1.1-1.4,3.5-0.1,5.1-0.8c-0.1-3.3-0.4-7-2.9-9.2
    c-1.5-1.3-3.5-1.8-5.4-2.2c-0.1,3-2.7,5.7-5.7,5.6c-3,0-5.6-3.1-5-6c-2.3-0.5-4.8,0.6-6.4,2.4c-1.6,1.8-2.5,4.1-3.2,6.4
    c1.9,0.1,3.8,0.5,5.6,1.1L638.2,452.8z"/>
</g>
<g>
  <path class="st3" d="M650.3,330.6c-1.8-0.6-3.7-0.9-5.6-1.1c0.7-2.3,1.6-4.6,3.2-6.4s4.1-2.9,6.4-2.4c-0.6,2.9,2,5.9,5,6
    c3,0,5.6-2.7,5.7-5.6c1.9,0.4,3.9,0.9,5.4,2.2c2.5,2.2,2.8,5.9,2.9,9.2c-1.6,0.7-4-0.6-5.1,0.8c-0.3,0.4-0.4,0.9-0.5,1.3
    c-1.5,7.8-0.7,15.9,2.3,23.2c-2.7,0.2-5.4-0.2-8.1-0.5c-6.4-0.8-12.8-1.5-19.1-2.3c3.5-2.7,5.5-6.9,6.4-11.2s0.6-8.8,0.4-13.2"/>
</g>
<g>
  <path class="st4" d="M639.3,393.5c-1.8-0.6-3.7-0.9-5.6-1.1c0.7-2.3,1.6-4.6,3.2-6.4s4.1-2.9,6.4-2.4c-0.6,2.9,2,5.9,5,6
    c3,0,5.6-2.7,5.7-5.6c1.9,0.4,3.9,0.9,5.4,2.2c2.5,2.2,2.8,5.9,2.9,9.2c-1.6,0.7-4-0.6-5.1,0.8c-0.3,0.4-0.4,0.9-0.5,1.3
    c-1.5,7.8-0.7,15.9,2.3,23.2c-2.7,0.2-5.4-0.2-8.1-0.5c-6.4-0.8-12.8-1.5-19.1-2.3c3.5-2.7,5.5-6.9,6.4-11.2
    c0.8-4.3,0.6-8.8,0.4-13.2"/>
</g>
<path class="st4" d="M590.9,140.8H413.7c-7.7,0-14,6.3-14,14v95c0,7.7,6.3,14,14,14h177.2c7.7,0,14-6.3,14-14v-95
  C604.9,147.1,598.6,140.8,590.9,140.8z M458.5,189.1c0,1.6-1.3,3-3,3h-36c-1.7,0-3-1.4-3-3v-19.9c0-1.7,1.3-3,3-3h36
  c1.7,0,3,1.3,3,3V189.1z"/>
<g>
  <g>
    <path class="st4" d="M218,426.2c-5.5,0.6-7.7,0.9-13.1,1.5c-1.9,0.2-3.8-1.1-4.2-2.9c-0.4-1.8-0.8-3.7-1.2-5.5
      c-0.4-1.8,0.9-3.5,2.8-3.7c5.6-0.6,11.3-1.3,16.9-1.9c1.9-0.2,3.8,1.1,4.1,2.9c0.3,1.9,0.6,3.7,0.9,5.6"/>
    <path class="st4" d="M250.8,410.2c1.9-0.2,3.7,1.1,3.8,2.9c0.2,1.9,0.3,3.7,0.5,5.6c0.1,1.8-1.3,3.5-3.2,3.7
      c-5.5,0.6-10.9,1.2-16.4,1.8c-1.9,0.2-3.6-1.1-3.9-2.9c-0.3-1.9-0.5-3.7-0.8-5.6c-0.3-1.8,1.1-3.5,3.1-3.7
      c3.6-0.4,7.2-0.8,10.9-1.2"/>
    <path class="st4" d="M285.9,411.2c0,1.4,0,2.7,0,4.1c0,1.8-1.5,3.5-3.4,3.7c-5.5,0.6-10.9,1.2-16.4,1.8c-1.9,0.2-3.5-1.1-3.6-3
      c-0.1-1.9-0.2-3.8-0.3-5.6c-0.1-1.8,1.4-3.5,3.3-3.7c5.6-0.6,7.7-0.9,13.4-1.5"/>
  </g>
  <g>
    <path class="st4" d="M203.8,439.3c-0.4-1.8,0.8-3.4,2.6-3.7c5.4-0.6,10.8-1.2,16.1-1.8c1.9-0.2,3.6,1.1,3.9,2.9
      c0.3,1.9,0.6,3.7,0.9,5.6c0.3,1.8-0.9,3.5-2.7,3.7c-5.2,0.6-10.4,1.2-15.6,1.7c-1.2,0.1-2.5-0.4-3.2-1.4"/>
    <path class="st4" d="M245.9,443.6c-2.6,0.3-5.2,0.6-7.8,0.9c-1.8,0.2-3.5-1.1-3.7-2.9c-0.3-1.9-0.5-3.7-0.8-5.6
      c-0.3-1.8,1-3.5,2.9-3.7c5.4-0.6,10.8-1.2,16.1-1.8c1.9-0.2,3.5,1.1,3.6,3c0.2,1.9,0.3,3.7,0.5,5.6c0.1,1.8-1.2,3.5-3,3.7"/>
    <path class="st4" d="M278.8,427.6c1.3-0.1,2.6-0.3,4-0.4c1.9-0.2,3.4,1.1,3.4,3c0,1.9,0,3.8,0,5.7c0,1.8-1.5,3.5-3.3,3.7
      c-5.2,0.6-10.4,1.2-15.6,1.7c-1.8,0.2-3.4-1.1-3.5-3c-0.1-1.9-0.2-3.8-0.3-5.6c-0.1-1.8,1.3-3.5,3.2-3.7c1.4-0.2,2.6-0.3,4.1-0.5"
      />
  </g>
  <g>
    <path class="st4" d="M229.6,456.9c0.3,1.9,0.6,3.7,0.9,5.6c0.3,1.8-0.9,3.5-2.6,3.6c-4.9,0.6-9.9,1.1-14.8,1.7
      c-1.7,0.2-3.4-1.1-3.8-2.9c-0.4-1.8-0.8-3.7-1.2-5.5c-0.4-1.8,0.7-3.4,2.5-3.6c5.1-0.6,6-0.7,11.1-1.2"/>
    <path class="st4" d="M238.1,463.6c-0.4-0.5-0.8-1.1-0.9-1.9c-0.3-1.9-0.5-3.7-0.8-5.6c-0.3-1.8,1-3.5,2.7-3.7
      c5.1-0.6,10.2-1.1,15.4-1.7c1.8-0.2,3.3,1.1,3.5,3c0.2,1.9,0.3,3.7,0.5,5.6c0.1,1.8-1.1,3.5-2.8,3.7c-3,0.3-6.1,0.7-9.1,1"/>
    <path class="st4" d="M273.8,448.6c4.2-0.5,5.2-0.6,9.4-1c1.8-0.2,3.2,1.2,3.2,3c0,1.9,0,3.8,0,5.7c0,1.8-1.4,3.5-3.1,3.7
      c-4.9,0.6-9.9,1.1-14.8,1.7c-1.7,0.2-3.2-1.2-3.3-3c-0.1-1.9-0.2-3.8-0.3-5.6c-0.1-1.1,0.4-2.2,1.2-2.9"/>
  </g>
  <path class="st4" d="M218.3,475.3c4.9-0.5,6.1-0.7,10.9-1.2c1.7-0.2,3.3,1.1,3.6,3c0.3,1.9,0.6,3.7,0.9,5.6
    c0.3,1.8-0.8,3.4-2.4,3.6c-4.7,0.5-9.4,1-14,1.6c-1.6,0.2-3.3-1.1-3.7-2.9c-0.4-1.8-0.8-3.7-1.2-5.5"/>
  <path class="st4" d="M253.7,471.4c0.9-0.1,1.8-0.2,2.7-0.3c1.7-0.2,3.2,1.2,3.3,3c0.2,1.9,0.3,3.7,0.5,5.6c0.1,1.8-1.1,3.5-2.7,3.7
    c-4.7,0.5-9.4,1-14,1.6c-1.6,0.2-3.1-1.2-3.4-3c-0.3-1.9-0.5-3.7-0.8-5.6c-0.3-1.8,0.9-3.5,2.6-3.6c1.7-0.2,3.4-0.4,5.1-0.6"/>
  <path class="st4" d="M286.1,478.7c-0.5,0.9-1.4,1.6-2.4,1.7c-4.7,0.5-9.4,1-14.1,1.6c-1.6,0.2-3-1.2-3.1-3
    c-0.1-1.9-0.2-3.8-0.3-5.6c-0.1-1.8,1.2-3.5,2.8-3.7c4.9-0.5,9.7-1.1,14.6-1.6c1.7-0.2,3,1.2,3,3"/>
</g>
<polyline class="st5" points="388.4,223.1 396.8,223.1 396.8,207.3 "/>
<polyline class="st5" points="379.9,189.3 396.8,189.3 396.8,173 388.4,173 "/>
<line class="st6" x1="463.7" y1="137.5" x2="533" y2="137.5"/>
<path class="st5" d="M396.8,156.8v-7c0-6.8,5.6-12.3,12.3-12.3h13.1H458"/>
<path class="st5" d="M550,258.6H409.1c-6.8,0-12.3-5.6-12.3-12.3v-10.5"/>
<path class="st6" d="M600.9,229.7v16.6c0,6.8-5.6,12.3-12.3,12.3h-31.2"/>
<path class="st5" d="M538.3,137.5h50.2c6.8,0,12.3,5.6,12.3,12.3v74.9"/>
<line class="st7" x1="420.1" y1="229.4" x2="454.5" y2="229.4"/>
<line class="st7" x1="420.1" y1="235.8" x2="445" y2="235.8"/>
<line class="st6" x1="552.4" y1="229.4" x2="587.4" y2="229.4"/>
<line class="st7" x1="386.6" y1="235.8" x2="365.6" y2="235.8"/>
<line class="st7" x1="388.1" y1="156.8" x2="366.3" y2="156.8"/>
<line class="st6" x1="397.7" y1="200.6" x2="365.9" y2="200.6"/>
<path class="st1" d="M835.7,616.8c0-7.2-5.9-13-13.1-13l-25.7,0.1l-18.1,0l-43.6,0.1c-7.2,0-13,5.9-13,13.1l0.1,66.9
  c0,7.2,5.9,13,13.1,13l55.4-0.1l11.3,0l20.7,0c7.2,0,13-5.9,13-13.1L835.7,616.8z M780.5,663.7c0,3.4-2.7,6.1-6.1,6.1
  c-3.4,0-6.1-2.7-6.1-6.1l0-6.9l0-12c-1.6-1.6-2.5-3.7-2.5-6.1c0-4.8,3.8-8.6,8.6-8.7s8.6,3.8,8.7,8.6c0,2.4-1,4.5-2.5,6.1
  L780.5,663.7z"/>
<path class="st5" d="M783.8,693.3l-55.4,0.1c-7.2,0-13.1-5.8-13.1-13l-0.1-66.9c0-7.2,5.8-13.1,13-13.1l43.6-0.1l18.1,0l25.7-0.1
  c7.2,0,13.1,5.8,13.1,13l0.1,66.9c0,7.2-5.8,13.1-13,13.1l-20.7,0"/>
<path class="st5" d="M766,654.9l0,6.9c0,3.4,2.7,6.1,6.1,6.1c3.4,0,6.1-2.7,6.1-6.1l0-18.9c1.6-1.6,2.5-3.7,2.5-6.1
  c0-4.8-3.9-8.6-8.7-8.6c-4.8,0-8.6,3.9-8.6,8.7c0,2.4,1,4.5,2.5,6.1"/>
<path class="st5" d="M730.4,589.9c-0.1-24.5,18.5-44.4,41.5-44.5s41.6,19.8,41.7,44.3"/>
<path class="st6" d="M745,589.8c0-17.5,12-31.7,26.9-31.8c14.9,0,27,14.1,27,31.6"/>
<g>
  <g>
    <polyline class="st5" points="434.1,610.4 396.8,610.4 396.8,601.8 603.2,601.8 603.2,610.4     "/>
    <line class="st5" x1="535.6" y1="610.4" x2="439.8" y2="610.4"/>
    <line class="st6" x1="594.2" y1="610.4" x2="541.8" y2="610.4"/>
    <line class="st5" x1="595.4" y1="724.8" x2="595.4" y2="616.5"/>
    <line class="st5" x1="404.6" y1="616.5" x2="404.6" y2="724.8"/>
    <line class="st5" x1="547.9" y1="679.6" x2="547.9" y2="616.5"/>
    <line class="st5" x1="547.9" y1="724.8" x2="547.9" y2="686.2"/>
    <line class="st5" x1="452.1" y1="616.5" x2="452.1" y2="724.8"/>
    <line class="st5" x1="595.4" y1="868" x2="595.4" y2="759.5"/>
    <line class="st5" x1="404.6" y1="759.5" x2="404.6" y2="870.5"/>
    <line class="st5" x1="547.9" y1="772.6" x2="547.9" y2="759.5"/>
    <line class="st5" x1="547.9" y1="888.9" x2="547.9" y2="789.8"/>
    <line class="st5" x1="452.1" y1="759.5" x2="452.1" y2="888.9"/>
    <line class="st5" x1="505.7" y1="730.9" x2="603.2" y2="730.9"/>
    <line class="st5" x1="421" y1="730.9" x2="499.6" y2="730.9"/>
    <polyline class="st5" points="603.2,750.9 396.8,750.9 396.8,730.9 412.4,730.9     "/>
    <line class="st5" x1="603.2" y1="737.3" x2="603.2" y2="750.9"/>
    <line class="st7" x1="430.2" y1="737.3" x2="430.2" y2="744.1"/>
    <line class="st5" x1="459.3" y1="737.3" x2="459.3" y2="744.1"/>
    <line class="st7" x1="537.1" y1="737.3" x2="537.1" y2="744.1"/>
    <line class="st5" x1="566.1" y1="737.3" x2="566.1" y2="744.1"/>
    <line class="st5" x1="436" y1="708.7" x2="436" y2="722.3"/>
    <path class="st5" d="M418,692.4v-23.7c0-5,4-9,9-9s9,4,9,9v23.7"/>
    <line class="st5" x1="418" y1="722.3" x2="418" y2="708.7"/>
    <line class="st5" x1="580.6" y1="708.1" x2="580.6" y2="722.3"/>
    <path class="st5" d="M562.6,693.9v-25.2c0-5,4-9,9-9c5,0,9,4,9,9v25.2"/>
    <line class="st5" x1="562.6" y1="722.3" x2="562.6" y2="707.2"/>
    <path class="st5" d="M418,879.5v-72.2c0-5,4-9,9-9s9,4,9,9v80.4"/>
    <line class="st6" x1="517.2" y1="834" x2="517.2" y2="890.8"/>
    <path class="st5" d="M477.1,882v-52.7c0-11.1,9-20.1,20.1-20.1s20.1,9,20.1,20.1"/>
    <path class="st5" d="M562.6,887.8v-80.4c0-5,4-9,9-9c5,0,9,4,9,9V879"/>
    <g>
      <line class="st7" x1="484.3" y1="713.8" x2="484.3" y2="722.3"/>
      <line class="st5" x1="466.2" y1="722.3" x2="466.2" y2="713.6"/>
      <line class="st5" x1="509" y1="714" x2="509" y2="722.3"/>
      <line class="st5" x1="491" y1="722.3" x2="491" y2="714"/>
      <line class="st5" x1="533.8" y1="713.4" x2="533.8" y2="722.3"/>
      <line class="st7" x1="515.7" y1="722.3" x2="515.7" y2="713.8"/>
    </g>
    <line class="st6" x1="588.2" y1="640.7" x2="557.1" y2="640.7"/>
    <line class="st5" x1="586.8" y1="631.9" x2="569.4" y2="631.9"/>
    <line class="st5" x1="443.9" y1="640.7" x2="412.8" y2="640.7"/>
    <line class="st5" x1="433.8" y1="631.9" x2="425.1" y2="631.9"/>
    <path class="st5" d="M538.9,640.9h-79.6c0,0,5.9-14.1,39.8-14.1c16.1,0,25.9,3.2,31.8,6.6"/>
    <line class="st6" x1="462.3" y1="783.3" x2="585.2" y2="783.3"/>
    <line class="st5" x1="412.8" y1="783.3" x2="442.7" y2="783.3"/>
    <path class="st6" d="M418,772.9c1.7,0,18,0,18,0"/>
    <path class="st5" d="M569.1,772.9c1.7,0,18,0,18,0"/>
  </g>
  <line class="st6" x1="418" y1="701.7" x2="445.8" y2="701.7"/>
  <line class="st5" x1="556.7" y1="701.7" x2="584.5" y2="701.7"/>
  <g>
    <polyline class="st5" points="460,663.6 460,702.1 540.2,702.1 540.2,663.6 468,663.6     "/>
    <path class="st6" d="M540.2,657.4c0,0-17.9-6.3-40.1-6.3c-22.1,0-40.1,6.3-40.1,6.3"/>
  </g>
</g>
<path class="st5" d="M735.8,707.2c-0.5,8.1-1.4,15.9-5.9,20.4c-9.9,9.9-34.9,2.6-45.9,11.1c-11,8.5-10.5,34.5-22.6,41.5
  c-12,7-34.3-6.5-47.3-1.1c-4.1,1.7-7.5,5.5-10.8,9.9"/>
<path class="st5" d="M821.7,506c-6.8,9.4-18.3,18.3-19.6,27.9"/>
<path class="st5" d="M614.1,208c13,5.4,35.2-8.1,47.3-1.1c12.1,7,11.5,33,22.6,41.5c11.1,8.5,36.1,1.2,45.9,11.1
  c1,1,1.8,2.2,2.5,3.5"/>
<path class="st5" d="M278.3,253.9c10.6-0.9,22.6-0.2,29.4-5.4c11-8.5,10.5-34.5,22.6-41.5c9.8-5.7,26.4,2.2,39.2,2.4"/>
<path class="st5" d="M200.9,601.5c-9.5-7-22.4-12.8-24.9-22.3c-3.6-13.4,15.2-31.3,13.4-45.3c-1.8-13.7-24.6-26.2-24.6-40.3
  c0-9.8,11-18.9,18.3-28.1"/>
<path class="st5" d="M392.6,795.4c-4.5-7-9.1-13.8-15.1-16.3c-13-5.4-35.2,8.1-47.3,1.1c-12.1-7-11.5-33-22.6-41.5
  c-11.1-8.5-36.1-1.2-45.9-11.1c-9.9-9.9-2.6-34.9-11.1-45.9c-8.5-11-34.5-10.5-41.5-22.6"/>
<g>
  <g>
    <path class="st4" d="M187.1,630.2c-31.7-0.5-63.4,0.2-95,2l0,25.9c0,3.8,3.1,6.9,6.9,6.9l27.7,0l5.2,0l43.2,0l8.2,0
      c3.8,0,6.9-3.1,6.9-6.9l0-27.8C189.2,630.2,188.1,630.2,187.1,630.2z"/>
    <path class="st4" d="M190.3,618.8l0-5.3c0-3.8-3.1-6.9-6.9-6.9L99,606.6c-3.8,0-6.9,3.1-6.9,6.9l0,3.3
      C124.8,617.5,157.5,618.1,190.3,618.8z"/>
  </g>
  <polyline class="st5" points="78,647.8 88.9,647.8 88.9,621.3 85.1,621.3   "/>
  <path class="st5" d="M180.2,662.6c3.8,0,6.9-3.1,6.9-6.9l0-44.5c0-3.8-3.1-6.9-6.9-6.9l-84.3,0.1c-2.9,0-5.3,1.8-6.4,4.2"/>
  <path class="st5" d="M123.6,662.6l-27.7,0c-3.8,0-6.9-3.1-6.9-6.9l-4.6,0"/>
  <line class="st6" x1="172" y1="662.6" x2="130.4" y2="662.6"/>
  <line class="st5" x1="146.3" y1="614.9" x2="181" y2="614.8"/>
  <line class="st7" x1="79.2" y1="614.9" x2="136.8" y2="614.9"/>
  <line class="st5" x1="124" y1="628.5" x2="181" y2="628.4"/>
  <line class="st7" x1="95.9" y1="628.5" x2="117.2" y2="628.5"/>
</g>
<g>
  <path class="st6" d="M202.7,625.3c11.9,0,11.9,14.4,23.8,14.4c11.9,0,11.9-14.5,23.7-14.5s11.9,14.4,23.8,14.4"/>
  <path class="st6" d="M202.7,639.8c11.9,0,11.9-14.5,23.7-14.5c11.9,0,11.9,14.4,23.8,14.4s11.9-14.5,23.7-14.5"/>
  <polyline class="st5" points="283,647.4 274,647.4 274,643.3 274,628.8 273.9,616 283,616   "/>
  <polyline class="st5" points="346.7,640.4 346.7,601.4 283.2,601.5   "/>
  <polyline class="st5" points="283.2,602.2 283.2,635.1 283.3,663.5 323.8,663.4 340.8,646.4   "/>
</g>
<g>
  <polyline class="st5" points="873.8,406 867.2,484.9 609.8,463.4 617.9,366 611.9,365.5   "/>
  <line class="st6" x1="879.6" y1="336.8" x2="874.4" y2="400.1"/>
  <line class="st5" x1="690.2" y1="305.7" x2="874.7" y2="321.1"/>
  <polyline class="st5" points="623,305.7 623.4,300.1 645.1,301.9   "/>
  <line class="st7" x1="619.7" y1="343.6" x2="594.3" y2="341.5"/>
  <line class="st6" x1="622.5" y1="311.1" x2="620.2" y2="338.6"/>
  <line class="st6" x1="678.8" y1="314.7" x2="705.3" y2="316.9"/>
  <polyline class="st5" points="710.3,317.3 720.1,318.1 715.7,370.8 628,363.4 632.4,310.8 673.5,314.2   "/>
  <path class="st5" d="M647.3,331.6l-5.6-0.5c0.9-11.3,10.2-9.6,10.2-9.6s-1.1,5.1,4.5,5.6c5.7,0.5,5.5-4.8,5.5-4.8s9.4,0,8.5,11.2
    l-5.6-0.5"/>
  <path class="st5" d="M646.9,337.5c0,0-0.6,13.4-6.2,17.9l26.7,2.2c0,0-4.3-10-3.3-19.5"/>
  <path class="st8" d="M652,337.9c0,0,2.2-3.5,3.6-1.4s2.7,0.9,3.3-1"/>
  <g>
    <path class="st5" d="M755.9,344.3l-4-0.3c0.7-8.1,7.3-6.9,7.3-6.9s-0.8,3.7,3.2,4c4.1,0.3,4-3.4,4-3.4s6.8,0,6.1,8.1l-4-0.3"/>
    <path class="st5" d="M755.5,349.2c0,0-0.4,9-4.4,12.3l19.2,1.6c0,0-3.2-5.8-2.5-12.6"/>
  </g>
  <path class="st7" d="M677.9,344.6c0.2,0,25.2,2.1,25.2,2.1"/>
  <path class="st7" d="M677.5,349.7c0.2,0,10.8,0.9,10.8,0.9"/>
  <path class="st7" d="M693.7,351c0.2,0,8.1,0.7,8.1,0.7"/>
  <path class="st7" d="M758.1,396c0.2,0,22.1,1.8,22.1,1.8"/>
  <path class="st7" d="M757.5,402.4c0.2,0,11.5,1,11.5,1"/>
  <path class="st7" d="M771.7,403.6c0.2,0,7.1,0.6,7.1,0.6"/>
  <path class="st5" d="M679.5,336.3c0,0,2.2-5.3,11.3-0.2c9.1,5.1,10,3.9,14.8,1"/>
  <line class="st6" x1="673.8" y1="375.1" x2="700.2" y2="377.4"/>
  <polyline class="st5" points="705.2,377.8 715,378.6 710.6,431.2 622.9,423.9 627.3,371.3 668.5,374.7   "/>
  <path class="st5" d="M642.2,392.1l-5.6-0.5c0.9-11.3,10.2-9.6,10.2-9.6s-1.1,5.1,4.5,5.6c5.7,0.5,5.5-4.8,5.5-4.8s9.4,0,8.5,11.2
    l-5.6-0.5"/>
  <path class="st5" d="M641.8,397.9c0,0-0.6,13.4-6.2,17.9l26.7,2.2c0,0-4.3-10-3.3-19.5"/>
  <path class="st8" d="M646.9,398.4c0,0,2.2-3.5,3.6-1.4c1.4,2.2,2.7,0.9,3.3-1"/>
  <path class="st7" d="M672.8,405.1c0.2,0,25.2,2.1,25.2,2.1"/>
  <path class="st7" d="M672.4,410.1c0.2,0,10.8,0.9,10.8,0.9"/>
  <path class="st7" d="M688.7,411.5c0.2,0,8.1,0.7,8.1,0.7"/>
  <path class="st5" d="M674.5,396.8c0,0,2.2-5.3,11.3-0.2c9.1,5.1,10,3.9,14.8,1"/>
  <line class="st6" x1="668.7" y1="435.6" x2="695.1" y2="437.8"/>
  <polyline class="st5" points="620.1,457.6 622.3,431.7 663.4,435.2   "/>
  <polyline class="st5" points="700.2,438.2 710,439.1 707.8,465   "/>
  <path class="st5" d="M637.2,452.5l-5.6-0.5c0.9-11.3,10.2-9.6,10.2-9.6s-1.1,5.1,4.5,5.6c5.7,0.5,5.5-4.8,5.5-4.8s9.4,0,8.5,11.2
    l-5.6-0.5"/>
  <path class="st5" d="M653.8,460.7c0-0.5,0.1-1.1,0.1-1.6"/>
  <path class="st5" d="M636.7,458.4c0,0,0,0.4-0.1,1.2"/>
  <path class="st8" d="M641.9,458.8c0,0,2.2-3.5,3.6-1.4c1.4,2.2,2.7,0.9,3.3-1"/>
  <path class="st5" d="M669.4,457.2c0,0,2.2-5.3,11.3-0.2c9.1,5.1,10,3.9,14.8,1"/>
  <polyline class="st5" points="793,360.2 796.1,323 739.1,318.2   "/>
  <line class="st7" x1="789.5" y1="401.3" x2="792.2" y2="369.9"/>
  <polyline class="st5" points="727,462.5 784,467.3 789,407.7   "/>
  <line class="st5" x1="722" y1="431.3" x2="719.1" y2="465.8"/>
  <line class="st6" x1="727.4" y1="366.1" x2="722.5" y2="425.4"/>
  <line class="st5" x1="732.1" y1="310.4" x2="728" y2="359.8"/>
  <polyline class="st5" points="780.4,338.7 777.8,369.1 741.9,366.1 744.9,330.1 780.8,333.2   "/>
  <polyline class="st5" points="773.3,373.8 773.2,375.1 745.4,372.8 745.5,371.5   "/>
  <polyline class="st5" points="768.7,379.5 768.6,381 749,379.4 749.1,377.9   "/>
  <g>
    <path class="st7" d="M749.5,399.9c-0.9,2.6-3.5,4.4-6.3,4.1c-3.4-0.3-5.9-3.3-5.6-6.7c0.3-3.4,3.3-5.9,6.7-5.6"/>
    <polyline class="st5" points="742.6,397.4 744.4,399.1 751.8,391.1     "/>
  </g>
  <path class="st7" d="M756.1,420.1c0.2,0,22.1,1.8,22.1,1.8"/>
  <path class="st7" d="M755.5,426.4c0.2,0,11.5,1,11.5,1"/>
  <path class="st7" d="M769.7,427.6c0.2,0,7.1,0.6,7.1,0.6"/>
  <g>
    <path class="st7" d="M747.5,423.9c-0.9,2.6-3.5,4.4-6.3,4.1c-3.4-0.3-5.9-3.3-5.6-6.7c0.3-3.4,3.3-5.9,6.7-5.6"/>
    <polyline class="st5" points="740.6,421.4 742.4,423.1 749.8,415.1     "/>
  </g>
  <g>
    <path class="st5" d="M743.4,414.5"/>
  </g>
  <polyline class="st5" points="776,447.3 775.3,455.6 736.2,452.3 736.9,444 771.4,446.9   "/>
  <polyline class="st1" points="815.5,425.4 841.3,427.6 840.4,438.3 803,435.2 803.9,424.4 811.1,425   "/>
  <polyline class="st5" points="856.1,379.1 859.4,339.8 803.8,335.2   "/>
  <line class="st7" x1="851.5" y1="433.5" x2="855.5" y2="385.9"/>
  <polyline class="st5" points="794.3,448.2 849.9,452.9 851,439.6   "/>
  <polyline class="st5" points="812.8,423.2 838.5,425.4 837.6,436.1 800.3,433 801.2,422.2 808.4,422.8   "/>
  <path class="st7" d="M632.6,292.8c0.1-1-0.7-1.9-1.7-2c-1-0.1-1.9,0.7-2,1.7c-0.1,1,0.7,1.9,1.7,2"/>
  <path class="st7" d="M638.6,293.3c0.1-1-0.7-1.9-1.7-2c-1-0.1-1.9,0.7-2,1.7s0.7,1.9,1.7,2"/>
  <path class="st7" d="M644.5,293.8c0.1-1-0.7-1.9-1.7-2c-1-0.1-1.9,0.7-2,1.7s0.7,1.9,1.7,2"/>
  <polyline class="st5" points="689.2,300.9 688.9,300.2 688.6,299.5 687.7,296.9 675.8,295.9 661.5,294.7 649.6,293.7 645.1,301.9
    "/>
  <polyline class="st5" points="735.9,303.9 734.8,300.9 722.9,299.9 708.6,298.7 696.7,297.7 695.1,300.5   "/>
  <polyline class="st5" points="624.1,291.8 624.7,284.5 882.2,306.1 880.1,331.3   "/>
  <path class="st5" d="M877.9,319.1"/>
  <polyline class="st3" points="812.8,399.4 812,409.1 802.3,408.3 803.1,398.7 805.3,398.8   "/>
  <polyline class="st4" points="814.5,377.8 813.8,387.5 804.1,386.7 804.9,377 807.1,377.2   "/>
  <polyline class="st3" points="816.3,356.4 815.5,366.1 805.8,365.3 806.6,355.7 808.8,355.8   "/>
  <line class="st7" x1="820.6" y1="408.3" x2="844" y2="410.2"/>
  <line class="st7" x1="821.1" y1="402.4" x2="846.4" y2="404.4"/>
  <polyline class="st5" points="810.7,397.8 809.9,407.5 800.2,406.7 801,397 803.2,397.2   "/>
  <line class="st7" x1="822.4" y1="386.7" x2="845.7" y2="388.6"/>
  <line class="st7" x1="822.8" y1="380.7" x2="831.8" y2="381.4"/>
  <line class="st7" x1="836.4" y1="381.8" x2="846.2" y2="382.6"/>
  <polyline class="st5" points="812.4,376.2 811.7,385.9 802,385.1 802.8,375.4 805,375.6   "/>
  <line class="st7" x1="824.1" y1="365.4" x2="847.5" y2="367.2"/>
  <line class="st7" x1="824.6" y1="359.4" x2="847.1" y2="361.2"/>
  <polyline class="st5" points="814.2,354.8 813.4,364.5 803.7,363.7 804.5,354.1 806.7,354.2   "/>
</g>
<path class="st1" d="M279.7,363.7l-84.3,8.3c-0.5,0.1-1-0.4-1.1-0.9l-6.1-62.4c-0.1-0.5,0.4-1,0.9-1.1l84.3-8.3
  c0.5-0.1,1,0.4,1.1,0.9l6.1,62.4C280.7,363.1,280.3,363.6,279.7,363.7z"/>
<path class="st5" d="M280.8,274.6c-0.6-2.3-1.4-4.1-2.3-5.5c-2.2-3.4-5.2-4.6-9.9-5.3"/>
<path class="st5" d="M286,322.2c-0.5-6.1-1-11.7-1.4-16.6"/>
<path class="st5" d="M197.8,488.1c5.3,18.6,43.5,12.6,50.2,11.9l2-0.2c6.6-0.7,45.3-3.3,46.3-22.6c0.7-12.1-3.9-75.4-7.9-125.9"/>
<path class="st6" d="M182.7,397.8c5.1,34.9,10.3,67.8,13.5,83.8"/>
<polyline class="st5" points="176.5,353.8 176.6,354.6 178.4,366.1 "/>
<path class="st5" d="M258.2,262.8c-6.3-0.3-11.7-0.3-11.7-0.3l-5.3,3.6l-9.8,1.1l-8.1,0.9l-18,2l-6-2.3c0,0-12.4,2.6-21.3,6.1
  s-10.9,7.2-8.7,26.9c0.4,3.2,1.3,10.1,2.5,19.3"/>
<polyline class="st5" points="248.7,296.8 269.9,294.5 277.1,359.4 216.9,366.1 "/>
<polyline class="st5" points="208.4,367 191.3,368.9 185.3,314.9 184.1,304 240.2,297.8 "/>
<line class="st5" x1="278.3" y1="370.1" x2="192.5" y2="379.7"/>
<g>
  <path class="st5" d="M215.1,425.5c-5.5,0.6-7.7,0.9-13.1,1.5c-1.9,0.2-3.8-1.1-4.2-2.9c-0.4-1.8-0.8-3.7-1.2-5.5
    c-0.4-1.8,0.9-3.5,2.8-3.7c5.6-0.6,11.3-1.3,16.9-1.9c1.9-0.2,3.8,1.1,4.1,2.9c0.3,1.9,0.6,3.7,0.9,5.6"/>
  <path class="st5" d="M247.8,409.5c1.9-0.2,3.7,1.1,3.8,2.9c0.2,1.9,0.3,3.7,0.5,5.6c0.1,1.8-1.3,3.5-3.2,3.7
    c-5.5,0.6-10.9,1.2-16.4,1.8c-1.9,0.2-3.6-1.1-3.9-2.9c-0.3-1.9-0.5-3.7-0.8-5.6c-0.3-1.8,1.1-3.5,3.1-3.7
    c3.6-0.4,7.2-0.8,10.9-1.2"/>
  <path class="st5" d="M282.9,410.5c0,1.4,0,2.7,0,4.1c0,1.8-1.5,3.5-3.4,3.7c-5.5,0.6-10.9,1.2-16.4,1.8c-1.9,0.2-3.5-1.1-3.6-3
    c-0.1-1.9-0.2-3.8-0.3-5.6c-0.1-1.8,1.4-3.5,3.3-3.7c5.6-0.6,7.7-0.9,13.4-1.5"/>
</g>
<g>
  <path class="st5" d="M200.8,438.6c-0.4-1.8,0.8-3.4,2.6-3.7c5.4-0.6,10.8-1.2,16.1-1.8c1.9-0.2,3.6,1.1,3.9,2.9
    c0.3,1.9,0.6,3.7,0.9,5.6c0.3,1.8-0.9,3.5-2.7,3.7c-5.2,0.6-10.4,1.2-15.6,1.7c-1.2,0.1-2.5-0.4-3.2-1.4"/>
  <path class="st5" d="M243,442.9c-2.6,0.3-5.2,0.6-7.8,0.9c-1.8,0.2-3.5-1.1-3.7-2.9c-0.3-1.9-0.5-3.7-0.8-5.6
    c-0.3-1.8,1-3.5,2.9-3.7c5.4-0.6,10.8-1.2,16.1-1.8c1.9-0.2,3.5,1.1,3.6,3c0.2,1.9,0.3,3.7,0.5,5.6c0.1,1.8-1.2,3.5-3,3.7"/>
  <path class="st5" d="M275.8,426.8c1.3-0.1,2.6-0.3,4-0.4c1.9-0.2,3.4,1.1,3.4,3c0,1.9,0,3.8,0,5.7c0,1.8-1.5,3.5-3.3,3.7
    c-5.2,0.6-10.4,1.2-15.6,1.7c-1.8,0.2-3.4-1.1-3.5-3c-0.1-1.9-0.2-3.8-0.3-5.6c-0.1-1.8,1.3-3.5,3.2-3.7c1.4-0.2,2.6-0.3,4.1-0.5"
    />
</g>
<g>
  <path class="st5" d="M226.7,456.2c0.3,1.9,0.6,3.7,0.9,5.6c0.3,1.8-0.9,3.5-2.6,3.6c-4.9,0.6-9.9,1.1-14.8,1.7
    c-1.7,0.2-3.4-1.1-3.8-2.9c-0.4-1.8-0.8-3.7-1.2-5.5c-0.4-1.8,0.7-3.4,2.5-3.6c5.1-0.6,6-0.7,11.1-1.2"/>
  <path class="st5" d="M235.1,462.8c-0.4-0.5-0.8-1.1-0.9-1.9c-0.3-1.9-0.5-3.7-0.8-5.6c-0.3-1.8,1-3.5,2.7-3.7
    c5.1-0.6,10.2-1.1,15.4-1.7c1.8-0.2,3.3,1.1,3.5,3c0.2,1.9,0.3,3.7,0.5,5.6c0.1,1.8-1.1,3.5-2.8,3.7c-3,0.3-6.1,0.7-9.1,1"/>
  <path class="st5" d="M270.8,447.9c4.2-0.5,5.2-0.6,9.4-1c1.8-0.2,3.2,1.2,3.2,3c0,1.9,0,3.8,0,5.7c0,1.8-1.4,3.5-3.1,3.7
    c-4.9,0.6-9.9,1.1-14.8,1.7c-1.7,0.2-3.2-1.2-3.3-3c-0.1-1.9-0.2-3.8-0.3-5.6c-0.1-1.1,0.4-2.2,1.2-2.9"/>
</g>
<path class="st5" d="M215.3,474.6c4.9-0.5,6.1-0.7,10.9-1.2c1.7-0.2,3.3,1.1,3.6,3c0.3,1.9,0.6,3.7,0.9,5.6c0.3,1.8-0.8,3.4-2.4,3.6
  c-4.7,0.5-9.4,1-14,1.6c-1.6,0.2-3.3-1.1-3.7-2.9c-0.4-1.8-0.8-3.7-1.2-5.5"/>
<path class="st5" d="M250.7,470.6c0.9-0.1,1.8-0.2,2.7-0.3c1.7-0.2,3.2,1.2,3.3,3c0.2,1.9,0.3,3.7,0.5,5.6c0.1,1.8-1.1,3.5-2.7,3.7
  c-4.7,0.5-9.4,1-14,1.6c-1.6,0.2-3.1-1.2-3.4-3c-0.3-1.9-0.5-3.7-0.8-5.6c-0.3-1.8,0.9-3.5,2.6-3.6c1.7-0.2,3.4-0.4,5.1-0.6"/>
<path class="st5" d="M283.1,477.9c-0.5,0.9-1.4,1.6-2.4,1.7c-4.7,0.5-9.4,1-14.1,1.6c-1.6,0.2-3-1.2-3.1-3c-0.1-1.9-0.2-3.8-0.3-5.6
  c-0.1-1.8,1.2-3.5,2.8-3.7c4.9-0.5,9.7-1.1,14.6-1.6c1.7-0.2,3,1.2,3,3"/>
<line class="st5" x1="185.1" y1="280.8" x2="190.2" y2="280.3"/>
<line class="st5" x1="261.9" y1="285.8" x2="261.4" y2="281.4"/>
<path class="st5" d="M208.8,508.1l0.3,2.8c0.3,2.5,2.6,4.3,5.1,4.1l5.2-0.6l27.7-3.1l37.6-4.2c2.5-0.3,4.3-2.6,4.1-5.1l-0.3-2.7"/>
<line class="st6" x1="280" y1="385.5" x2="194.2" y2="395.1"/>
<line class="st7" x1="179.4" y1="374.6" x2="140.7" y2="378.9"/>
<line class="st7" x1="176.1" y1="344.8" x2="151.6" y2="347.6"/>
<line class="st7" x1="174.6" y1="331" x2="160.6" y2="332.6"/>
<line class="st7" x1="181" y1="388.4" x2="167" y2="390"/>
<line class="st7" x1="165.1" y1="360.3" x2="126.4" y2="364.6"/>
<line class="st7" x1="285.3" y1="331" x2="307.2" y2="328.5"/>
<line class="st7" x1="281.5" y1="297.3" x2="306" y2="294.6"/>
<line class="st7" x1="280.2" y1="285.1" x2="294.2" y2="283.6"/>
<line class="st7" x1="286.7" y1="343.8" x2="300.7" y2="342.3"/>
<line class="st7" x1="296.1" y1="313.9" x2="334.8" y2="309.6"/>
<path class="st6" d="M443.5,377.5c-32.8-37.1-89.3-68.3-151.7-55.5"/>
<path class="st6" d="M610.7,354.3c-181.9-17.3-272,108-181.3,115.3c54.2,4.5,53.9-39.8,22.8-81.5"/>
<line class="st7" x1="606.7" y1="365" x2="597.6" y2="364.3"/>
<polyline class="st5" points="606.7,347.5 619.5,348.6 618.5,361.2 610.8,360.5 "/>
<line class="st5" x1="294.6" y1="614.6" x2="294.6" y2="620.9"/>
<line class="st5" x1="308.1" y1="629" x2="308.1" y2="635.2"/>
<line class="st5" x1="315.1" y1="614.6" x2="315.1" y2="620.9"/>
<line class="st5" x1="322.1" y1="614.6" x2="322.1" y2="620.9"/>
<line class="st5" x1="294.6" y1="643.3" x2="294.6" y2="649.5"/>
<line class="st5" x1="301.6" y1="643.3" x2="301.6" y2="649.5"/>
<path class="st5" d="M304.9,614.5c1.8,0,3.2,1.5,3.2,3.2s-1.5,3.2-3.2,3.2s-3.2-1.5-3.2-3.2"/>
<line class="st5" x1="322.1" y1="643.3" x2="322.1" y2="649.5"/>
<path class="st5" d="M311.9,643.2c1.8,0,3.2,1.5,3.2,3.2s-1.5,3.2-3.2,3.2s-3.2-1.5-3.2-3.2"/>
<line class="st5" x1="328.6" y1="629" x2="328.6" y2="635.2"/>
<line class="st5" x1="335.6" y1="629" x2="335.6" y2="635.2"/>
<path class="st5" d="M321.6,632.1c0,1.8-1.5,3.2-3.2,3.2s-3.2-1.5-3.2-3.2s1.5-3.2,3.2-3.2"/>
<path class="st5" d="M297.9,635.3c-1.8,0-3.2-1.5-3.2-3.2s1.5-3.2,3.2-3.2s3.2,1.5,3.2,3.2"/>
<path class="st5" d="M332.4,621c-1.8,0-3.2-1.5-3.2-3.2s1.5-3.2,3.2-3.2s3.2,1.5,3.2,3.2"/>
<g>
  <line class="st5" x1="413" y1="207.5" x2="413" y2="213.8"/>
  <line class="st5" x1="481.5" y1="207.5" x2="481.5" y2="213.8"/>
  <line class="st5" x1="433.5" y1="207.5" x2="433.5" y2="213.8"/>
  <line class="st5" x1="440.5" y1="207.5" x2="440.5" y2="213.8"/>
  <path class="st5" d="M423.3,207.4c1.8,0,3.2,1.5,3.2,3.2c0,1.8-1.5,3.2-3.2,3.2s-3.2-1.5-3.2-3.2"/>
  <line class="st5" x1="509" y1="207.5" x2="509" y2="213.8"/>
  <line class="st5" x1="516" y1="207.5" x2="516" y2="213.8"/>
  <path class="st5" d="M495,210.6c0,1.8-1.5,3.2-3.2,3.2s-3.2-1.5-3.2-3.2c0-1.8,1.5-3.2,3.2-3.2"/>
  <path class="st5" d="M471.3,213.9c-1.8,0-3.2-1.5-3.2-3.2c0-1.8,1.5-3.2,3.2-3.2s3.2,1.5,3.2,3.2"/>
  <path class="st5" d="M457.8,213.9c-1.8,0-3.2-1.5-3.2-3.2c0-1.8,1.5-3.2,3.2-3.2s3.2,1.5,3.2,3.2"/>
  <line class="st5" x1="523.2" y1="207.5" x2="523.2" y2="213.8"/>
  <line class="st5" x1="550.7" y1="207.5" x2="550.7" y2="213.8"/>
  <line class="st5" x1="557.7" y1="207.5" x2="557.7" y2="213.8"/>
  <path class="st5" d="M533.4,207.4c1.8,0,3.2,1.5,3.2,3.2c0,1.8-1.5,3.2-3.2,3.2s-3.2-1.5-3.2-3.2"/>
  <path class="st5" d="M581.4,213.9c-1.8,0-3.2-1.5-3.2-3.2c0-1.8,1.5-3.2,3.2-3.2s3.2,1.5,3.2,3.2"/>
  <path class="st5" d="M567.9,213.9c-1.8,0-3.2-1.5-3.2-3.2c0-1.8,1.5-3.2,3.2-3.2s3.2,1.5,3.2,3.2"/>
</g>
<path class="st5" d="M454.5,170.2v-4.5c0-1.6-1.4-3-3-3h-17v6"/>
<path class="st6" d="M433.5,187h18c1.6,0,3-1.3,3-3v-8.7"/>
<path class="st5" d="M438.8,179.3V176h-10.7v-13.3H416c-1.6,0-3,1.4-3,3V184c0,1.7,1.4,3,3,3h12.2v-4.3"/>
<path class="st9" d="M650.4,700.6c-1.5-0.3-3-0.4-4.6-0.4c-14.4,0-26.1,11.7-26.1,26.1c0,27.6-5.6,35.4-6.7,43.8"/>
<path class="st10" d="M671.6,722.5c-1.3-8.9-7.1-16.3-15-19.9"/>
<path class="st9" d="M672.8,744.1c-0.5-4.1-0.8-8.9-0.9-14.6"/>
<line class="st9" x1="646.8" y1="771.5" x2="646.8" y2="724"/>
<path class="st9" d="M646.8,736.3c0,0-10.4-0.5-10.4-9.8"/>
<path class="st9" d="M646.8,755.6c0,0-8.8,1-13.7-6.2"/>
<path class="st9" d="M646.8,768.4c0,0,16.1-3.6,12.5-19.1"/>
<g>
  <path class="st9" d="M366.6,685.3c-4.4,0.9-7.7,4.8-7.7,9.5v78.2"/>
  <path class="st10" d="M385.2,694.7c0-5.3-4.3-9.7-9.7-9.7h-4"/>
  <path class="st9" d="M380.5,698.2c-0.1,0.5-0.2,0.9-0.2,1.4c0,2.7,2.2,4.9,4.9,4.9s4.9-2.2,4.9-4.9c0-0.6-0.1-1.1-0.3-1.6"/>
  <line class="st9" x1="355.8" y1="768.2" x2="362.3" y2="768.2"/>
</g>
<g>
  <line class="st11" x1="634.1" y1="639.4" x2="616" y2="639.4"/>
  <path class="st9" d="M680.3,639.3h-5.6c-1-3.1-3.9-5.3-7.4-5.3c-2.6,0-4.9,1.3-6.4,3.3c0-0.3,0.1-0.6,0.1-0.9
    c0-4.1-3.3-7.4-7.4-7.4c-3.9,0-7.1,3-7.4,6.9c-0.3-0.1-0.6-0.1-0.9-0.1c-2.2,0-4.1,1.5-4.8,3.5"/>
</g>
<line class="st9" x1="628.5" y1="582" x2="638.5" y2="582"/>
<line class="st9" x1="435.5" y1="541.5" x2="445.5" y2="541.5"/>
<line class="st9" x1="364.5" y1="658" x2="374.5" y2="658"/>
<line class="st9" x1="322" y1="711" x2="332" y2="711"/>
<path class="st5" d="M601.2,335.9l5-61.2c0.4-5.3,5.1-9.2,10.3-8.8l287.3,23.5c5.3,0.4,9.2,5.1,8.8,10.3l-15.8,193
  c-0.4,5.3-5.1,9.2-10.3,8.8l-287.3-23.5c-5.3-0.4-9.2-5.1-8.8-10.3l7.9-96.3"/>
<path class="st5" d="M895.5,392.6c0.4,0.9,0.6,1.9,0.5,3c-0.3,3.3-3.1,5.7-6.4,5.4c-3.3-0.3-5.7-3.1-5.4-6.4
  c0.3-3.3,3.1-5.7,6.4-5.4"/>
<g>
  <path class="st11" d="M312.4,647.5"/>
  <line class="st11" x1="751.5" y1="749.5" x2="818.9" y2="749.5"/>
  <g>
    <line class="st11" x1="774.2" y1="749.2" x2="774.2" y2="739.2"/>
  </g>
  <g>
    <line class="st11" x1="739.8" y1="775.1" x2="739.8" y2="764.8"/>
  </g>
  <line class="st11" x1="784.2" y1="800.5" x2="838.6" y2="800.5"/>
  <line class="st11" x1="727.6" y1="775.1" x2="852.1" y2="775.1"/>
  <g>
    <line class="st11" x1="739.8" y1="826.1" x2="739.8" y2="817.9"/>
  </g>
  <polyline class="st11" points="683.2,851.4 646.7,851.4 652.5,851.4 838.6,851.4  "/>
  <line class="st11" x1="723.2" y1="826.1" x2="838.6" y2="826.1"/>
  <g>
    <line class="st11" x1="706" y1="851.1" x2="706" y2="840.4"/>
    <line class="st11" x1="774.2" y1="851.1" x2="774.2" y2="826.1"/>
  </g>
  <g>
    <line class="st11" x1="739.8" y1="877" x2="739.8" y2="852"/>
  </g>
  <g>
    <line class="st11" x1="808" y1="775.1" x2="808" y2="750"/>
  </g>
  <g>
    <path class="st11" d="M842.5,775.1"/>
    <path class="st11" d="M842.5,800.2"/>
  </g>
  <g>
    <line class="st11" x1="808" y1="826.1" x2="808" y2="801"/>
  </g>
  <g>
    <line class="st11" x1="774.2" y1="851.1" x2="774.2" y2="826.1"/>
    <line class="st11" x1="774.2" y1="786.2" x2="774.2" y2="775.7"/>
  </g>
  <g>
    <line class="st11" x1="808" y1="877" x2="808" y2="852"/>
  </g>
</g>
<g>
  <line class="st11" x1="301.4" y1="210.9" x2="171.1" y2="210.9"/>
  <line class="st11" x1="255" y1="211.2" x2="255" y2="221.5"/>
  <line class="st11" x1="186.7" y1="211.2" x2="186.7" y2="221.5"/>
  <line class="st11" x1="289.5" y1="185.3" x2="289.5" y2="210.4"/>
  <line class="st11" x1="221.2" y1="185.3" x2="221.2" y2="210.4"/>
  <path class="st11" d="M171.1,159.9"/>
  <path class="st11" d="M331.7,159.9"/>
  <line class="st11" x1="331.7" y1="185.3" x2="200.6" y2="185.3"/>
  <line class="st11" x1="255" y1="160.2" x2="255" y2="185.3"/>
</g>
<g>
  <line class="st11" x1="301.4" y1="774.3" x2="171.1" y2="774.3"/>
  <line class="st11" x1="255" y1="774" x2="255" y2="763.7"/>
  <line class="st11" x1="186.7" y1="774" x2="186.7" y2="763.7"/>
  <line class="st11" x1="289.5" y1="799.9" x2="289.5" y2="774.8"/>
  <line class="st11" x1="221.2" y1="799.9" x2="221.2" y2="774.8"/>
  <path class="st11" d="M171.1,825.3"/>
  <path class="st11" d="M331.7,825.3"/>
  <line class="st11" x1="331.7" y1="799.9" x2="200.6" y2="799.9"/>
  <line class="st11" x1="255" y1="825" x2="255" y2="799.9"/>
</g>
<g>
  <polyline class="st11" points="761.3,208.7 765.9,208.7 691.2,208.7  "/>
  <line class="st11" x1="783.4" y1="183.1" x2="707.3" y2="183.1"/>
  <g>
    <line class="st11" x1="743" y1="209" x2="743" y2="234.1"/>
  </g>
  <line class="st11" x1="743" y1="170.6" x2="743" y2="183.1"/>
</g>
<path class="st7" d="M469.4,694.8c1.5-2.1,2.6-5.6,6.3-4c3.6,1.7,4.1,1.9,9.3-1.1s8.6-3.4,11.8,0.4c3.2,3.9,8.2,0.7,13,3.3
  s4.9,3,4.9,3"/>
<path class="st7" d="M519.3,692.1c1.7-2.5,1-6.7,6.1-4.6c5.1,2.1,4.7,0.4,5.6-0.6"/>
</svg>
