<svg width="280" height="180" viewBox="0 0 280 180" xmlns="http://www.w3.org/2000/svg">
  <g fill="none" fill-rule="evenodd">
    <path d="M191.832 101.6903c-3.2617.044-7.0529.5192-8.7489 3.3056-1.5656 2.5712-.5976 5.988-1.6944 8.7912-.96 2.4528-3.3816 4.0648-5.8872 4.8792s-5.1688.9824-7.7568 1.4736c-1.5792.3-3.3352.8832-3.9808 2.3544-.3112.7096-.308 1.528-.6312 2.232-.784 1.7104-3.024 2.0472-4.9024 2.1504a10669.75 10669.75 0 0 1-5.0488.2792c-.4664.0256-.9576.06-1.3448.32-.34.2288-.5504.5992-.7792.9384-1.2952 1.9216-3.464 3.1168-5.708 3.696-2.2432.58-4.5872.6104-6.9048.636-6.8672.0784-13.7344.156-20.6008.2336-.432.6552-.012 1.5968.664 1.9952.6752.3984 1.504.404 2.2888.3984 11.3592-.0832 22.7192-.1664 34.0792-.2488 8.4752-.0616 16.9592-.124 25.408-.8048.9464-.076 1.964-.1896 2.672-.8224.5424-.484.8128-1.196 1.0632-1.8784 3.2896-8.9672 6.5784-17.9344 9.868-26.9008.2872-.7832.5784-1.6256.372-2.4328-.2064-.808-1.1432-1.4776-1.8808-1.0896M87.807 101.2662c-3.6312-.232-7.1088 1.3464-10.3768 2.9464-2.3048 1.1288-4.7048 2.3816-6.0984 4.5368-1.512 2.3368-1.564 5.3128-1.324 8.0856.2496 2.8712.7568 5.7128 1.264 8.5496.5024 2.816 1.0064 5.6328 1.5096 8.4488.14.784.388 1.7024 1.1384 1.968.3624.1288.7624.0656 1.14-.004a38.865 38.865 0 0 0 9.0312-2.8472c1.1952 5.1968 3.5352 10.1264 6.8072 14.336.188.2424.4024.4976.7016.5656.2736.0624.5536-.0472.8112-.1568 6.748-2.8744 12.5128-7.5968 18.1768-12.2576 1.1232-.9248 2.2672-1.8712 3.0528-3.096 1.3056-2.0352 1.5-4.6408 2.8544-6.6432 2.2272-3.2936 6.728-3.9328 10.6888-4.2712-2.8696-3.6176-4.3744-8.1064-6.676-12.1088-2.3008-4.0024-5.8944-7.7824-10.4928-8.1968-.3816-.0344-.792-.0384-1.1192.1616-.2992.184-.4784.5088-.6344.8232-1.608 3.2464-2.1264 7.0208-1.4536 10.58a60.6876 60.6876 0 0 0-5.6632-6.8696c-1.8504 2.5216-2.772 5.7096-2.552 8.8296a70.4891 70.4891 0 0 0-10.0688-13.1832M115.1612 168.0486c-1.3864-3.2288-3.5944-8.44-4.0936-11.5776-.364-2.284-.3528-4.6096-.3408-6.9224.0096-1.8496.0192-3.6992.0296-5.5488-2.3088 1.2896-4.1256 3.28-6.0824 5.0584a41.2197 41.2197 0 0 1-10.3936 6.8936c-1.448.6712-2.976 1.2656-4.572 1.3032-1.596.0376-3.2848-.5752-4.1808-1.8968l-.688-.1136c-2.1328 2.4672-5.0928 8.5616-6.6824 12.804h37.004z" fill="#DEE6F7"/>
    <path d="M105.0495 67.4931s0 6.0168 2.7424 9.4152c0 0-3.1104.9408-4.5432 0M92.3186 54.558s8.1872 10.1511 24.52 7.736M92.3186 58.6118s-.2456 10.8872-7.2864 10.068M82.5765 67.6978s-3.4384-1.2688-3.8072 2.0056c-.368 3.2752.164 10.3976 5.8536 9.2928 0 0 2.1696 6.9176 6.9592 8.6776V99.217s5.8536 5.936 11.3392-.2864l-.492-4.0112" stroke="#46587F" stroke-width="2.1536" stroke-linecap="round" stroke-linejoin="round"/>
    <path d="M116.0198 66.1423s.3272 20.14-8.924 25.2568c0 0-4.052 1.1048-8.1864-.5736" stroke="#46587F" stroke-width="2.1536" stroke-linecap="round" stroke-linejoin="round"/>
    <path d="M111.0667 91.5626s.0824 1.2688-1.392 2.2104c0 0 10.152-1.8832 11.1344-23.4552.9824-21.5728-9.3744-32.052-36.1448-26.8944 0 0-.9824-1.8008.368-2.8248 0 0-2.9472.492-2.988 3.9712M80.8898 88.7095c2.7488 3.1936 5.2072 4.7768 5.2072 4.7768s-3.3888-5.02-.6592-7.64" stroke="#46587F" stroke-width="2.1536" stroke-linecap="round" stroke-linejoin="round"/>
    <path d="M74.4842 58.1446c-.6216 2.9208-1.036 6.4256-1.036 10.58 0 7.7984 2.7864 13.732 5.7432 17.832" stroke="#46587F" stroke-width="1.8376" stroke-linecap="round" stroke-linejoin="round" stroke-dasharray=".548 2.2968"/>
    <path d="M80.0796 45.8798s-2.9352 2.756-4.9 9.4936M88.9214 99.422s-7.0408.7368-11.912 2.7424c-4.8712 2.0064-14.532 4.5848-6.0992 32.5432 0 0 5.8944 2.2512 14.8792-5.0352 0 0-2.7216-11.6664-4.4824-14.8176M73.83 138.1052s4.776 18.3384 13.7816 19.7304c9.0056 1.3912 28.4096-21.4904 28.4096-21.4904" stroke="#46587F" stroke-width="2.1536" stroke-linecap="round" stroke-linejoin="round"/>
    <path d="M83.1906 135.8126s1.6784 9.1696 6.7136 12.076" stroke="#46587F" stroke-width=".9408" stroke-linecap="round" stroke-linejoin="round" stroke-dasharray="1.4112 1.4112 .4704"/>
    <path d="M92.4827 146.1282s14.204-8.3096 19.1568-13.304c0 0 2.9472-4.6664 4.5848-7.696 1.6376-3.0288 6.5912-4.8296 12.1576-1.8824 0 0-.4912.7368-3.9704 1.1872s-4.0528 4.912-4.0528 5.3216" stroke="#46587F" stroke-width="2.1536" stroke-linecap="round" stroke-linejoin="round"/>
    <path d="M127.8651 126.1966l-5.0496 3.476" stroke="#46587F" stroke-width="1.9648" stroke-linecap="round" stroke-linejoin="round"/>
    <path d="M105.7452 100.077s6.9592-.6144 10.8064 5.444c2.0888 3.288 5.6112 8.8416 8.396 13.2344M149.6952 134.7486h-32.0376v-2.7424h21.408" stroke="#46587F" stroke-width="2.1536" stroke-linecap="round" stroke-linejoin="round"/>
    <path d="M178.948 134.7486h-26.96" stroke="#46587F" stroke-width="1.8376" stroke-linecap="round" stroke-linejoin="round" stroke-dasharray=".548 2.2968"/>
    <path d="M141.4402 131.3509s7.3272-22.3504 8.596-25.6248c1.2696-3.2752 1.1872-3.9296 3.7664-3.9296h32.0104c8.9648 0 9.1288-.0416 7.9824 3.4792l-6.0584 17.9704s-3.5616 11.5024-6.1808 11.5024M118.6808 138.0642s5.7712 13.9584 11.216 15.9648c5.444 2.0056 31.8056-15.9648 31.8056-15.9648s7.0816 2.0872 11.7896-.9008" stroke="#46587F" stroke-width="2.1536" stroke-linecap="round" stroke-linejoin="round"/>
    <path d="M129.4874 137.6958s1.7192 5.1984 4.3392 6.304" stroke="#46587F" stroke-width="1.8376" stroke-linecap="round" stroke-linejoin="round" stroke-dasharray=".548 2.2968"/>
    <path d="M137.06 142.8126s9.62-3.2752 13.5497-5.1168" stroke="#46587F" stroke-width="2.1536" stroke-linecap="round" stroke-linejoin="round"/>
    <path d="M83.1906 159.118s-1.3424 1.8985-3.1672 5.1729" stroke="#46587F" stroke-width="1.8376" stroke-linecap="round" stroke-linejoin="round" stroke-dasharray=".548 2.2968"/>
    <path d="M111.7933 164.2911c-4.2712-10.6592-2.7592-16.4024-2.7592-16.4024M87.366 154.4243s.3823-.2608 1.0911-.2392M87.366 102.574s7.968 6.8767 9.6055 10.4791c0 0 1.2008-6.2224 3.1112-8.46M101.9929 106.449l4.2576 3.8208s-1.0696-5.272.2184-7.696M172.93 113.3345c-.5032.1608-1.0696.2504-1.6688.2504-2.0912 0-3.7864-1.0992-3.7864-2.4552 0-1.3568 1.6952-2.4568 3.7864-2.4568 2.0912 0 3.7864 1.1 3.7864 2.4568" stroke="#46587F" stroke-width="2.1536" stroke-linecap="round" stroke-linejoin="round"/>
    <path d="M128.387 52.4029l1.536-30.3664c.1016-2.016 1.8184-3.5672 3.8352-3.4656l15.2744.7728c.2792 1.192.416 2.452.5912 3.6552 1.1104 7.6184 4.7792 14.5888 8.3904 21.388 2.5864 4.8696 5.4776 10.0424 10.4304 12.4648l-1.56.8232-20.5088-.8408-.5752.1096-13.948-.7056c-2.016-.1016-3.568-1.8192-3.4656-3.8352" fill="#DEE6F7"/>
    <path d="M131.5417 20.7474c.1016-2.016 1.8184-3.5672 3.8352-3.4656l61.4064 3.1064c2.016.1016 3.568 1.8184 3.4656 3.8344l-1.5736 31.1144c-.1016 2.016-1.8192 3.5672-3.8352 3.4656l-3.7152-.188-11.3528 10.2592c-.5984.5408-1.552.0888-1.512-.7176l.5728-11.3144-3.412-.1728-25.5032-1.0456" stroke="#46587F" stroke-width="2.1536" stroke-linecap="round" stroke-linejoin="round"/>
    <path d="M147.419 55.654l-13.948-.7056c-2.016-.1016-3.5672-1.8184-3.4656-3.8352l1.376-27.1976" stroke="#46587F" stroke-width=".9408" stroke-linecap="round" stroke-linejoin="round" stroke-dasharray="1.4112 1.4112 .4704"/>
    <path d="M189.1346 84.7388l-3.8768-.22-3.412-.1728-.5728 11.3144c-.04.8064-1.0352 1.16-1.576.5616l-10.2592-11.3528-3.716-.188c-2.016-.1016-3.5672-1.8184-3.4656-3.8352l1.0336-20.432" stroke="#46587F" stroke-width="2.1536" stroke-linecap="round" stroke-linejoin="round"/>
    <path d="M231.0089 83.4345c-.1016 2.016-1.8192 3.5672-3.8352 3.4656l-35.1864-1.9992" stroke="#46587F" stroke-width=".9408" stroke-linecap="round" stroke-linejoin="round" stroke-dasharray="1.4112 1.4112 .4704"/>
    <path d="M202.4671 48.027l26.6048 1.3456c2.016.1024 3.568 1.8192 3.4656 3.8352l-1.3456 26.6" stroke="#46587F" stroke-width="2.1536" stroke-linecap="round" stroke-linejoin="round"/>
    <path d="M189.0835 33.4013l-41.4872-2.0984" stroke="#46587F" stroke-width="1.8376" stroke-linecap="round" stroke-linejoin="round" stroke-dasharray=".548 2.2968"/>
    <path d="M188.7378 40.2337l-18.8064-.9512M166.9026 39.129l-3.8032-.192M157.746 38.6662l-3.8032-.1928" stroke="#46587F" stroke-width="2.1536" stroke-linecap="round" stroke-linejoin="round"/>
    <path d="M208.2647 68.9568c-.1888 3.7344 2.6856 6.9152 6.42 7.104 3.7344.1888 6.9152-2.6856 7.104-6.42.1888-3.7344-2.6856-6.9152-6.42-7.104-3.7344-.1888-6.9152 2.6856-7.104 6.42" fill="#66C2CC"/>
    <path d="M218.5628 74.649c2.7128-.7712 4.7584-3.1992 4.9088-6.172.1888-3.7344-2.6856-6.9152-6.42-7.104" stroke="#46587F" stroke-width=".9408" stroke-linecap="round" stroke-linejoin="round" stroke-dasharray="1.4112 1.4112 .4704"/>
    <path d="M214.5972 61.7005c-2.5824.8488-4.504 3.2152-4.6496 6.092-.1888 3.7352 2.6856 6.9152 6.42 7.104M203.7522 66.974l-12.3104-.6225" stroke="#46587F" stroke-width="2.1536" stroke-linecap="round" stroke-linejoin="round"/>
    <path d="M203.4206 73.5306l-18.72-.9472M168.8433 168.0486h100.9864" stroke="#46587F" stroke-width="1.8376" stroke-linecap="round" stroke-linejoin="round" stroke-dasharray=".548 2.2968"/>
    <path d="M10.2769 168.0486h155.6208" stroke="#46587F" stroke-width="2.1536" stroke-linecap="round" stroke-linejoin="round"/>
  </g>
</svg>
